<?xml version="1.0" encoding="UTF-8" standalone="no"?><svg xmlns="http://www.w3.org/2000/svg" xmlns:xlink="http://www.w3.org/1999/xlink" contentScriptType="application/ecmascript" contentStyleType="text/css" height="319px" preserveAspectRatio="none" style="width:352px;height:319px;" version="1.1" viewBox="0 0 352 319" width="352px" zoomAndPan="magnify"><defs><filter height="300%" id="fxk7fd3" width="300%" x="-1" y="-1"><feGaussianBlur result="blurOut" stdDeviation="2.0"/><feColorMatrix in="blurOut" result="blurOut2" type="matrix" values="0 0 0 0 0 0 0 0 0 0 0 0 0 0 0 0 0 0 .4 0"/><feOffset dx="4.0" dy="4.0" in="blurOut2" result="blurOut3"/><feBlend in="SourceGraphic" in2="blurOut3" mode="normal"/></filter></defs><g><!--class Component--><rect fill="#FEFECE" filter="url(#fxk7fd3)" height="60.9551" style="stroke: #A80036; stroke-width: 1.5;" width="98" x="217.5" y="8"/><ellipse cx="232.5" cy="24" fill="#B4A7E5" rx="11" ry="11" style="stroke: #A80036; stroke-width: 1.0;"/><path d="M228.9277,20.2651 L228.9277,18.1069 L236.3071,18.1069 L236.3071,20.2651 L233.8418,20.2651 L233.8418,28.3418 L236.3071,28.3418 L236.3071,30.5 L228.9277,30.5 L228.9277,28.3418 L231.3931,28.3418 L231.3931,20.2651 Z "/><text fill="#000000" font-family="sans-serif" font-size="12" font-style="italic" lengthAdjust="spacingAndGlyphs" textLength="66" x="246.5" y="28.5352">Component</text><line style="stroke: #A80036; stroke-width: 1.5;" x1="218.5" x2="314.5" y1="40" y2="40"/><line style="stroke: #A80036; stroke-width: 1.5;" x1="218.5" x2="314.5" y1="48" y2="48"/><ellipse cx="228.5" cy="59.9775" fill="#84BE84" rx="3" ry="3" style="stroke: #038048; stroke-width: 1.0;"/><text fill="#000000" font-family="sans-serif" font-size="11" lengthAdjust="spacingAndGlyphs" textLength="60" x="237.5" y="62.6348">operation()</text><!--class ConcreteComponent--><rect fill="#FEFECE" filter="url(#fxk7fd3)" height="60.9551" style="stroke: #A80036; stroke-width: 1.5;" width="149" x="6" y="129"/><ellipse cx="21" cy="145" fill="#ADD1B2" rx="11" ry="11" style="stroke: #A80036; stroke-width: 1.0;"/><path d="M23.4731,151.1431 Q22.8921,151.4419 22.2529,151.5913 Q21.6138,151.7407 20.9082,151.7407 Q18.4014,151.7407 17.0815,150.0889 Q15.7617,148.437 15.7617,145.3159 Q15.7617,142.1865 17.0815,140.5347 Q18.4014,138.8828 20.9082,138.8828 Q21.6138,138.8828 22.2612,139.0322 Q22.9087,139.1816 23.4731,139.4805 L23.4731,142.2031 Q22.8423,141.6221 22.2488,141.3523 Q21.6553,141.0825 21.0244,141.0825 Q19.6797,141.0825 18.9949,142.1492 Q18.3101,143.2158 18.3101,145.3159 Q18.3101,147.4077 18.9949,148.4744 Q19.6797,149.541 21.0244,149.541 Q21.6553,149.541 22.2488,149.2712 Q22.8423,149.0015 23.4731,148.4204 Z "/><text fill="#000000" font-family="sans-serif" font-size="12" lengthAdjust="spacingAndGlyphs" textLength="117" x="35" y="149.5352">ConcreteComponent</text><line style="stroke: #A80036; stroke-width: 1.5;" x1="7" x2="154" y1="161" y2="161"/><line style="stroke: #A80036; stroke-width: 1.5;" x1="7" x2="154" y1="169" y2="169"/><ellipse cx="17" cy="180.9775" fill="#84BE84" rx="3" ry="3" style="stroke: #038048; stroke-width: 1.0;"/><text fill="#000000" font-family="sans-serif" font-size="11" lengthAdjust="spacingAndGlyphs" textLength="60" x="26" y="183.6348">operation()</text><!--class Decoration--><rect fill="#FEFECE" filter="url(#fxk7fd3)" height="60.9551" style="stroke: #A80036; stroke-width: 1.5;" width="153" x="190" y="129"/><ellipse cx="231.55" cy="145" fill="#A9DCDF" rx="11" ry="11" style="stroke: #A80036; stroke-width: 1.0;"/><path d="M231.6633,140.5981 L230.5095,145.6699 L232.8254,145.6699 Z M230.1691,138.3569 L233.1657,138.3569 L236.5109,150.75 L234.0622,150.75 L233.2985,147.687 L230.0197,147.687 L229.2727,150.75 L226.8239,150.75 Z "/><text fill="#000000" font-family="sans-serif" font-size="12" font-style="italic" lengthAdjust="spacingAndGlyphs" textLength="62" x="251.45" y="149.5352">Decoration</text><line style="stroke: #A80036; stroke-width: 1.5;" x1="191" x2="342" y1="161" y2="161"/><rect fill="none" height="6" style="stroke: #C82930; stroke-width: 1.0;" width="6" x="198" y="169.9775"/><text fill="#000000" font-family="sans-serif" font-size="11" lengthAdjust="spacingAndGlyphs" textLength="127" x="210" y="175.6348">Component component</text><line style="stroke: #A80036; stroke-width: 1.5;" x1="191" x2="342" y1="181.9551" y2="181.9551"/><!--class ConcreteDecoration--><rect fill="#FEFECE" filter="url(#fxk7fd3)" height="60.9551" style="stroke: #A80036; stroke-width: 1.5;" width="145" x="194" y="250"/><ellipse cx="209" cy="266" fill="#ADD1B2" rx="11" ry="11" style="stroke: #A80036; stroke-width: 1.0;"/><path d="M211.4731,272.1431 Q210.8921,272.4419 210.2529,272.5913 Q209.6138,272.7407 208.9082,272.7407 Q206.4014,272.7407 205.0815,271.0889 Q203.7617,269.437 203.7617,266.3159 Q203.7617,263.1865 205.0815,261.5347 Q206.4014,259.8828 208.9082,259.8828 Q209.6138,259.8828 210.2612,260.0322 Q210.9087,260.1816 211.4731,260.4805 L211.4731,263.2031 Q210.8423,262.6221 210.2488,262.3523 Q209.6553,262.0825 209.0244,262.0825 Q207.6797,262.0825 206.9949,263.1492 Q206.3101,264.2158 206.3101,266.3159 Q206.3101,268.4077 206.9949,269.4744 Q207.6797,270.541 209.0244,270.541 Q209.6553,270.541 210.2488,270.2712 Q210.8423,270.0015 211.4731,269.4204 Z "/><text fill="#000000" font-family="sans-serif" font-size="12" lengthAdjust="spacingAndGlyphs" textLength="113" x="223" y="270.5352">ConcreteDecoration</text><line style="stroke: #A80036; stroke-width: 1.5;" x1="195" x2="338" y1="282" y2="282"/><line style="stroke: #A80036; stroke-width: 1.5;" x1="195" x2="338" y1="290" y2="290"/><ellipse cx="205" cy="301.9775" fill="#84BE84" rx="3" ry="3" style="stroke: #038048; stroke-width: 1.0;"/><text fill="#000000" font-family="sans-serif" font-size="11" lengthAdjust="spacingAndGlyphs" textLength="60" x="214" y="304.6348">operation()</text><path d="M202.6489,80.0375 C177.9581,96.0999 150.2177,114.146 127.4206,128.9764 " fill="none" style="stroke: #A80036; stroke-width: 1.0; stroke-dasharray: 7.0,7.0;"/><polygon fill="none" points="198.9824,74.0719,219.5643,69.0334,206.6167,85.8072,198.9824,74.0719" style="stroke: #A80036; stroke-width: 1.0;"/><path d="M253.897,89.2927 C253.4851,102.7857 253.9387,116.9401 255.2577,128.9764 " fill="none" style="stroke: #A80036; stroke-width: 1.0; stroke-dasharray: 7.0,7.0;"/><polygon fill="none" points="246.933,88.5198,255.2566,69.0334,260.9016,89.4573,246.933,88.5198" style="stroke: #A80036; stroke-width: 1.0;"/><path d="M279.5224,115.8672 C280.4227,100.3484 280.0501,83.2203 278.4048,69.0334 " fill="none" style="stroke: #A80036; stroke-width: 1.0;"/><polygon fill="#FFFFFF" points="278.4037,128.9764,282.8995,123.3383,279.4242,117.0199,274.9285,122.658,278.4037,128.9764" style="stroke: #A80036; stroke-width: 1.0;"/><path d="M266.5,210.2927 C266.5,223.7857 266.5,237.9401 266.5,249.9764 " fill="none" style="stroke: #A80036; stroke-width: 1.0;"/><polygon fill="none" points="259.5001,210.0334,266.5,190.0334,273.5001,210.0334,259.5001,210.0334" style="stroke: #A80036; stroke-width: 1.0;"/></g></svg>