<?xml version="1.0" encoding="UTF-8" standalone="no"?><svg xmlns="http://www.w3.org/2000/svg" xmlns:xlink="http://www.w3.org/1999/xlink" contentScriptType="application/ecmascript" contentStyleType="text/css" height="212px" preserveAspectRatio="none" style="width:364px;height:212px;" version="1.1" viewBox="0 0 364 212" width="364px" zoomAndPan="magnify"><defs><filter height="300%" id="f6seg9k" width="300%" x="-1" y="-1"><feGaussianBlur result="blurOut" stdDeviation="2.0"/><feColorMatrix in="blurOut" result="blurOut2" type="matrix" values="0 0 0 0 0 0 0 0 0 0 0 0 0 0 0 0 0 0 .4 0"/><feOffset dx="4.0" dy="4.0" in="blurOut2" result="blurOut3"/><feBlend in="SourceGraphic" in2="blurOut3" mode="normal"/></filter></defs><g><!--class WorkRequest--><rect fill="#FEFECE" filter="url(#f6seg9k)" height="86.8652" style="stroke: #A80036; stroke-width: 1.5;" width="146" x="109" y="8"/><ellipse cx="141.1" cy="24" fill="#A9DCDF" rx="11" ry="11" style="stroke: #A80036; stroke-width: 1.0;"/><path d="M141.2133,19.5981 L140.0595,24.6699 L142.3754,24.6699 Z M139.7191,17.3569 L142.7157,17.3569 L146.0609,29.75 L143.6122,29.75 L142.8485,26.687 L139.5697,26.687 L138.8227,29.75 L136.3739,29.75 Z "/><text fill="#000000" font-family="sans-serif" font-size="12" font-style="italic" lengthAdjust="spacingAndGlyphs" textLength="76" x="158.9" y="28.5352">WorkRequest</text><line style="stroke: #A80036; stroke-width: 1.5;" x1="110" x2="254" y1="40" y2="40"/><rect fill="none" height="6" style="stroke: #C82930; stroke-width: 1.0;" width="6" x="117" y="48.9775"/><text fill="#000000" font-family="sans-serif" font-size="11" lengthAdjust="spacingAndGlyphs" textLength="53" x="129" y="54.6348">UUID mId;</text><rect fill="none" height="6" style="stroke: #C82930; stroke-width: 1.0;" width="6" x="117" y="61.9326"/><text fill="#000000" font-family="sans-serif" font-size="11" lengthAdjust="spacingAndGlyphs" textLength="120" x="129" y="67.5898">WorkSpec mWorkSpec;</text><rect fill="none" height="6" style="stroke: #C82930; stroke-width: 1.0;" width="6" x="117" y="74.8877"/><text fill="#000000" font-family="sans-serif" font-size="11" lengthAdjust="spacingAndGlyphs" textLength="108" x="129" y="80.5449">Set&lt;String&gt; mTags;</text><line style="stroke: #A80036; stroke-width: 1.5;" x1="110" x2="254" y1="86.8652" y2="86.8652"/><!--class OneTimeWorkRequest--><rect fill="#FEFECE" filter="url(#f6seg9k)" height="48" style="stroke: #A80036; stroke-width: 1.5;" width="160" x="6" y="155"/><ellipse cx="21" cy="171" fill="#ADD1B2" rx="11" ry="11" style="stroke: #A80036; stroke-width: 1.0;"/><path d="M23.4731,177.1431 Q22.8921,177.4419 22.2529,177.5913 Q21.6138,177.7407 20.9082,177.7407 Q18.4014,177.7407 17.0815,176.0889 Q15.7617,174.437 15.7617,171.3159 Q15.7617,168.1865 17.0815,166.5347 Q18.4014,164.8828 20.9082,164.8828 Q21.6138,164.8828 22.2612,165.0322 Q22.9087,165.1816 23.4731,165.4805 L23.4731,168.2031 Q22.8423,167.6221 22.2488,167.3523 Q21.6553,167.0825 21.0244,167.0825 Q19.6797,167.0825 18.9949,168.1492 Q18.3101,169.2158 18.3101,171.3159 Q18.3101,173.4077 18.9949,174.4744 Q19.6797,175.541 21.0244,175.541 Q21.6553,175.541 22.2488,175.2712 Q22.8423,175.0015 23.4731,174.4204 Z "/><text fill="#000000" font-family="sans-serif" font-size="12" lengthAdjust="spacingAndGlyphs" textLength="128" x="35" y="175.5352">OneTimeWorkRequest</text><line style="stroke: #A80036; stroke-width: 1.5;" x1="7" x2="165" y1="187" y2="187"/><line style="stroke: #A80036; stroke-width: 1.5;" x1="7" x2="165" y1="195" y2="195"/><!--class PeriodicWorkRequest--><rect fill="#FEFECE" filter="url(#f6seg9k)" height="48" style="stroke: #A80036; stroke-width: 1.5;" width="154" x="201" y="155"/><ellipse cx="216" cy="171" fill="#ADD1B2" rx="11" ry="11" style="stroke: #A80036; stroke-width: 1.0;"/><path d="M218.4731,177.1431 Q217.8921,177.4419 217.2529,177.5913 Q216.6138,177.7407 215.9082,177.7407 Q213.4014,177.7407 212.0815,176.0889 Q210.7617,174.437 210.7617,171.3159 Q210.7617,168.1865 212.0815,166.5347 Q213.4014,164.8828 215.9082,164.8828 Q216.6138,164.8828 217.2612,165.0322 Q217.9087,165.1816 218.4731,165.4805 L218.4731,168.2031 Q217.8423,167.6221 217.2488,167.3523 Q216.6553,167.0825 216.0244,167.0825 Q214.6797,167.0825 213.9949,168.1492 Q213.3101,169.2158 213.3101,171.3159 Q213.3101,173.4077 213.9949,174.4744 Q214.6797,175.541 216.0244,175.541 Q216.6553,175.541 217.2488,175.2712 Q217.8423,175.0015 218.4731,174.4204 Z "/><text fill="#000000" font-family="sans-serif" font-size="12" lengthAdjust="spacingAndGlyphs" textLength="122" x="230" y="175.5352">PeriodicWorkRequest</text><line style="stroke: #A80036; stroke-width: 1.5;" x1="202" x2="354" y1="187" y2="187"/><line style="stroke: #A80036; stroke-width: 1.5;" x1="202" x2="354" y1="195" y2="195"/><path d="M136.852,111.4622 C125.2444,126.8785 113.4136,142.5913 104.0877,154.9773 " fill="none" style="stroke: #A80036; stroke-width: 1.0;"/><polygon fill="none" points="131.6086,106.7886,149.2307,95.0217,142.7928,115.2096,131.6086,106.7886" style="stroke: #A80036; stroke-width: 1.0;"/><path d="M227.148,111.4622 C238.7556,126.8785 250.5864,142.5913 259.9123,154.9773 " fill="none" style="stroke: #A80036; stroke-width: 1.0;"/><polygon fill="none" points="221.2072,115.2096,214.7693,95.0217,232.3914,106.7886,221.2072,115.2096" style="stroke: #A80036; stroke-width: 1.0;"/></g></svg>