<?xml version="1.0" encoding="UTF-8" standalone="no"?><svg xmlns="http://www.w3.org/2000/svg" xmlns:xlink="http://www.w3.org/1999/xlink" contentScriptType="application/ecmascript" contentStyleType="text/css" height="413px" preserveAspectRatio="none" style="width:188px;height:413px;" version="1.1" viewBox="0 0 188 413" width="188px" zoomAndPan="magnify"><defs><filter height="300%" id="fbkqp01" width="300%" x="-1" y="-1"><feGaussianBlur result="blurOut" stdDeviation="2.0"/><feColorMatrix in="blurOut" result="blurOut2" type="matrix" values="0 0 0 0 0 0 0 0 0 0 0 0 0 0 0 0 0 0 .4 0"/><feOffset dx="4.0" dy="4.0" in="blurOut2" result="blurOut3"/><feBlend in="SourceGraphic" in2="blurOut3" mode="normal"/></filter></defs><g><ellipse cx="103.5" cy="20" fill="#000000" filter="url(#fbkqp01)" rx="10" ry="10" style="stroke: none; stroke-width: 1.0;"/><rect fill="#FEFECE" filter="url(#fbkqp01)" height="34.1328" rx="12.5" ry="12.5" style="stroke: #A80036; stroke-width: 1.5;" width="68" x="69.5" y="94"/><text fill="#000000" font-family="sans-serif" font-size="12" lengthAdjust="spacingAndGlyphs" textLength="48" x="79.5" y="115.6016">填充内容</text><rect fill="#FEFECE" filter="url(#fbkqp01)" height="34.1328" rx="12.5" ry="12.5" style="stroke: #A80036; stroke-width: 1.5;" width="135" x="36" y="148.1328"/><text fill="#000000" font-family="sans-serif" font-size="12" lengthAdjust="spacingAndGlyphs" textLength="115" x="46" y="169.7344">进入 MessageQueue</text><rect fill="#FEFECE" filter="url(#fbkqp01)" height="34.1328" rx="12.5" ry="12.5" style="stroke: #A80036; stroke-width: 1.5;" width="56" x="75.5" y="202.2656"/><text fill="#000000" font-family="sans-serif" font-size="12" lengthAdjust="spacingAndGlyphs" textLength="36" x="85.5" y="223.8672">待处理</text><rect fill="#FEFECE" filter="url(#fbkqp01)" height="34.1328" rx="12.5" ry="12.5" style="stroke: #A80036; stroke-width: 1.5;" width="68" x="69.5" y="256.3984"/><text fill="#000000" font-family="sans-serif" font-size="12" lengthAdjust="spacingAndGlyphs" textLength="48" x="79.5" y="278">清空内容</text><rect fill="#FEFECE" filter="url(#fbkqp01)" height="34.1328" rx="12.5" ry="12.5" style="stroke: #A80036; stroke-width: 1.5;" width="80" x="63.5" y="310.5313"/><text fill="#000000" font-family="sans-serif" font-size="12" lengthAdjust="spacingAndGlyphs" textLength="60" x="73.5" y="332.1328">放回消息池</text><polygon fill="#FEFECE" filter="url(#fbkqp01)" points="65,50,142,50,154,62,142,74,65,74,53,62,65,50" style="stroke: #A80036; stroke-width: 1.5;"/><text fill="#000000" font-family="sans-serif" font-size="11" lengthAdjust="spacingAndGlyphs" textLength="77" x="65" y="66.1572">从消息池取消息</text><ellipse cx="103.5" cy="396.6641" fill="none" filter="url(#fbkqp01)" rx="10" ry="10" style="stroke: #000000; stroke-width: 1.0;"/><ellipse cx="104" cy="397.1641" fill="#000000" filter="url(#fbkqp01)" rx="6" ry="6" style="stroke: none; stroke-width: 1.0;"/><line style="stroke: #A80036; stroke-width: 1.5;" x1="103.5" x2="103.5" y1="128.1328" y2="148.1328"/><polygon fill="#A80036" points="99.5,138.1328,103.5,148.1328,107.5,138.1328,103.5,142.1328" style="stroke: #A80036; stroke-width: 1.0;"/><line style="stroke: #A80036; stroke-width: 1.5;" x1="103.5" x2="103.5" y1="182.2656" y2="202.2656"/><polygon fill="#A80036" points="99.5,192.2656,103.5,202.2656,107.5,192.2656,103.5,196.2656" style="stroke: #A80036; stroke-width: 1.0;"/><line style="stroke: #A80036; stroke-width: 1.5;" x1="103.5" x2="103.5" y1="236.3984" y2="256.3984"/><polygon fill="#A80036" points="99.5,246.3984,103.5,256.3984,107.5,246.3984,103.5,250.3984" style="stroke: #A80036; stroke-width: 1.0;"/><line style="stroke: #A80036; stroke-width: 1.5;" x1="103.5" x2="103.5" y1="290.5313" y2="310.5313"/><polygon fill="#A80036" points="99.5,300.5313,103.5,310.5313,107.5,300.5313,103.5,304.5313" style="stroke: #A80036; stroke-width: 1.0;"/><line style="stroke: #A80036; stroke-width: 1.5;" x1="103.5" x2="103.5" y1="74" y2="94"/><polygon fill="#A80036" points="99.5,84,103.5,94,107.5,84,103.5,88" style="stroke: #A80036; stroke-width: 1.0;"/><line style="stroke: #A80036; stroke-width: 1.5;" x1="103.5" x2="103.5" y1="344.6641" y2="354.6641"/><line style="stroke: #A80036; stroke-width: 1.5;" x1="103.5" x2="183" y1="354.6641" y2="354.6641"/><polygon fill="#A80036" points="179,217.332,183,207.332,187,217.332,183,213.332" style="stroke: #A80036; stroke-width: 1.5;"/><line style="stroke: #A80036; stroke-width: 1.5;" x1="183" x2="183" y1="62" y2="354.6641"/><line style="stroke: #A80036; stroke-width: 1.5;" x1="183" x2="154" y1="62" y2="62"/><polygon fill="#A80036" points="164,58,154,62,164,66,160,62" style="stroke: #A80036; stroke-width: 1.0;"/><line style="stroke: #A80036; stroke-width: 1.5;" x1="53" x2="24" y1="62" y2="62"/><polygon fill="#A80036" points="20,203.332,24,213.332,28,203.332,24,207.332" style="stroke: #A80036; stroke-width: 1.5;"/><line style="stroke: #A80036; stroke-width: 1.5;" x1="24" x2="24" y1="62" y2="366.6641"/><line style="stroke: #A80036; stroke-width: 1.5;" x1="24" x2="103.5" y1="366.6641" y2="366.6641"/><line style="stroke: #A80036; stroke-width: 1.5;" x1="103.5" x2="103.5" y1="366.6641" y2="386.6641"/><polygon fill="#A80036" points="99.5,376.6641,103.5,386.6641,107.5,376.6641,103.5,380.6641" style="stroke: #A80036; stroke-width: 1.0;"/><line style="stroke: #A80036; stroke-width: 1.5;" x1="103.5" x2="103.5" y1="30" y2="50"/><polygon fill="#A80036" points="99.5,40,103.5,50,107.5,40,103.5,44" style="stroke: #A80036; stroke-width: 1.0;"/></g></svg>