<?xml version="1.0" encoding="UTF-8" standalone="no"?><svg xmlns="http://www.w3.org/2000/svg" xmlns:xlink="http://www.w3.org/1999/xlink" contentScriptType="application/ecmascript" contentStyleType="text/css" height="224px" preserveAspectRatio="none" style="width:466px;height:224px;" version="1.1" viewBox="0 0 466 224" width="466px" zoomAndPan="magnify"><defs><filter height="300%" id="fithomi" width="300%" x="-1" y="-1"><feGaussianBlur result="blurOut" stdDeviation="2.0"/><feColorMatrix in="blurOut" result="blurOut2" type="matrix" values="0 0 0 0 0 0 0 0 0 0 0 0 0 0 0 0 0 0 .4 0"/><feOffset dx="4.0" dy="4.0" in="blurOut2" result="blurOut3"/><feBlend in="SourceGraphic" in2="blurOut3" mode="normal"/></filter></defs><g><!--class Window--><rect fill="#FEFECE" filter="url(#fithomi)" height="60.9551" style="stroke: #A80036; stroke-width: 1.5;" width="193" x="6" y="14.5"/><ellipse cx="76.25" cy="30.5" fill="#A9DCDF" rx="11" ry="11" style="stroke: #A80036; stroke-width: 1.0;"/><path d="M76.3633,26.0981 L75.2095,31.1699 L77.5254,31.1699 Z M74.8691,23.8569 L77.8657,23.8569 L81.2109,36.25 L78.7622,36.25 L77.9985,33.187 L74.7197,33.187 L73.9727,36.25 L71.5239,36.25 Z "/><text fill="#000000" font-family="sans-serif" font-size="12" font-style="italic" lengthAdjust="spacingAndGlyphs" textLength="44" x="96.75" y="35.0352">Window</text><line style="stroke: #A80036; stroke-width: 1.5;" x1="7" x2="198" y1="46.5" y2="46.5"/><line style="stroke: #A80036; stroke-width: 1.5;" x1="7" x2="198" y1="54.5" y2="54.5"/><ellipse cx="17" cy="66.4775" fill="#84BE84" rx="3" ry="3" style="stroke: #038048; stroke-width: 1.0;"/><text fill="#000000" font-family="sans-serif" font-size="11" lengthAdjust="spacingAndGlyphs" textLength="167" x="26" y="69.1348">void setContentView(View view)</text><!--class View--><rect fill="#FEFECE" filter="url(#fithomi)" height="73.9102" style="stroke: #A80036; stroke-width: 1.5;" width="137" x="234" y="8"/><ellipse cx="284.75" cy="24" fill="#A9DCDF" rx="11" ry="11" style="stroke: #A80036; stroke-width: 1.0;"/><path d="M284.8633,19.5981 L283.7095,24.6699 L286.0254,24.6699 Z M283.3691,17.3569 L286.3657,17.3569 L289.7109,29.75 L287.2622,29.75 L286.4985,26.687 L283.2197,26.687 L282.4727,29.75 L280.0239,29.75 Z "/><text fill="#000000" font-family="sans-serif" font-size="12" font-style="italic" lengthAdjust="spacingAndGlyphs" textLength="27" x="305.25" y="28.5352">View</text><line style="stroke: #A80036; stroke-width: 1.5;" x1="235" x2="370" y1="40" y2="40"/><line style="stroke: #A80036; stroke-width: 1.5;" x1="235" x2="370" y1="48" y2="48"/><ellipse cx="245" cy="59.9775" fill="#84BE84" rx="3" ry="3" style="stroke: #038048; stroke-width: 1.0;"/><text fill="#000000" font-family="sans-serif" font-size="11" font-style="italic" lengthAdjust="spacingAndGlyphs" textLength="60" x="254" y="62.6348">void draw()</text><ellipse cx="245" cy="72.9326" fill="#84BE84" rx="3" ry="3" style="stroke: #038048; stroke-width: 1.0;"/><text fill="#000000" font-family="sans-serif" font-size="11" font-style="italic" lengthAdjust="spacingAndGlyphs" textLength="111" x="254" y="75.5898">void measure(int int)</text><!--class Button--><rect fill="#FEFECE" filter="url(#fithomi)" height="73.9102" style="stroke: #A80036; stroke-width: 1.5;" width="137" x="148" y="142"/><ellipse cx="194.25" cy="158" fill="#ADD1B2" rx="11" ry="11" style="stroke: #A80036; stroke-width: 1.0;"/><path d="M196.7231,164.1431 Q196.1421,164.4419 195.5029,164.5913 Q194.8638,164.7407 194.1582,164.7407 Q191.6514,164.7407 190.3315,163.0889 Q189.0117,161.437 189.0117,158.3159 Q189.0117,155.1865 190.3315,153.5347 Q191.6514,151.8828 194.1582,151.8828 Q194.8638,151.8828 195.5112,152.0322 Q196.1587,152.1816 196.7231,152.4805 L196.7231,155.2031 Q196.0923,154.6221 195.4988,154.3523 Q194.9053,154.0825 194.2744,154.0825 Q192.9297,154.0825 192.2449,155.1492 Q191.5601,156.2158 191.5601,158.3159 Q191.5601,160.4077 192.2449,161.4744 Q192.9297,162.541 194.2744,162.541 Q194.9053,162.541 195.4988,162.2712 Q196.0923,162.0015 196.7231,161.4204 Z "/><text fill="#000000" font-family="sans-serif" font-size="12" lengthAdjust="spacingAndGlyphs" textLength="36" x="214.75" y="162.5352">Button</text><line style="stroke: #A80036; stroke-width: 1.5;" x1="149" x2="284" y1="174" y2="174"/><line style="stroke: #A80036; stroke-width: 1.5;" x1="149" x2="284" y1="182" y2="182"/><ellipse cx="159" cy="193.9775" fill="#84BE84" rx="3" ry="3" style="stroke: #038048; stroke-width: 1.0;"/><text fill="#000000" font-family="sans-serif" font-size="11" lengthAdjust="spacingAndGlyphs" textLength="60" x="168" y="196.6348">void draw()</text><ellipse cx="159" cy="206.9326" fill="#84BE84" rx="3" ry="3" style="stroke: #038048; stroke-width: 1.0;"/><text fill="#000000" font-family="sans-serif" font-size="11" lengthAdjust="spacingAndGlyphs" textLength="111" x="168" y="209.5898">void measure(int int)</text><!--class TextView--><rect fill="#FEFECE" filter="url(#fithomi)" height="73.9102" style="stroke: #A80036; stroke-width: 1.5;" width="137" x="320" y="142"/><ellipse cx="358.4" cy="158" fill="#ADD1B2" rx="11" ry="11" style="stroke: #A80036; stroke-width: 1.0;"/><path d="M360.8731,164.1431 Q360.2921,164.4419 359.6529,164.5913 Q359.0138,164.7407 358.3082,164.7407 Q355.8014,164.7407 354.4815,163.0889 Q353.1617,161.437 353.1617,158.3159 Q353.1617,155.1865 354.4815,153.5347 Q355.8014,151.8828 358.3082,151.8828 Q359.0138,151.8828 359.6612,152.0322 Q360.3087,152.1816 360.8731,152.4805 L360.8731,155.2031 Q360.2423,154.6221 359.6488,154.3523 Q359.0553,154.0825 358.4244,154.0825 Q357.0797,154.0825 356.3949,155.1492 Q355.7101,156.2158 355.7101,158.3159 Q355.7101,160.4077 356.3949,161.4744 Q357.0797,162.541 358.4244,162.541 Q359.0553,162.541 359.6488,162.2712 Q360.2423,162.0015 360.8731,161.4204 Z "/><text fill="#000000" font-family="sans-serif" font-size="12" lengthAdjust="spacingAndGlyphs" textLength="53" x="377.6" y="162.5352">TextView</text><line style="stroke: #A80036; stroke-width: 1.5;" x1="321" x2="456" y1="174" y2="174"/><line style="stroke: #A80036; stroke-width: 1.5;" x1="321" x2="456" y1="182" y2="182"/><ellipse cx="331" cy="193.9775" fill="#84BE84" rx="3" ry="3" style="stroke: #038048; stroke-width: 1.0;"/><text fill="#000000" font-family="sans-serif" font-size="11" lengthAdjust="spacingAndGlyphs" textLength="60" x="340" y="196.6348">void draw()</text><ellipse cx="331" cy="206.9326" fill="#84BE84" rx="3" ry="3" style="stroke: #038048; stroke-width: 1.0;"/><text fill="#000000" font-family="sans-serif" font-size="11" lengthAdjust="spacingAndGlyphs" textLength="111" x="340" y="209.5898">void measure(int int)</text><path d="M199.375,45 C210.7886,45 222.2021,45 233.6157,45 " fill="none" style="stroke: #A80036; stroke-width: 1.0;"/><path d="M267.7049,99.2157 C258.5098,113.5428 248.7949,128.68 240.3273,141.8737 " fill="none" style="stroke: #A80036; stroke-width: 1.0;"/><polygon fill="none" points="261.8506,95.3773,278.5442,82.3265,273.6328,102.9391,261.8506,95.3773" style="stroke: #A80036; stroke-width: 1.0;"/><path d="M337.2951,99.2157 C346.4902,113.5428 356.2051,128.68 364.6727,141.8737 " fill="none" style="stroke: #A80036; stroke-width: 1.0;"/><polygon fill="none" points="331.3672,102.9391,326.4558,82.3265,343.1494,95.3773,331.3672,102.9391" style="stroke: #A80036; stroke-width: 1.0;"/></g></svg>