<?xml version="1.0" encoding="UTF-8" standalone="no"?><svg xmlns="http://www.w3.org/2000/svg" xmlns:xlink="http://www.w3.org/1999/xlink" contentScriptType="application/ecmascript" contentStyleType="text/css" height="198px" preserveAspectRatio="none" style="width:227px;height:198px;" version="1.1" viewBox="0 0 227 198" width="227px" zoomAndPan="magnify"><defs><filter height="300%" id="ftq6n5e" width="300%" x="-1" y="-1"><feGaussianBlur result="blurOut" stdDeviation="2.0"/><feColorMatrix in="blurOut" result="blurOut2" type="matrix" values="0 0 0 0 0 0 0 0 0 0 0 0 0 0 0 0 0 0 .4 0"/><feOffset dx="4.0" dy="4.0" in="blurOut2" result="blurOut3"/><feBlend in="SourceGraphic" in2="blurOut3" mode="normal"/></filter></defs><g><!--class Prototype--><rect fill="#FEFECE" filter="url(#ftq6n5e)" height="60.9551" style="stroke: #A80036; stroke-width: 1.5;" width="87" x="105.5" y="8"/><ellipse cx="120.5" cy="24" fill="#B4A7E5" rx="11" ry="11" style="stroke: #A80036; stroke-width: 1.0;"/><path d="M116.9277,20.2651 L116.9277,18.1069 L124.3071,18.1069 L124.3071,20.2651 L121.8418,20.2651 L121.8418,28.3418 L124.3071,28.3418 L124.3071,30.5 L116.9277,30.5 L116.9277,28.3418 L119.3931,28.3418 L119.3931,20.2651 Z "/><text fill="#000000" font-family="sans-serif" font-size="12" font-style="italic" lengthAdjust="spacingAndGlyphs" textLength="55" x="134.5" y="28.5352">Prototype</text><line style="stroke: #A80036; stroke-width: 1.5;" x1="106.5" x2="191.5" y1="40" y2="40"/><line style="stroke: #A80036; stroke-width: 1.5;" x1="106.5" x2="191.5" y1="48" y2="48"/><ellipse cx="116.5" cy="59.9775" fill="#84BE84" rx="3" ry="3" style="stroke: #038048; stroke-width: 1.0;"/><text fill="#000000" font-family="sans-serif" font-size="11" lengthAdjust="spacingAndGlyphs" textLength="37" x="125.5" y="62.6348">clone()</text><!--class ConcretePrototype--><rect fill="#FEFECE" filter="url(#ftq6n5e)" height="60.9551" style="stroke: #A80036; stroke-width: 1.5;" width="138" x="80" y="129"/><ellipse cx="95" cy="145" fill="#ADD1B2" rx="11" ry="11" style="stroke: #A80036; stroke-width: 1.0;"/><path d="M97.4731,151.1431 Q96.8921,151.4419 96.2529,151.5913 Q95.6138,151.7407 94.9082,151.7407 Q92.4014,151.7407 91.0815,150.0889 Q89.7617,148.437 89.7617,145.3159 Q89.7617,142.1865 91.0815,140.5347 Q92.4014,138.8828 94.9082,138.8828 Q95.6138,138.8828 96.2612,139.0322 Q96.9087,139.1816 97.4731,139.4805 L97.4731,142.2031 Q96.8423,141.6221 96.2488,141.3523 Q95.6553,141.0825 95.0244,141.0825 Q93.6797,141.0825 92.9949,142.1492 Q92.3101,143.2158 92.3101,145.3159 Q92.3101,147.4077 92.9949,148.4744 Q93.6797,149.541 95.0244,149.541 Q95.6553,149.541 96.2488,149.2712 Q96.8423,149.0015 97.4731,148.4204 Z "/><text fill="#000000" font-family="sans-serif" font-size="12" lengthAdjust="spacingAndGlyphs" textLength="106" x="109" y="149.5352">ConcretePrototype</text><line style="stroke: #A80036; stroke-width: 1.5;" x1="81" x2="217" y1="161" y2="161"/><line style="stroke: #A80036; stroke-width: 1.5;" x1="81" x2="217" y1="169" y2="169"/><ellipse cx="91" cy="180.9775" fill="#84BE84" rx="3" ry="3" style="stroke: #038048; stroke-width: 1.0;"/><text fill="#000000" font-family="sans-serif" font-size="11" lengthAdjust="spacingAndGlyphs" textLength="37" x="100" y="183.6348">clone()</text><!--class Client--><rect fill="#FEFECE" filter="url(#ftq6n5e)" height="48" style="stroke: #A80036; stroke-width: 1.5;" width="64" x="6" y="14.5"/><ellipse cx="21" cy="30.5" fill="#ADD1B2" rx="11" ry="11" style="stroke: #A80036; stroke-width: 1.0;"/><path d="M23.4731,36.6431 Q22.8921,36.9419 22.2529,37.0913 Q21.6138,37.2407 20.9082,37.2407 Q18.4014,37.2407 17.0815,35.5889 Q15.7617,33.937 15.7617,30.8159 Q15.7617,27.6865 17.0815,26.0347 Q18.4014,24.3828 20.9082,24.3828 Q21.6138,24.3828 22.2612,24.5322 Q22.9087,24.6816 23.4731,24.9805 L23.4731,27.7031 Q22.8423,27.1221 22.2488,26.8523 Q21.6553,26.5825 21.0244,26.5825 Q19.6797,26.5825 18.9949,27.6492 Q18.3101,28.7158 18.3101,30.8159 Q18.3101,32.9077 18.9949,33.9744 Q19.6797,35.041 21.0244,35.041 Q21.6553,35.041 22.2488,34.7712 Q22.8423,34.5015 23.4731,33.9204 Z "/><text fill="#000000" font-family="sans-serif" font-size="12" lengthAdjust="spacingAndGlyphs" textLength="32" x="35" y="35.0352">Client</text><line style="stroke: #A80036; stroke-width: 1.5;" x1="7" x2="69" y1="46.5" y2="46.5"/><line style="stroke: #A80036; stroke-width: 1.5;" x1="7" x2="69" y1="54.5" y2="54.5"/><path d="M149,89.2927 C149,102.7857 149,116.9401 149,128.9764 " fill="none" style="stroke: #A80036; stroke-width: 1.0; stroke-dasharray: 7.0,7.0;"/><polygon fill="none" points="142.0001,89.0334,149,69.0334,156.0001,89.0334,142.0001,89.0334" style="stroke: #A80036; stroke-width: 1.0;"/><path d="M70.0859,38.5 C77.4071,38.5 84.7282,38.5 92.0493,38.5 " fill="none" style="stroke: #A80036; stroke-width: 1.0; stroke-dasharray: 7.0,7.0;"/><polygon fill="#FFFFFF" points="105.2274,38.5,99.2274,34.5,93.2274,38.5,99.2274,42.5,105.2274,38.5" style="stroke: #A80036; stroke-width: 1.0;"/></g></svg>