<?xml version="1.0" encoding="UTF-8" standalone="no"?><svg xmlns="http://www.w3.org/2000/svg" xmlns:xlink="http://www.w3.org/1999/xlink" contentScriptType="application/ecmascript" contentStyleType="text/css" height="173px" preserveAspectRatio="none" style="width:343px;height:173px;" version="1.1" viewBox="0 0 343 173" width="343px" zoomAndPan="magnify"><defs><filter height="300%" id="fcx0zyc" width="300%" x="-1" y="-1"><feGaussianBlur result="blurOut" stdDeviation="2.0"/><feColorMatrix in="blurOut" result="blurOut2" type="matrix" values="0 0 0 0 0 0 0 0 0 0 0 0 0 0 0 0 0 0 .4 0"/><feOffset dx="4.0" dy="4.0" in="blurOut2" result="blurOut3"/><feBlend in="SourceGraphic" in2="blurOut3" mode="normal"/></filter></defs><g><!--class app--><rect fill="#FEFECE" filter="url(#fcx0zyc)" height="48" style="stroke: #A80036; stroke-width: 1.5;" width="55" x="143.5" y="8"/><ellipse cx="158.5" cy="24" fill="#ADD1B2" rx="11" ry="11" style="stroke: #A80036; stroke-width: 1.0;"/><path d="M160.9731,30.1431 Q160.3921,30.4419 159.7529,30.5913 Q159.1138,30.7407 158.4082,30.7407 Q155.9014,30.7407 154.5815,29.0889 Q153.2617,27.437 153.2617,24.3159 Q153.2617,21.1865 154.5815,19.5347 Q155.9014,17.8828 158.4082,17.8828 Q159.1138,17.8828 159.7612,18.0322 Q160.4087,18.1816 160.9731,18.4805 L160.9731,21.2031 Q160.3423,20.6221 159.7488,20.3523 Q159.1553,20.0825 158.5244,20.0825 Q157.1797,20.0825 156.4949,21.1492 Q155.8101,22.2158 155.8101,24.3159 Q155.8101,26.4077 156.4949,27.4744 Q157.1797,28.541 158.5244,28.541 Q159.1553,28.541 159.7488,28.2712 Q160.3423,28.0015 160.9731,27.4204 Z "/><text fill="#000000" font-family="sans-serif" font-size="12" lengthAdjust="spacingAndGlyphs" textLength="23" x="172.5" y="28.5352">app</text><line style="stroke: #A80036; stroke-width: 1.5;" x1="144.5" x2="197.5" y1="40" y2="40"/><line style="stroke: #A80036; stroke-width: 1.5;" x1="144.5" x2="197.5" y1="48" y2="48"/><!--class feature_a--><rect fill="#FEFECE" filter="url(#fcx0zyc)" height="48" style="stroke: #A80036; stroke-width: 1.5;" width="86" x="6" y="116"/><ellipse cx="21" cy="132" fill="#ADD1B2" rx="11" ry="11" style="stroke: #A80036; stroke-width: 1.0;"/><path d="M23.4731,138.1431 Q22.8921,138.4419 22.2529,138.5913 Q21.6138,138.7407 20.9082,138.7407 Q18.4014,138.7407 17.0815,137.0889 Q15.7617,135.437 15.7617,132.3159 Q15.7617,129.1865 17.0815,127.5347 Q18.4014,125.8828 20.9082,125.8828 Q21.6138,125.8828 22.2612,126.0322 Q22.9087,126.1816 23.4731,126.4805 L23.4731,129.2031 Q22.8423,128.6221 22.2488,128.3523 Q21.6553,128.0825 21.0244,128.0825 Q19.6797,128.0825 18.9949,129.1492 Q18.3101,130.2158 18.3101,132.3159 Q18.3101,134.4077 18.9949,135.4744 Q19.6797,136.541 21.0244,136.541 Q21.6553,136.541 22.2488,136.2712 Q22.8423,136.0015 23.4731,135.4204 Z "/><text fill="#000000" font-family="sans-serif" font-size="12" lengthAdjust="spacingAndGlyphs" textLength="54" x="35" y="136.5352">feature_a</text><line style="stroke: #A80036; stroke-width: 1.5;" x1="7" x2="91" y1="148" y2="148"/><line style="stroke: #A80036; stroke-width: 1.5;" x1="7" x2="91" y1="156" y2="156"/><!--class feature_b--><rect fill="#FEFECE" filter="url(#fcx0zyc)" height="48" style="stroke: #A80036; stroke-width: 1.5;" width="87" x="127.5" y="116"/><ellipse cx="142.5" cy="132" fill="#ADD1B2" rx="11" ry="11" style="stroke: #A80036; stroke-width: 1.0;"/><path d="M144.9731,138.1431 Q144.3921,138.4419 143.7529,138.5913 Q143.1138,138.7407 142.4082,138.7407 Q139.9014,138.7407 138.5815,137.0889 Q137.2617,135.437 137.2617,132.3159 Q137.2617,129.1865 138.5815,127.5347 Q139.9014,125.8828 142.4082,125.8828 Q143.1138,125.8828 143.7612,126.0322 Q144.4087,126.1816 144.9731,126.4805 L144.9731,129.2031 Q144.3423,128.6221 143.7488,128.3523 Q143.1553,128.0825 142.5244,128.0825 Q141.1797,128.0825 140.4949,129.1492 Q139.8101,130.2158 139.8101,132.3159 Q139.8101,134.4077 140.4949,135.4744 Q141.1797,136.541 142.5244,136.541 Q143.1553,136.541 143.7488,136.2712 Q144.3423,136.0015 144.9731,135.4204 Z "/><text fill="#000000" font-family="sans-serif" font-size="12" lengthAdjust="spacingAndGlyphs" textLength="55" x="156.5" y="136.5352">feature_b</text><line style="stroke: #A80036; stroke-width: 1.5;" x1="128.5" x2="213.5" y1="148" y2="148"/><line style="stroke: #A80036; stroke-width: 1.5;" x1="128.5" x2="213.5" y1="156" y2="156"/><!--class feature_c--><rect fill="#FEFECE" filter="url(#fcx0zyc)" height="48" style="stroke: #A80036; stroke-width: 1.5;" width="85" x="249.5" y="116"/><ellipse cx="264.5" cy="132" fill="#ADD1B2" rx="11" ry="11" style="stroke: #A80036; stroke-width: 1.0;"/><path d="M266.9731,138.1431 Q266.3921,138.4419 265.7529,138.5913 Q265.1138,138.7407 264.4082,138.7407 Q261.9014,138.7407 260.5815,137.0889 Q259.2617,135.437 259.2617,132.3159 Q259.2617,129.1865 260.5815,127.5347 Q261.9014,125.8828 264.4082,125.8828 Q265.1138,125.8828 265.7612,126.0322 Q266.4087,126.1816 266.9731,126.4805 L266.9731,129.2031 Q266.3423,128.6221 265.7488,128.3523 Q265.1553,128.0825 264.5244,128.0825 Q263.1797,128.0825 262.4949,129.1492 Q261.8101,130.2158 261.8101,132.3159 Q261.8101,134.4077 262.4949,135.4744 Q263.1797,136.541 264.5244,136.541 Q265.1553,136.541 265.7488,136.2712 Q266.3423,136.0015 266.9731,135.4204 Z "/><text fill="#000000" font-family="sans-serif" font-size="12" lengthAdjust="spacingAndGlyphs" textLength="53" x="278.5" y="136.5352">feature_c</text><line style="stroke: #A80036; stroke-width: 1.5;" x1="250.5" x2="333.5" y1="148" y2="148"/><line style="stroke: #A80036; stroke-width: 1.5;" x1="250.5" x2="333.5" y1="156" y2="156"/><path d="M133.7382,64.9858 C115.2112,81.3868 93.2226,100.8521 76.2878,115.8436 " fill="none" style="stroke: #A80036; stroke-width: 1.0;"/><polygon fill="#FFFFFF" points="143.6208,56.2373,136.4769,57.2193,134.6357,64.1914,141.7796,63.2094,143.6208,56.2373" style="stroke: #A80036; stroke-width: 1.0;"/><path d="M171,69.6145 C171,84.9531 171,102.2402 171,115.8436 " fill="none" style="stroke: #A80036; stroke-width: 1.0;"/><polygon fill="#FFFFFF" points="171,56.2373,167,62.2373,171,68.2373,175,62.2373,171,56.2373" style="stroke: #A80036; stroke-width: 1.0;"/><path d="M207.9564,64.9858 C226.3315,81.3868 248.1398,100.8521 264.9359,115.8436 " fill="none" style="stroke: #A80036; stroke-width: 1.0;"/><polygon fill="#FFFFFF" points="198.1548,56.2373,199.9676,63.2168,207.1074,64.228,205.2947,57.2484,198.1548,56.2373" style="stroke: #A80036; stroke-width: 1.0;"/></g></svg>