<?xml version="1.0" encoding="UTF-8" standalone="no"?><svg xmlns="http://www.w3.org/2000/svg" xmlns:xlink="http://www.w3.org/1999/xlink" contentScriptType="application/ecmascript" contentStyleType="text/css" height="264px" preserveAspectRatio="none" style="width:1222px;height:264px;" version="1.1" viewBox="0 0 1222 264" width="1222px" zoomAndPan="magnify"><defs><filter height="300%" id="fa8gyaa" width="300%" x="-1" y="-1"><feGaussianBlur result="blurOut" stdDeviation="2.0"/><feColorMatrix in="blurOut" result="blurOut2" type="matrix" values="0 0 0 0 0 0 0 0 0 0 0 0 0 0 0 0 0 0 .4 0"/><feOffset dx="4.0" dy="4.0" in="blurOut2" result="blurOut3"/><feBlend in="SourceGraphic" in2="blurOut3" mode="normal"/></filter></defs><g><rect fill="#FFFFFF" filter="url(#fa8gyaa)" height="154" style="stroke: #A80036; stroke-width: 1.0;" width="10" x="74" y="54.4883"/><rect fill="#FFFFFF" filter="url(#fa8gyaa)" height="154" style="stroke: #A80036; stroke-width: 1.0;" width="10" x="265.5" y="54.4883"/><rect fill="#FFFFFF" filter="url(#fa8gyaa)" height="126" style="stroke: #A80036; stroke-width: 1.0;" width="10" x="455" y="68.4883"/><rect fill="#FFFFFF" filter="url(#fa8gyaa)" height="98" style="stroke: #A80036; stroke-width: 1.0;" width="10" x="602" y="82.4883"/><rect fill="#FFFFFF" filter="url(#fa8gyaa)" height="70" style="stroke: #A80036; stroke-width: 1.0;" width="10" x="755.5" y="96.4883"/><rect fill="#FFFFFF" filter="url(#fa8gyaa)" height="42" style="stroke: #A80036; stroke-width: 1.0;" width="10" x="940" y="110.4883"/><rect fill="#FFFFFF" filter="url(#fa8gyaa)" height="14" style="stroke: #A80036; stroke-width: 1.0;" width="10" x="1130.5" y="124.4883"/><line style="stroke: #A80036; stroke-width: 1.0; stroke-dasharray: 5.0,5.0;" x1="79" x2="79" y1="38.4883" y2="226.4883"/><line style="stroke: #A80036; stroke-width: 1.0; stroke-dasharray: 5.0,5.0;" x1="270" x2="270" y1="38.4883" y2="226.4883"/><line style="stroke: #A80036; stroke-width: 1.0; stroke-dasharray: 5.0,5.0;" x1="460" x2="460" y1="38.4883" y2="226.4883"/><line style="stroke: #A80036; stroke-width: 1.0; stroke-dasharray: 5.0,5.0;" x1="607" x2="607" y1="38.4883" y2="226.4883"/><line style="stroke: #A80036; stroke-width: 1.0; stroke-dasharray: 5.0,5.0;" x1="760" x2="760" y1="38.4883" y2="226.4883"/><line style="stroke: #A80036; stroke-width: 1.0; stroke-dasharray: 5.0,5.0;" x1="945" x2="945" y1="38.4883" y2="226.4883"/><line style="stroke: #A80036; stroke-width: 1.0; stroke-dasharray: 5.0,5.0;" x1="1135" x2="1135" y1="38.4883" y2="226.4883"/><rect fill="#00FF7F" filter="url(#fa8gyaa)" height="30.4883" style="stroke: #A80036; stroke-width: 1.5;" width="138" x="8" y="3"/><text fill="#000000" font-family="sans-serif" font-size="14" lengthAdjust="spacingAndGlyphs" textLength="124" x="15" y="23.5352">client.interceptors</text><rect fill="#00FF7F" filter="url(#fa8gyaa)" height="30.4883" style="stroke: #A80036; stroke-width: 1.5;" width="138" x="8" y="225.4883"/><text fill="#000000" font-family="sans-serif" font-size="14" lengthAdjust="spacingAndGlyphs" textLength="124" x="15" y="246.0234">client.interceptors</text><rect fill="#FEFECE" filter="url(#fa8gyaa)" height="30.4883" style="stroke: #A80036; stroke-width: 1.5;" width="217" x="160" y="3"/><text fill="#000000" font-family="sans-serif" font-size="14" lengthAdjust="spacingAndGlyphs" textLength="203" x="167" y="23.5352">RetryAndFollowUpInterceptor</text><rect fill="#FEFECE" filter="url(#fa8gyaa)" height="30.4883" style="stroke: #A80036; stroke-width: 1.5;" width="217" x="160" y="225.4883"/><text fill="#000000" font-family="sans-serif" font-size="14" lengthAdjust="spacingAndGlyphs" textLength="203" x="167" y="246.0234">RetryAndFollowUpInterceptor</text><rect fill="#FEFECE" filter="url(#fa8gyaa)" height="30.4883" style="stroke: #A80036; stroke-width: 1.5;" width="134" x="391" y="3"/><text fill="#000000" font-family="sans-serif" font-size="14" lengthAdjust="spacingAndGlyphs" textLength="120" x="398" y="23.5352">BridgeInterceptor</text><rect fill="#FEFECE" filter="url(#fa8gyaa)" height="30.4883" style="stroke: #A80036; stroke-width: 1.5;" width="134" x="391" y="225.4883"/><text fill="#000000" font-family="sans-serif" font-size="14" lengthAdjust="spacingAndGlyphs" textLength="120" x="398" y="246.0234">BridgeInterceptor</text><rect fill="#FEFECE" filter="url(#fa8gyaa)" height="30.4883" style="stroke: #A80036; stroke-width: 1.5;" width="132" x="539" y="3"/><text fill="#000000" font-family="sans-serif" font-size="14" lengthAdjust="spacingAndGlyphs" textLength="118" x="546" y="23.5352">CacheInterceptor</text><rect fill="#FEFECE" filter="url(#fa8gyaa)" height="30.4883" style="stroke: #A80036; stroke-width: 1.5;" width="132" x="539" y="225.4883"/><text fill="#000000" font-family="sans-serif" font-size="14" lengthAdjust="spacingAndGlyphs" textLength="118" x="546" y="246.0234">CacheInterceptor</text><rect fill="#FEFECE" filter="url(#fa8gyaa)" height="30.4883" style="stroke: #A80036; stroke-width: 1.5;" width="147" x="685" y="3"/><text fill="#000000" font-family="sans-serif" font-size="14" lengthAdjust="spacingAndGlyphs" textLength="133" x="692" y="23.5352">ConnectInterceptor</text><rect fill="#FEFECE" filter="url(#fa8gyaa)" height="30.4883" style="stroke: #A80036; stroke-width: 1.5;" width="147" x="685" y="225.4883"/><text fill="#000000" font-family="sans-serif" font-size="14" lengthAdjust="spacingAndGlyphs" textLength="133" x="692" y="246.0234">ConnectInterceptor</text><rect fill="#00FF7F" filter="url(#fa8gyaa)" height="30.4883" style="stroke: #A80036; stroke-width: 1.5;" width="194" x="846" y="3"/><text fill="#000000" font-family="sans-serif" font-size="14" lengthAdjust="spacingAndGlyphs" textLength="180" x="853" y="23.5352">client.networkInterceptors</text><rect fill="#00FF7F" filter="url(#fa8gyaa)" height="30.4883" style="stroke: #A80036; stroke-width: 1.5;" width="194" x="846" y="225.4883"/><text fill="#000000" font-family="sans-serif" font-size="14" lengthAdjust="spacingAndGlyphs" textLength="180" x="853" y="246.0234">client.networkInterceptors</text><rect fill="#FEFECE" filter="url(#fa8gyaa)" height="30.4883" style="stroke: #A80036; stroke-width: 1.5;" width="159" x="1054" y="3"/><text fill="#000000" font-family="sans-serif" font-size="14" lengthAdjust="spacingAndGlyphs" textLength="145" x="1061" y="23.5352">CallServerInterceptor</text><rect fill="#FEFECE" filter="url(#fa8gyaa)" height="30.4883" style="stroke: #A80036; stroke-width: 1.5;" width="159" x="1054" y="225.4883"/><text fill="#000000" font-family="sans-serif" font-size="14" lengthAdjust="spacingAndGlyphs" textLength="145" x="1061" y="246.0234">CallServerInterceptor</text><rect fill="#FFFFFF" filter="url(#fa8gyaa)" height="154" style="stroke: #A80036; stroke-width: 1.0;" width="10" x="74" y="54.4883"/><rect fill="#FFFFFF" filter="url(#fa8gyaa)" height="154" style="stroke: #A80036; stroke-width: 1.0;" width="10" x="265.5" y="54.4883"/><rect fill="#FFFFFF" filter="url(#fa8gyaa)" height="126" style="stroke: #A80036; stroke-width: 1.0;" width="10" x="455" y="68.4883"/><rect fill="#FFFFFF" filter="url(#fa8gyaa)" height="98" style="stroke: #A80036; stroke-width: 1.0;" width="10" x="602" y="82.4883"/><rect fill="#FFFFFF" filter="url(#fa8gyaa)" height="70" style="stroke: #A80036; stroke-width: 1.0;" width="10" x="755.5" y="96.4883"/><rect fill="#FFFFFF" filter="url(#fa8gyaa)" height="42" style="stroke: #A80036; stroke-width: 1.0;" width="10" x="940" y="110.4883"/><rect fill="#FFFFFF" filter="url(#fa8gyaa)" height="14" style="stroke: #A80036; stroke-width: 1.0;" width="10" x="1130.5" y="124.4883"/><polygon fill="#A80036" points="253.5,50.4883,263.5,54.4883,253.5,58.4883,257.5,54.4883" style="stroke: #A80036; stroke-width: 1.0;"/><line style="stroke: #A80036; stroke-width: 1.0;" x1="84" x2="259.5" y1="54.4883" y2="54.4883"/><polygon fill="#A80036" points="443,64.4883,453,68.4883,443,72.4883,447,68.4883" style="stroke: #A80036; stroke-width: 1.0;"/><line style="stroke: #A80036; stroke-width: 1.0;" x1="275.5" x2="449" y1="68.4883" y2="68.4883"/><polygon fill="#A80036" points="590,78.4883,600,82.4883,590,86.4883,594,82.4883" style="stroke: #A80036; stroke-width: 1.0;"/><line style="stroke: #A80036; stroke-width: 1.0;" x1="465" x2="596" y1="82.4883" y2="82.4883"/><polygon fill="#A80036" points="743.5,92.4883,753.5,96.4883,743.5,100.4883,747.5,96.4883" style="stroke: #A80036; stroke-width: 1.0;"/><line style="stroke: #A80036; stroke-width: 1.0;" x1="612" x2="749.5" y1="96.4883" y2="96.4883"/><polygon fill="#A80036" points="928,106.4883,938,110.4883,928,114.4883,932,110.4883" style="stroke: #A80036; stroke-width: 1.0;"/><line style="stroke: #A80036; stroke-width: 1.0;" x1="765.5" x2="934" y1="110.4883" y2="110.4883"/><polygon fill="#A80036" points="1118.5,120.4883,1128.5,124.4883,1118.5,128.4883,1122.5,124.4883" style="stroke: #A80036; stroke-width: 1.0;"/><line style="stroke: #A80036; stroke-width: 1.0;" x1="950" x2="1124.5" y1="124.4883" y2="124.4883"/><polygon fill="#A80036" points="961,134.4883,951,138.4883,961,142.4883,957,138.4883" style="stroke: #A80036; stroke-width: 1.0;"/><line style="stroke: #A80036; stroke-width: 1.0; stroke-dasharray: 2.0,2.0;" x1="955" x2="1134.5" y1="138.4883" y2="138.4883"/><polygon fill="#A80036" points="776.5,148.4883,766.5,152.4883,776.5,156.4883,772.5,152.4883" style="stroke: #A80036; stroke-width: 1.0;"/><line style="stroke: #A80036; stroke-width: 1.0; stroke-dasharray: 2.0,2.0;" x1="770.5" x2="944" y1="152.4883" y2="152.4883"/><polygon fill="#A80036" points="623,162.4883,613,166.4883,623,170.4883,619,166.4883" style="stroke: #A80036; stroke-width: 1.0;"/><line style="stroke: #A80036; stroke-width: 1.0; stroke-dasharray: 2.0,2.0;" x1="617" x2="759.5" y1="166.4883" y2="166.4883"/><polygon fill="#A80036" points="476,176.4883,466,180.4883,476,184.4883,472,180.4883" style="stroke: #A80036; stroke-width: 1.0;"/><line style="stroke: #A80036; stroke-width: 1.0; stroke-dasharray: 2.0,2.0;" x1="470" x2="606" y1="180.4883" y2="180.4883"/><polygon fill="#A80036" points="286.5,190.4883,276.5,194.4883,286.5,198.4883,282.5,194.4883" style="stroke: #A80036; stroke-width: 1.0;"/><line style="stroke: #A80036; stroke-width: 1.0; stroke-dasharray: 2.0,2.0;" x1="280.5" x2="459" y1="194.4883" y2="194.4883"/><polygon fill="#A80036" points="90,204.4883,80,208.4883,90,212.4883,86,208.4883" style="stroke: #A80036; stroke-width: 1.0;"/><line style="stroke: #A80036; stroke-width: 1.0; stroke-dasharray: 2.0,2.0;" x1="84" x2="269.5" y1="208.4883" y2="208.4883"/></g></svg>