<?xml version="1.0" encoding="UTF-8" standalone="no"?><svg xmlns="http://www.w3.org/2000/svg" xmlns:xlink="http://www.w3.org/1999/xlink" contentScriptType="application/ecmascript" contentStyleType="text/css" height="526px" preserveAspectRatio="none" style="width:251px;height:526px;" version="1.1" viewBox="0 0 251 526" width="251px" zoomAndPan="magnify"><defs><filter height="300%" id="fx8fbvd" width="300%" x="-1" y="-1"><feGaussianBlur result="blurOut" stdDeviation="2.0"/><feColorMatrix in="blurOut" result="blurOut2" type="matrix" values="0 0 0 0 0 0 0 0 0 0 0 0 0 0 0 0 0 0 .4 0"/><feOffset dx="4.0" dy="4.0" in="blurOut2" result="blurOut3"/><feBlend in="SourceGraphic" in2="blurOut3" mode="normal"/></filter></defs><g><rect fill="#FEFECE" filter="url(#fx8fbvd)" height="34.1328" rx="12.5" ry="12.5" style="stroke: #A80036; stroke-width: 1.5;" width="182" x="36" y="10"/><text fill="#000000" font-family="sans-serif" font-size="12" lengthAdjust="spacingAndGlyphs" textLength="162" x="46" y="31.6016">WorkManagerImpl#enqueue</text><rect fill="#FEFECE" filter="url(#fx8fbvd)" height="34.1328" rx="12.5" ry="12.5" style="stroke: #A80036; stroke-width: 1.5;" width="151" x="51.5" y="64.1328"/><text fill="#000000" font-family="sans-serif" font-size="12" lengthAdjust="spacingAndGlyphs" textLength="131" x="61.5" y="85.7344">EnqueueRunnable#run</text><rect fill="#FFFFFF" filter="url(#fx8fbvd)" height="410.9961" style="stroke: #000000; stroke-width: 2.0;" width="234" x="10" y="108.7188"/><path d="M148,109.7188 L148,118.207 L138,128.207 L10,128.207 " fill="#FFFFFF" style="stroke: #000000; stroke-width: 2.0;"/><text fill="#000000" font-family="sans-serif" font-size="14" lengthAdjust="spacingAndGlyphs" textLength="128" x="13" y="123.2539">WorkTaskExecutor</text><rect fill="#FFFFFF" filter="url(#fx8fbvd)" height="228.8867" style="stroke: #000000; stroke-width: 2.0;" width="214" x="20" y="145.207"/><path d="M48,146.207 L48,154.6953 L38,164.6953 L20,164.6953 " fill="#FFFFFF" style="stroke: #000000; stroke-width: 2.0;"/><text fill="#000000" font-family="sans-serif" font-size="14" lengthAdjust="spacingAndGlyphs" textLength="18" x="23" y="159.7422">DB</text><rect fill="#FEFECE" filter="url(#fx8fbvd)" height="34.1328" rx="12.5" ry="12.5" style="stroke: #A80036; stroke-width: 1.5;" width="194" x="30" y="181.6953"/><text fill="#000000" font-family="sans-serif" font-size="12" lengthAdjust="spacingAndGlyphs" textLength="174" x="40" y="203.2969">workSpecDao#insertWorkSpec</text><rect fill="#FEFECE" filter="url(#fx8fbvd)" height="34.1328" rx="12.5" ry="12.5" style="stroke: #A80036; stroke-width: 1.5;" width="133" x="60.5" y="250.8281"/><text fill="#000000" font-family="sans-serif" font-size="12" lengthAdjust="spacingAndGlyphs" textLength="113" x="70.5" y="272.4297">workTagDao#insert</text><rect fill="#FEFECE" filter="url(#fx8fbvd)" height="34.1328" rx="12.5" ry="12.5" style="stroke: #A80036; stroke-width: 1.5;" width="145" x="54.5" y="319.9609"/><text fill="#000000" font-family="sans-serif" font-size="12" lengthAdjust="spacingAndGlyphs" textLength="125" x="64.5" y="341.5625">workNameDao#insert</text><rect fill="#FFFFFF" filter="url(#fx8fbvd)" height="90.6211" style="stroke: #000000; stroke-width: 2.0;" width="198" x="28" y="409.0938"/><path d="M106,410.0938 L106,418.582 L96,428.582 L28,428.582 " fill="#FFFFFF" style="stroke: #000000; stroke-width: 2.0;"/><text fill="#000000" font-family="sans-serif" font-size="14" lengthAdjust="spacingAndGlyphs" textLength="68" x="31" y="423.6289">Scheduler</text><rect fill="#FEFECE" filter="url(#fx8fbvd)" height="34.1328" rx="12.5" ry="12.5" style="stroke: #A80036; stroke-width: 1.5;" width="178" x="38" y="445.582"/><text fill="#000000" font-family="sans-serif" font-size="12" lengthAdjust="spacingAndGlyphs" textLength="158" x="48" y="467.1836">scheduleWorkInBackground</text><line style="stroke: #A80036; stroke-width: 1.5;" x1="127" x2="127" y1="44.1328" y2="64.1328"/><polygon fill="#A80036" points="123,54.1328,127,64.1328,131,54.1328,127,58.1328" style="stroke: #A80036; stroke-width: 1.0;"/><line style="stroke: #A80036; stroke-width: 1.5;" x1="127" x2="127" y1="215.8281" y2="250.8281"/><polygon fill="#A80036" points="123,240.8281,127,250.8281,131,240.8281,127,244.8281" style="stroke: #A80036; stroke-width: 1.0;"/><line style="stroke: #A80036; stroke-width: 1.5;" x1="127" x2="127" y1="284.9609" y2="319.9609"/><polygon fill="#A80036" points="123,309.9609,127,319.9609,131,309.9609,127,313.9609" style="stroke: #A80036; stroke-width: 1.0;"/><line style="stroke: #A80036; stroke-width: 1.5;" x1="127" x2="127" y1="354.0938" y2="445.582"/><polygon fill="#A80036" points="123,435.582,127,445.582,131,435.582,127,439.582" style="stroke: #A80036; stroke-width: 1.0;"/><line style="stroke: #A80036; stroke-width: 1.5;" x1="127" x2="127" y1="98.2656" y2="181.6953"/><polygon fill="#A80036" points="123,171.6953,127,181.6953,131,171.6953,127,175.6953" style="stroke: #A80036; stroke-width: 1.0;"/></g></svg>