<?xml version="1.0" encoding="UTF-8" standalone="no"?><svg xmlns="http://www.w3.org/2000/svg" xmlns:xlink="http://www.w3.org/1999/xlink" contentScriptType="application/ecmascript" contentStyleType="text/css" height="402px" preserveAspectRatio="none" style="width:419px;height:402px;" version="1.1" viewBox="0 0 419 402" width="419px" zoomAndPan="magnify"><defs><filter height="300%" id="fkfiq6s" width="300%" x="-1" y="-1"><feGaussianBlur result="blurOut" stdDeviation="2.0"/><feColorMatrix in="blurOut" result="blurOut2" type="matrix" values="0 0 0 0 0 0 0 0 0 0 0 0 0 0 0 0 0 0 .4 0"/><feOffset dx="4.0" dy="4.0" in="blurOut2" result="blurOut3"/><feBlend in="SourceGraphic" in2="blurOut3" mode="normal"/></filter></defs><g><!--class Context--><rect fill="#FEFECE" filter="url(#fkfiq6s)" height="48" style="stroke: #A80036; stroke-width: 1.5;" width="76" x="142" y="8"/><ellipse cx="157" cy="24" fill="#A9DCDF" rx="11" ry="11" style="stroke: #A80036; stroke-width: 1.0;"/><path d="M157.1133,19.5981 L155.9595,24.6699 L158.2754,24.6699 Z M155.6191,17.3569 L158.6157,17.3569 L161.9609,29.75 L159.5122,29.75 L158.7485,26.687 L155.4697,26.687 L154.7227,29.75 L152.2739,29.75 Z "/><text fill="#000000" font-family="sans-serif" font-size="12" font-style="italic" lengthAdjust="spacingAndGlyphs" textLength="44" x="171" y="28.5352">Context</text><line style="stroke: #A80036; stroke-width: 1.5;" x1="143" x2="217" y1="40" y2="40"/><line style="stroke: #A80036; stroke-width: 1.5;" x1="143" x2="217" y1="48" y2="48"/><!--class ContextImpl--><rect fill="#FEFECE" filter="url(#fkfiq6s)" height="48" style="stroke: #A80036; stroke-width: 1.5;" width="101" x="55.5" y="122.5"/><ellipse cx="70.5" cy="138.5" fill="#ADD1B2" rx="11" ry="11" style="stroke: #A80036; stroke-width: 1.0;"/><path d="M72.9731,144.6431 Q72.3921,144.9419 71.7529,145.0913 Q71.1138,145.2407 70.4082,145.2407 Q67.9014,145.2407 66.5815,143.5889 Q65.2617,141.937 65.2617,138.8159 Q65.2617,135.6865 66.5815,134.0347 Q67.9014,132.3828 70.4082,132.3828 Q71.1138,132.3828 71.7612,132.5322 Q72.4087,132.6816 72.9731,132.9805 L72.9731,135.7031 Q72.3423,135.1221 71.7488,134.8523 Q71.1553,134.5825 70.5244,134.5825 Q69.1797,134.5825 68.4949,135.6492 Q67.8101,136.7158 67.8101,138.8159 Q67.8101,140.9077 68.4949,141.9744 Q69.1797,143.041 70.5244,143.041 Q71.1553,143.041 71.7488,142.7712 Q72.3423,142.5015 72.9731,141.9204 Z "/><text fill="#000000" font-family="sans-serif" font-size="12" lengthAdjust="spacingAndGlyphs" textLength="69" x="84.5" y="143.0352">ContextImpl</text><line style="stroke: #A80036; stroke-width: 1.5;" x1="56.5" x2="155.5" y1="154.5" y2="154.5"/><line style="stroke: #A80036; stroke-width: 1.5;" x1="56.5" x2="155.5" y1="162.5" y2="162.5"/><!--class ContextWrapper--><rect fill="#FEFECE" filter="url(#fkfiq6s)" height="60.9551" style="stroke: #A80036; stroke-width: 1.5;" width="126" x="192" y="116"/><ellipse cx="207" cy="132" fill="#ADD1B2" rx="11" ry="11" style="stroke: #A80036; stroke-width: 1.0;"/><path d="M209.4731,138.1431 Q208.8921,138.4419 208.2529,138.5913 Q207.6138,138.7407 206.9082,138.7407 Q204.4014,138.7407 203.0815,137.0889 Q201.7617,135.437 201.7617,132.3159 Q201.7617,129.1865 203.0815,127.5347 Q204.4014,125.8828 206.9082,125.8828 Q207.6138,125.8828 208.2612,126.0322 Q208.9087,126.1816 209.4731,126.4805 L209.4731,129.2031 Q208.8423,128.6221 208.2488,128.3523 Q207.6553,128.0825 207.0244,128.0825 Q205.6797,128.0825 204.9949,129.1492 Q204.3101,130.2158 204.3101,132.3159 Q204.3101,134.4077 204.9949,135.4744 Q205.6797,136.541 207.0244,136.541 Q207.6553,136.541 208.2488,136.2712 Q208.8423,136.0015 209.4731,135.4204 Z "/><text fill="#000000" font-family="sans-serif" font-size="12" lengthAdjust="spacingAndGlyphs" textLength="94" x="221" y="136.5352">ContextWrapper</text><line style="stroke: #A80036; stroke-width: 1.5;" x1="193" x2="317" y1="148" y2="148"/><ellipse cx="203" cy="159.9775" fill="none" rx="3" ry="3" style="stroke: #038048; stroke-width: 1.0;"/><text fill="#000000" font-family="sans-serif" font-size="11" lengthAdjust="spacingAndGlyphs" textLength="83" x="212" y="162.6348">Context mBase;</text><line style="stroke: #A80036; stroke-width: 1.5;" x1="193" x2="317" y1="168.9551" y2="168.9551"/><!--class ContextThemeWrapper--><rect fill="#FEFECE" filter="url(#fkfiq6s)" height="48" style="stroke: #A80036; stroke-width: 1.5;" width="166" x="6" y="237"/><ellipse cx="21" cy="253" fill="#ADD1B2" rx="11" ry="11" style="stroke: #A80036; stroke-width: 1.0;"/><path d="M23.4731,259.1431 Q22.8921,259.4419 22.2529,259.5913 Q21.6138,259.7407 20.9082,259.7407 Q18.4014,259.7407 17.0815,258.0889 Q15.7617,256.437 15.7617,253.3159 Q15.7617,250.1865 17.0815,248.5347 Q18.4014,246.8828 20.9082,246.8828 Q21.6138,246.8828 22.2612,247.0322 Q22.9087,247.1816 23.4731,247.4805 L23.4731,250.2031 Q22.8423,249.6221 22.2488,249.3523 Q21.6553,249.0825 21.0244,249.0825 Q19.6797,249.0825 18.9949,250.1492 Q18.3101,251.2158 18.3101,253.3159 Q18.3101,255.4077 18.9949,256.4744 Q19.6797,257.541 21.0244,257.541 Q21.6553,257.541 22.2488,257.2712 Q22.8423,257.0015 23.4731,256.4204 Z "/><text fill="#000000" font-family="sans-serif" font-size="12" lengthAdjust="spacingAndGlyphs" textLength="134" x="35" y="257.5352">ContextThemeWrapper</text><line style="stroke: #A80036; stroke-width: 1.5;" x1="7" x2="171" y1="269" y2="269"/><line style="stroke: #A80036; stroke-width: 1.5;" x1="7" x2="171" y1="277" y2="277"/><!--class Application--><rect fill="#FEFECE" filter="url(#fkfiq6s)" height="48" style="stroke: #A80036; stroke-width: 1.5;" width="96" x="207" y="237"/><ellipse cx="222" cy="253" fill="#ADD1B2" rx="11" ry="11" style="stroke: #A80036; stroke-width: 1.0;"/><path d="M224.4731,259.1431 Q223.8921,259.4419 223.2529,259.5913 Q222.6138,259.7407 221.9082,259.7407 Q219.4014,259.7407 218.0815,258.0889 Q216.7617,256.437 216.7617,253.3159 Q216.7617,250.1865 218.0815,248.5347 Q219.4014,246.8828 221.9082,246.8828 Q222.6138,246.8828 223.2612,247.0322 Q223.9087,247.1816 224.4731,247.4805 L224.4731,250.2031 Q223.8423,249.6221 223.2488,249.3523 Q222.6553,249.0825 222.0244,249.0825 Q220.6797,249.0825 219.9949,250.1492 Q219.3101,251.2158 219.3101,253.3159 Q219.3101,255.4077 219.9949,256.4744 Q220.6797,257.541 222.0244,257.541 Q222.6553,257.541 223.2488,257.2712 Q223.8423,257.0015 224.4731,256.4204 Z "/><text fill="#000000" font-family="sans-serif" font-size="12" lengthAdjust="spacingAndGlyphs" textLength="64" x="236" y="257.5352">Application</text><line style="stroke: #A80036; stroke-width: 1.5;" x1="208" x2="302" y1="269" y2="269"/><line style="stroke: #A80036; stroke-width: 1.5;" x1="208" x2="302" y1="277" y2="277"/><!--class Service--><rect fill="#FEFECE" filter="url(#fkfiq6s)" height="48" style="stroke: #A80036; stroke-width: 1.5;" width="72" x="338" y="237"/><ellipse cx="353" cy="253" fill="#ADD1B2" rx="11" ry="11" style="stroke: #A80036; stroke-width: 1.0;"/><path d="M355.4731,259.1431 Q354.8921,259.4419 354.2529,259.5913 Q353.6138,259.7407 352.9082,259.7407 Q350.4014,259.7407 349.0815,258.0889 Q347.7617,256.437 347.7617,253.3159 Q347.7617,250.1865 349.0815,248.5347 Q350.4014,246.8828 352.9082,246.8828 Q353.6138,246.8828 354.2612,247.0322 Q354.9087,247.1816 355.4731,247.4805 L355.4731,250.2031 Q354.8423,249.6221 354.2488,249.3523 Q353.6553,249.0825 353.0244,249.0825 Q351.6797,249.0825 350.9949,250.1492 Q350.3101,251.2158 350.3101,253.3159 Q350.3101,255.4077 350.9949,256.4744 Q351.6797,257.541 353.0244,257.541 Q353.6553,257.541 354.2488,257.2712 Q354.8423,257.0015 355.4731,256.4204 Z "/><text fill="#000000" font-family="sans-serif" font-size="12" lengthAdjust="spacingAndGlyphs" textLength="40" x="367" y="257.5352">Service</text><line style="stroke: #A80036; stroke-width: 1.5;" x1="339" x2="409" y1="269" y2="269"/><line style="stroke: #A80036; stroke-width: 1.5;" x1="339" x2="409" y1="277" y2="277"/><!--class Activity--><rect fill="#FEFECE" filter="url(#fkfiq6s)" height="48" style="stroke: #A80036; stroke-width: 1.5;" width="72" x="53" y="345"/><ellipse cx="68" cy="361" fill="#ADD1B2" rx="11" ry="11" style="stroke: #A80036; stroke-width: 1.0;"/><path d="M70.4731,367.1431 Q69.8921,367.4419 69.2529,367.5913 Q68.6138,367.7407 67.9082,367.7407 Q65.4014,367.7407 64.0815,366.0889 Q62.7617,364.437 62.7617,361.3159 Q62.7617,358.1865 64.0815,356.5347 Q65.4014,354.8828 67.9082,354.8828 Q68.6138,354.8828 69.2612,355.0322 Q69.9087,355.1816 70.4731,355.4805 L70.4731,358.2031 Q69.8423,357.6221 69.2488,357.3523 Q68.6553,357.0825 68.0244,357.0825 Q66.6797,357.0825 65.9949,358.1492 Q65.3101,359.2158 65.3101,361.3159 Q65.3101,363.4077 65.9949,364.4744 Q66.6797,365.541 68.0244,365.541 Q68.6553,365.541 69.2488,365.2712 Q69.8423,365.0015 70.4731,364.4204 Z "/><text fill="#000000" font-family="sans-serif" font-size="12" lengthAdjust="spacingAndGlyphs" textLength="40" x="82" y="365.5352">Activity</text><line style="stroke: #A80036; stroke-width: 1.5;" x1="54" x2="124" y1="377" y2="377"/><line style="stroke: #A80036; stroke-width: 1.5;" x1="54" x2="124" y1="385" y2="385"/><path d="M153.6109,72.8318 C142.9502,89.3271 131.0056,107.8089 121.7473,122.1343 " fill="none" style="stroke: #A80036; stroke-width: 1.0;"/><polygon fill="none" points="147.7522,69.0007,164.4872,56.003,159.5103,76.5999,147.7522,69.0007" style="stroke: #A80036; stroke-width: 1.0;"/><path d="M206.797,72.9101 C216.097,87.1082 226.3557,102.7696 235.0099,115.9818 " fill="none" style="stroke: #A80036; stroke-width: 1.0;"/><polygon fill="none" points="200.8256,76.5689,195.7225,56.003,212.5369,68.8978,200.8256,76.5689" style="stroke: #A80036; stroke-width: 1.0;"/><path d="M193.9001,188.6442 C170.2996,204.9229 144.1548,222.9565 123.8702,236.948 " fill="none" style="stroke: #A80036; stroke-width: 1.0;"/><polygon fill="none" points="190.077,182.7775,210.515,177.1839,198.0261,194.302,190.077,182.7775" style="stroke: #A80036; stroke-width: 1.0;"/><path d="M156.6367,146.5 C164.0012,146.5 171.3656,146.5 178.73,146.5 " fill="none" style="stroke: #A80036; stroke-width: 1.0;"/><polygon fill="#FFFFFF" points="191.986,146.5,185.986,142.5,179.986,146.5,185.986,150.5,191.986,146.5" style="stroke: #A80036; stroke-width: 1.0;"/><path d="M255,197.2346 C255,210.9779 255,225.2288 255,236.7634 " fill="none" style="stroke: #A80036; stroke-width: 1.0;"/><polygon fill="none" points="248.0001,197.1839,255,177.1839,262.0001,197.1839,248.0001,197.1839" style="stroke: #A80036; stroke-width: 1.0;"/><path d="M301.72,191.4532 C317.7738,206.9 335.1305,223.6003 348.8109,236.7634 " fill="none" style="stroke: #A80036; stroke-width: 1.0;"/><polygon fill="none" points="296.4484,196.0952,286.8898,177.1839,306.1553,186.0067,296.4484,196.0952" style="stroke: #A80036; stroke-width: 1.0;"/><path d="M89,305.2911 C89,318.8171 89,333.1835 89,344.8436 " fill="none" style="stroke: #A80036; stroke-width: 1.0;"/><polygon fill="none" points="82.0001,305.2373,89,285.2373,96.0001,305.2373,82.0001,305.2373" style="stroke: #A80036; stroke-width: 1.0;"/></g></svg>