<?xml version="1.0" encoding="UTF-8" standalone="no"?><svg xmlns="http://www.w3.org/2000/svg" xmlns:xlink="http://www.w3.org/1999/xlink" contentScriptType="application/ecmascript" contentStyleType="text/css" height="449px" preserveAspectRatio="none" style="width:462px;height:449px;" version="1.1" viewBox="0 0 462 449" width="462px" zoomAndPan="magnify"><defs><filter height="300%" id="ffv4s7u" width="300%" x="-1" y="-1"><feGaussianBlur result="blurOut" stdDeviation="2.0"/><feColorMatrix in="blurOut" result="blurOut2" type="matrix" values="0 0 0 0 0 0 0 0 0 0 0 0 0 0 0 0 0 0 .4 0"/><feOffset dx="4.0" dy="4.0" in="blurOut2" result="blurOut3"/><feBlend in="SourceGraphic" in2="blurOut3" mode="normal"/></filter></defs><g><rect fill="#FEFECE" filter="url(#ffv4s7u)" height="34.1328" rx="12.5" ry="12.5" style="stroke: #A80036; stroke-width: 1.5;" width="148" x="125" y="10"/><text fill="#000000" font-family="sans-serif" font-size="12" lengthAdjust="spacingAndGlyphs" textLength="128" x="135" y="31.6016">WorkDatabase#create</text><rect fill="#FEFECE" filter="url(#ffv4s7u)" height="34.1328" rx="12.5" ry="12.5" style="stroke: #A80036; stroke-width: 1.5;" width="118" x="140" y="64.1328"/><text fill="#000000" font-family="sans-serif" font-size="12" lengthAdjust="spacingAndGlyphs" textLength="98" x="150" y="85.7344">createSchedulers</text><polygon fill="#FEFECE" filter="url(#ffv4s7u)" points="153.5,118.2656,244.5,118.2656,256.5,130.2656,244.5,142.2656,153.5,142.2656,141.5,130.2656,153.5,118.2656" style="stroke: #A80036; stroke-width: 1.5;"/><text fill="#000000" font-family="sans-serif" font-size="11" lengthAdjust="spacingAndGlyphs" textLength="91" x="153.5" y="134.4229">Api Level &gt;= 23?</text><text fill="#000000" font-family="sans-serif" font-size="11" lengthAdjust="spacingAndGlyphs" textLength="18" x="123.5" y="127.9453">yes</text><text fill="#000000" font-family="sans-serif" font-size="11" lengthAdjust="spacingAndGlyphs" textLength="14" x="256.5" y="127.9453">no</text><rect fill="#FEFECE" filter="url(#ffv4s7u)" height="34.1328" rx="12.5" ry="12.5" style="stroke: #A80036; stroke-width: 1.5;" width="135" x="10" y="152.2656"/><text fill="#000000" font-family="sans-serif" font-size="12" lengthAdjust="spacingAndGlyphs" textLength="115" x="20" y="173.8672">SystemJobScheduler</text><rect fill="#FEFECE" filter="url(#ffv4s7u)" height="34.1328" rx="12.5" ry="12.5" style="stroke: #A80036; stroke-width: 1.5;" width="270" x="185.5" y="152.2656"/><text fill="#000000" font-family="sans-serif" font-size="12" lengthAdjust="spacingAndGlyphs" textLength="250" x="195.5" y="173.8672">schedulers = tryCreateGcmBasedScheduler</text><polygon fill="#FEFECE" filter="url(#ffv4s7u)" points="272,206.3984,369,206.3984,381,218.3984,369,230.3984,272,230.3984,260,218.3984,272,206.3984" style="stroke: #A80036; stroke-width: 1.5;"/><text fill="#000000" font-family="sans-serif" font-size="11" lengthAdjust="spacingAndGlyphs" textLength="97" x="272" y="222.5557">schedulers==null</text><text fill="#000000" font-family="sans-serif" font-size="11" lengthAdjust="spacingAndGlyphs" textLength="18" x="242" y="216.0781">yes</text><text fill="#000000" font-family="sans-serif" font-size="11" lengthAdjust="spacingAndGlyphs" textLength="14" x="381" y="216.0781">no</text><rect fill="#FEFECE" filter="url(#ffv4s7u)" height="34.1328" rx="12.5" ry="12.5" style="stroke: #A80036; stroke-width: 1.5;" width="150" x="175" y="240.3984"/><text fill="#000000" font-family="sans-serif" font-size="12" lengthAdjust="spacingAndGlyphs" textLength="130" x="185" y="262">SystemAlarmScheduler</text><polygon fill="#FEFECE" filter="url(#ffv4s7u)" points="320.5,280.5313,332.5,292.5313,320.5,304.5313,308.5,292.5313,320.5,280.5313" style="stroke: #A80036; stroke-width: 1.5;"/><polygon fill="#FEFECE" filter="url(#ffv4s7u)" points="199,310.5313,211,322.5313,199,334.5313,187,322.5313,199,310.5313" style="stroke: #A80036; stroke-width: 1.5;"/><rect fill="#FEFECE" filter="url(#ffv4s7u)" height="34.1328" rx="12.5" ry="12.5" style="stroke: #A80036; stroke-width: 1.5;" width="103" x="147.5" y="354.5313"/><text fill="#000000" font-family="sans-serif" font-size="12" lengthAdjust="spacingAndGlyphs" textLength="83" x="157.5" y="376.1328">new Processor</text><rect fill="#FEFECE" filter="url(#ffv4s7u)" height="34.1328" rx="12.5" ry="12.5" style="stroke: #A80036; stroke-width: 1.5;" width="80" x="159" y="408.6641"/><text fill="#000000" font-family="sans-serif" font-size="12" lengthAdjust="spacingAndGlyphs" textLength="60" x="169" y="430.2656">internalInit</text><line style="stroke: #A80036; stroke-width: 1.5;" x1="199" x2="199" y1="44.1328" y2="64.1328"/><polygon fill="#A80036" points="195,54.1328,199,64.1328,203,54.1328,199,58.1328" style="stroke: #A80036; stroke-width: 1.0;"/><line style="stroke: #A80036; stroke-width: 1.5;" x1="260" x2="250" y1="218.3984" y2="218.3984"/><line style="stroke: #A80036; stroke-width: 1.5;" x1="250" x2="250" y1="218.3984" y2="240.3984"/><polygon fill="#A80036" points="246,230.3984,250,240.3984,254,230.3984,250,234.3984" style="stroke: #A80036; stroke-width: 1.0;"/><line style="stroke: #A80036; stroke-width: 1.5;" x1="381" x2="391" y1="218.3984" y2="218.3984"/><polygon fill="#A80036" points="387,245.4648,391,255.4648,395,245.4648,391,249.4648" style="stroke: #A80036; stroke-width: 1.5;"/><line style="stroke: #A80036; stroke-width: 1.5;" x1="391" x2="391" y1="218.3984" y2="292.5313"/><line style="stroke: #A80036; stroke-width: 1.5;" x1="391" x2="332.5" y1="292.5313" y2="292.5313"/><polygon fill="#A80036" points="342.5,288.5313,332.5,292.5313,342.5,296.5313,338.5,292.5313" style="stroke: #A80036; stroke-width: 1.0;"/><line style="stroke: #A80036; stroke-width: 1.5;" x1="250" x2="250" y1="274.5313" y2="292.5313"/><line style="stroke: #A80036; stroke-width: 1.5;" x1="250" x2="308.5" y1="292.5313" y2="292.5313"/><polygon fill="#A80036" points="298.5,288.5313,308.5,292.5313,298.5,296.5313,302.5,292.5313" style="stroke: #A80036; stroke-width: 1.0;"/><line style="stroke: #A80036; stroke-width: 1.5;" x1="320.5" x2="320.5" y1="186.3984" y2="206.3984"/><polygon fill="#A80036" points="316.5,196.3984,320.5,206.3984,324.5,196.3984,320.5,200.3984" style="stroke: #A80036; stroke-width: 1.0;"/><line style="stroke: #A80036; stroke-width: 1.5;" x1="141.5" x2="77.5" y1="130.2656" y2="130.2656"/><line style="stroke: #A80036; stroke-width: 1.5;" x1="77.5" x2="77.5" y1="130.2656" y2="152.2656"/><polygon fill="#A80036" points="73.5,142.2656,77.5,152.2656,81.5,142.2656,77.5,146.2656" style="stroke: #A80036; stroke-width: 1.0;"/><line style="stroke: #A80036; stroke-width: 1.5;" x1="256.5" x2="320.5" y1="130.2656" y2="130.2656"/><line style="stroke: #A80036; stroke-width: 1.5;" x1="320.5" x2="320.5" y1="130.2656" y2="152.2656"/><polygon fill="#A80036" points="316.5,142.2656,320.5,152.2656,324.5,142.2656,320.5,146.2656" style="stroke: #A80036; stroke-width: 1.0;"/><line style="stroke: #A80036; stroke-width: 1.5;" x1="77.5" x2="77.5" y1="186.3984" y2="322.5313"/><line style="stroke: #A80036; stroke-width: 1.5;" x1="77.5" x2="187" y1="322.5313" y2="322.5313"/><polygon fill="#A80036" points="177,318.5313,187,322.5313,177,326.5313,181,322.5313" style="stroke: #A80036; stroke-width: 1.0;"/><line style="stroke: #A80036; stroke-width: 1.5;" x1="320.5" x2="320.5" y1="304.5313" y2="322.5313"/><line style="stroke: #A80036; stroke-width: 1.5;" x1="320.5" x2="211" y1="322.5313" y2="322.5313"/><polygon fill="#A80036" points="221,318.5313,211,322.5313,221,326.5313,217,322.5313" style="stroke: #A80036; stroke-width: 1.0;"/><line style="stroke: #A80036; stroke-width: 1.5;" x1="199" x2="199" y1="98.2656" y2="118.2656"/><polygon fill="#A80036" points="195,108.2656,199,118.2656,203,108.2656,199,112.2656" style="stroke: #A80036; stroke-width: 1.0;"/><line style="stroke: #A80036; stroke-width: 1.5;" x1="199" x2="199" y1="334.5313" y2="354.5313"/><polygon fill="#A80036" points="195,344.5313,199,354.5313,203,344.5313,199,348.5313" style="stroke: #A80036; stroke-width: 1.0;"/><line style="stroke: #A80036; stroke-width: 1.5;" x1="199" x2="199" y1="388.6641" y2="408.6641"/><polygon fill="#A80036" points="195,398.6641,199,408.6641,203,398.6641,199,402.6641" style="stroke: #A80036; stroke-width: 1.0;"/></g></svg>