<?xml version="1.0" encoding="UTF-8" standalone="no"?><svg xmlns="http://www.w3.org/2000/svg" xmlns:xlink="http://www.w3.org/1999/xlink" contentScriptType="application/ecmascript" contentStyleType="text/css" height="665px" preserveAspectRatio="none" style="width:848px;height:665px;background:#EEEBDC;" version="1.1" viewBox="0 0 848 665" width="848px" zoomAndPan="magnify"><defs><filter height="300%" id="fldm5kh" width="300%" x="-1" y="-1"><feGaussianBlur result="blurOut" stdDeviation="2.0"/><feColorMatrix in="blurOut" result="blurOut2" type="matrix" values="0 0 0 0 0 0 0 0 0 0 0 0 0 0 0 0 0 0 .4 0"/><feOffset dx="4.0" dy="4.0" in="blurOut2" result="blurOut3"/><feBlend in="SourceGraphic" in2="blurOut3" mode="normal"/></filter></defs><g><!--class LifecycleOwner--><rect fill="#FEFECE" filter="url(#fldm5kh)" height="60.9551" rx="10" ry="10" style="stroke: #A80036; stroke-width: 1.5;" width="149" x="381.5" y="8"/><ellipse cx="410.9" cy="24" fill="#B4A7E5" rx="11" ry="11" style="stroke: #A80036; stroke-width: 1.0;"/><path d="M407.3277,20.2651 L407.3277,18.1069 L414.7071,18.1069 L414.7071,20.2651 L412.2418,20.2651 L412.2418,28.3418 L414.7071,28.3418 L414.7071,30.5 L407.3277,30.5 L407.3277,28.3418 L409.7931,28.3418 L409.7931,20.2651 Z "/><text fill="#000000" font-family="sans-serif" font-size="12" font-style="italic" lengthAdjust="spacingAndGlyphs" textLength="85" x="428.1" y="28.5352">LifecycleOwner</text><line style="stroke: #A80036; stroke-width: 1.5;" x1="382.5" x2="529.5" y1="40" y2="40"/><line style="stroke: #A80036; stroke-width: 1.5;" x1="382.5" x2="529.5" y1="48" y2="48"/><ellipse cx="392.5" cy="59.9775" fill="#84BE84" rx="3" ry="3" style="stroke: #038048; stroke-width: 1.0;"/><text fill="#000000" font-family="sans-serif" font-size="11" lengthAdjust="spacingAndGlyphs" textLength="123" x="401.5" y="62.6348">Lifecycle getLifecycle();</text><!--class Lifecycle--><rect fill="#FEFECE" filter="url(#fldm5kh)" height="86.8652" rx="10" ry="10" style="stroke: #A80036; stroke-width: 1.5;" width="297" x="161.5" y="129"/><ellipse cx="281.75" cy="145" fill="#A9DCDF" rx="11" ry="11" style="stroke: #A80036; stroke-width: 1.0;"/><path d="M281.8633,140.5981 L280.7095,145.6699 L283.0254,145.6699 Z M280.3691,138.3569 L283.3657,138.3569 L286.7109,150.75 L284.2622,150.75 L283.4985,147.687 L280.2197,147.687 L279.4727,150.75 L277.0239,150.75 Z "/><text fill="#000000" font-family="sans-serif" font-size="12" font-style="italic" lengthAdjust="spacingAndGlyphs" textLength="48" x="302.25" y="149.5352">Lifecycle</text><line style="stroke: #A80036; stroke-width: 1.5;" x1="162.5" x2="457.5" y1="161" y2="161"/><line style="stroke: #A80036; stroke-width: 1.5;" x1="162.5" x2="457.5" y1="169" y2="169"/><ellipse cx="172.5" cy="180.9775" fill="#84BE84" rx="3" ry="3" style="stroke: #038048; stroke-width: 1.0;"/><text fill="#000000" font-family="sans-serif" font-size="11" font-style="italic" lengthAdjust="spacingAndGlyphs" textLength="251" x="181.5" y="183.6348">void addObserver(LifecycleObserver observer)</text><ellipse cx="172.5" cy="193.9326" fill="#84BE84" rx="3" ry="3" style="stroke: #038048; stroke-width: 1.0;"/><text fill="#000000" font-family="sans-serif" font-size="11" font-style="italic" lengthAdjust="spacingAndGlyphs" textLength="271" x="181.5" y="196.5898">void removeObserver(LifecycleObserver observer)</text><ellipse cx="172.5" cy="206.8877" fill="#84BE84" rx="3" ry="3" style="stroke: #038048; stroke-width: 1.0;"/><text fill="#000000" font-family="sans-serif" font-size="11" font-style="italic" lengthAdjust="spacingAndGlyphs" textLength="122" x="181.5" y="209.5449">State getCurrentState()</text><!--class LifecycleRegistry--><rect fill="#FEFECE" filter="url(#fldm5kh)" height="60.9551" rx="10" ry="10" style="stroke: #A80036; stroke-width: 1.5;" width="281" x="429.5" y="397"/><ellipse cx="518.75" cy="413" fill="#ADD1B2" rx="11" ry="11" style="stroke: #A80036; stroke-width: 1.0;"/><path d="M521.2231,419.1431 Q520.6421,419.4419 520.0029,419.5913 Q519.3638,419.7407 518.6582,419.7407 Q516.1514,419.7407 514.8315,418.0889 Q513.5117,416.437 513.5117,413.3159 Q513.5117,410.1865 514.8315,408.5347 Q516.1514,406.8828 518.6582,406.8828 Q519.3638,406.8828 520.0112,407.0322 Q520.6587,407.1816 521.2231,407.4805 L521.2231,410.2031 Q520.5923,409.6221 519.9988,409.3523 Q519.4053,409.0825 518.7744,409.0825 Q517.4297,409.0825 516.7449,410.1492 Q516.0601,411.2158 516.0601,413.3159 Q516.0601,415.4077 516.7449,416.4744 Q517.4297,417.541 518.7744,417.541 Q519.4053,417.541 519.9988,417.2712 Q520.5923,417.0015 521.2231,416.4204 Z "/><text fill="#000000" font-family="sans-serif" font-size="12" lengthAdjust="spacingAndGlyphs" textLength="94" x="539.25" y="417.5352">LifecycleRegistry</text><line style="stroke: #A80036; stroke-width: 1.5;" x1="430.5" x2="709.5" y1="429" y2="429"/><line style="stroke: #A80036; stroke-width: 1.5;" x1="430.5" x2="709.5" y1="437" y2="437"/><ellipse cx="440.5" cy="448.9775" fill="#84BE84" rx="3" ry="3" style="stroke: #038048; stroke-width: 1.0;"/><text fill="#000000" font-family="sans-serif" font-size="11" lengthAdjust="spacingAndGlyphs" textLength="255" x="449.5" y="451.6348">void handleLifecycleEvent(Lifecycle.Event event)</text><!--class Event--><rect fill="#FEFECE" filter="url(#fldm5kh)" height="138.6855" rx="10" ry="10" style="stroke: #A80036; stroke-width: 1.5;" width="88" x="682" y="518"/><ellipse cx="708.25" cy="534" fill="#EB937F" rx="11" ry="11" style="stroke: #A80036; stroke-width: 1.0;"/><path d="M711.8643,540.5 L704.1445,540.5 L704.1445,528.1069 L711.8643,528.1069 L711.8643,530.2651 L706.5933,530.2651 L706.5933,532.938 L711.3662,532.938 L711.3662,535.0962 L706.5933,535.0962 L706.5933,538.3418 L711.8643,538.3418 Z "/><text fill="#000000" font-family="sans-serif" font-size="12" lengthAdjust="spacingAndGlyphs" textLength="31" x="724.75" y="538.5352">Event</text><line style="stroke: #A80036; stroke-width: 1.5;" x1="683" x2="769" y1="550" y2="550"/><text fill="#000000" font-family="sans-serif" font-size="11" lengthAdjust="spacingAndGlyphs" textLength="68" x="688" y="564.6348">ON_CREATE,</text><text fill="#000000" font-family="sans-serif" font-size="11" lengthAdjust="spacingAndGlyphs" textLength="61" x="688" y="577.5898">ON_START,</text><text fill="#000000" font-family="sans-serif" font-size="11" lengthAdjust="spacingAndGlyphs" textLength="68" x="688" y="590.5449">ON_RESUME,</text><text fill="#000000" font-family="sans-serif" font-size="11" lengthAdjust="spacingAndGlyphs" textLength="60" x="688" y="603.5">ON_PAUSE,</text><text fill="#000000" font-family="sans-serif" font-size="11" lengthAdjust="spacingAndGlyphs" textLength="54" x="688" y="616.4551">ON_STOP,</text><text fill="#000000" font-family="sans-serif" font-size="11" lengthAdjust="spacingAndGlyphs" textLength="76" x="688" y="629.4102">ON_DESTROY,</text><text fill="#000000" font-family="sans-serif" font-size="11" lengthAdjust="spacingAndGlyphs" textLength="46" x="688" y="642.3652">ON_ANY</text><line style="stroke: #A80036; stroke-width: 1.5;" x1="683" x2="769" y1="648.6855" y2="648.6855"/><!--class State--><rect fill="#FEFECE" filter="url(#fldm5kh)" height="112.7754" rx="10" ry="10" style="stroke: #A80036; stroke-width: 1.5;" width="79" x="530.5" y="531"/><ellipse cx="554.05" cy="547" fill="#EB937F" rx="11" ry="11" style="stroke: #A80036; stroke-width: 1.0;"/><path d="M557.6643,553.5 L549.9445,553.5 L549.9445,541.1069 L557.6643,541.1069 L557.6643,543.2651 L552.3933,543.2651 L552.3933,545.938 L557.1662,545.938 L557.1662,548.0962 L552.3933,548.0962 L552.3933,551.3418 L557.6643,551.3418 Z "/><text fill="#000000" font-family="sans-serif" font-size="12" lengthAdjust="spacingAndGlyphs" textLength="28" x="569.95" y="551.5352">State</text><line style="stroke: #A80036; stroke-width: 1.5;" x1="531.5" x2="608.5" y1="563" y2="563"/><text fill="#000000" font-family="sans-serif" font-size="11" lengthAdjust="spacingAndGlyphs" textLength="67" x="536.5" y="577.6348">DESTROYED,</text><text fill="#000000" font-family="sans-serif" font-size="11" lengthAdjust="spacingAndGlyphs" textLength="65" x="536.5" y="590.5898">INITIALIZED,</text><text fill="#000000" font-family="sans-serif" font-size="11" lengthAdjust="spacingAndGlyphs" textLength="53" x="536.5" y="603.5449">CREATED,</text><text fill="#000000" font-family="sans-serif" font-size="11" lengthAdjust="spacingAndGlyphs" textLength="52" x="536.5" y="616.5">STARTED,</text><text fill="#000000" font-family="sans-serif" font-size="11" lengthAdjust="spacingAndGlyphs" textLength="53" x="536.5" y="629.4551">RESUMED;</text><line style="stroke: #A80036; stroke-width: 1.5;" x1="531.5" x2="608.5" y1="635.7754" y2="635.7754"/><!--class LifecycleObserver--><rect fill="#FEFECE" filter="url(#fldm5kh)" height="48" rx="10" ry="10" style="stroke: #A80036; stroke-width: 1.5;" width="133" x="214.5" y="282.5"/><ellipse cx="229.5" cy="298.5" fill="#B4A7E5" rx="11" ry="11" style="stroke: #A80036; stroke-width: 1.0;"/><path d="M225.9277,294.7651 L225.9277,292.6069 L233.3071,292.6069 L233.3071,294.7651 L230.8418,294.7651 L230.8418,302.8418 L233.3071,302.8418 L233.3071,305 L225.9277,305 L225.9277,302.8418 L228.3931,302.8418 L228.3931,294.7651 Z "/><text fill="#000000" font-family="sans-serif" font-size="12" font-style="italic" lengthAdjust="spacingAndGlyphs" textLength="101" x="243.5" y="303.0352">LifecycleObserver</text><line style="stroke: #A80036; stroke-width: 1.5;" x1="215.5" x2="346.5" y1="314.5" y2="314.5"/><line style="stroke: #A80036; stroke-width: 1.5;" x1="215.5" x2="346.5" y1="322.5" y2="322.5"/><!--class GenericLifecycleObserver--><rect fill="#FEFECE" filter="url(#fldm5kh)" height="60.9551" rx="10" ry="10" style="stroke: #A80036; stroke-width: 1.5;" width="388" x="6" y="397"/><ellipse cx="123.25" cy="413" fill="#B4A7E5" rx="11" ry="11" style="stroke: #A80036; stroke-width: 1.0;"/><path d="M119.6777,409.2651 L119.6777,407.1069 L127.0571,407.1069 L127.0571,409.2651 L124.5918,409.2651 L124.5918,417.3418 L127.0571,417.3418 L127.0571,419.5 L119.6777,419.5 L119.6777,417.3418 L122.1431,417.3418 L122.1431,409.2651 Z "/><text fill="#000000" font-family="sans-serif" font-size="12" font-style="italic" lengthAdjust="spacingAndGlyphs" textLength="145" x="143.75" y="417.5352">GenericLifecycleObserver</text><line style="stroke: #A80036; stroke-width: 1.5;" x1="7" x2="393" y1="429" y2="429"/><line style="stroke: #A80036; stroke-width: 1.5;" x1="7" x2="393" y1="437" y2="437"/><ellipse cx="17" cy="448.9775" fill="#84BE84" rx="3" ry="3" style="stroke: #038048; stroke-width: 1.0;"/><text fill="#000000" font-family="sans-serif" font-size="11" lengthAdjust="spacingAndGlyphs" textLength="362" x="26" y="451.6348">void onStateChanged(LifecycleOwner source, Lifecycle.Event event);</text><!--class ReflectiveGenericLifecycleObserver--><rect fill="#FEFECE" filter="url(#fldm5kh)" height="73.9102" rx="10" ry="10" style="stroke: #A80036; stroke-width: 1.5;" width="232" x="84" y="550.5"/><ellipse cx="99" cy="566.5" fill="#ADD1B2" rx="11" ry="11" style="stroke: #A80036; stroke-width: 1.0;"/><path d="M101.4731,572.6431 Q100.8921,572.9419 100.2529,573.0913 Q99.6138,573.2407 98.9082,573.2407 Q96.4014,573.2407 95.0815,571.5889 Q93.7617,569.937 93.7617,566.8159 Q93.7617,563.6865 95.0815,562.0347 Q96.4014,560.3828 98.9082,560.3828 Q99.6138,560.3828 100.2612,560.5322 Q100.9087,560.6816 101.4731,560.9805 L101.4731,563.7031 Q100.8423,563.1221 100.2488,562.8523 Q99.6553,562.5825 99.0244,562.5825 Q97.6797,562.5825 96.9949,563.6492 Q96.3101,564.7158 96.3101,566.8159 Q96.3101,568.9077 96.9949,569.9744 Q97.6797,571.041 99.0244,571.041 Q99.6553,571.041 100.2488,570.7712 Q100.8423,570.5015 101.4731,569.9204 Z "/><text fill="#000000" font-family="sans-serif" font-size="12" lengthAdjust="spacingAndGlyphs" textLength="200" x="113" y="571.0352">ReflectiveGenericLifecycleObserver</text><line style="stroke: #A80036; stroke-width: 1.5;" x1="85" x2="315" y1="582.5" y2="582.5"/><rect fill="none" height="6" style="stroke: #C82930; stroke-width: 1.0;" width="6" x="92" y="591.4775"/><text fill="#000000" font-family="sans-serif" font-size="11" lengthAdjust="spacingAndGlyphs" textLength="98" x="104" y="597.1348">Object mWrapped;</text><rect fill="none" height="6" style="stroke: #C82930; stroke-width: 1.0;" width="6" x="92" y="604.4326"/><text fill="#000000" font-family="sans-serif" font-size="11" lengthAdjust="spacingAndGlyphs" textLength="103" x="104" y="610.0898">CallbackInfo mInfo;</text><line style="stroke: #A80036; stroke-width: 1.5;" x1="85" x2="315" y1="616.4102" y2="616.4102"/><!--class SupportActivity--><rect fill="#FEFECE" filter="url(#fldm5kh)" height="60.9551" rx="10" ry="10" style="stroke: #A80036; stroke-width: 1.5;" width="219" x="493.5" y="142"/><ellipse cx="556.25" cy="158" fill="#ADD1B2" rx="11" ry="11" style="stroke: #A80036; stroke-width: 1.0;"/><path d="M558.7231,164.1431 Q558.1421,164.4419 557.5029,164.5913 Q556.8638,164.7407 556.1582,164.7407 Q553.6514,164.7407 552.3315,163.0889 Q551.0117,161.437 551.0117,158.3159 Q551.0117,155.1865 552.3315,153.5347 Q553.6514,151.8828 556.1582,151.8828 Q556.8638,151.8828 557.5112,152.0322 Q558.1587,152.1816 558.7231,152.4805 L558.7231,155.2031 Q558.0923,154.6221 557.4988,154.3523 Q556.9053,154.0825 556.2744,154.0825 Q554.9297,154.0825 554.2449,155.1492 Q553.5601,156.2158 553.5601,158.3159 Q553.5601,160.4077 554.2449,161.4744 Q554.9297,162.541 556.2744,162.541 Q556.9053,162.541 557.4988,162.2712 Q558.0923,162.0015 558.7231,161.4204 Z "/><text fill="#000000" font-family="sans-serif" font-size="12" lengthAdjust="spacingAndGlyphs" textLength="85" x="576.75" y="162.5352">SupportActivity</text><line style="stroke: #A80036; stroke-width: 1.5;" x1="494.5" x2="711.5" y1="174" y2="174"/><rect fill="none" height="6" style="stroke: #C82930; stroke-width: 1.0;" width="6" x="501.5" y="182.9775"/><text fill="#000000" font-family="sans-serif" font-size="11" lengthAdjust="spacingAndGlyphs" textLength="193" x="513.5" y="188.6348">LifecycleRegistry mLifecycleRegistry</text><line style="stroke: #A80036; stroke-width: 1.5;" x1="494.5" x2="711.5" y1="194.9551" y2="194.9551"/><!--class ReportFragment--><rect fill="#FEFECE" filter="url(#fldm5kh)" height="60.9551" rx="10" ry="10" style="stroke: #A80036; stroke-width: 1.5;" width="216" x="623" y="276"/><ellipse cx="680.25" cy="292" fill="#ADD1B2" rx="11" ry="11" style="stroke: #A80036; stroke-width: 1.0;"/><path d="M682.7231,298.1431 Q682.1421,298.4419 681.5029,298.5913 Q680.8638,298.7407 680.1582,298.7407 Q677.6514,298.7407 676.3315,297.0889 Q675.0117,295.437 675.0117,292.3159 Q675.0117,289.1865 676.3315,287.5347 Q677.6514,285.8828 680.1582,285.8828 Q680.8638,285.8828 681.5112,286.0322 Q682.1587,286.1816 682.7231,286.4805 L682.7231,289.2031 Q682.0923,288.6221 681.4988,288.3523 Q680.9053,288.0825 680.2744,288.0825 Q678.9297,288.0825 678.2449,289.1492 Q677.5601,290.2158 677.5601,292.3159 Q677.5601,294.4077 678.2449,295.4744 Q678.9297,296.541 680.2744,296.541 Q680.9053,296.541 681.4988,296.2712 Q682.0923,296.0015 682.7231,295.4204 Z "/><text fill="#000000" font-family="sans-serif" font-size="12" lengthAdjust="spacingAndGlyphs" textLength="93" x="700.75" y="296.5352">ReportFragment</text><line style="stroke: #A80036; stroke-width: 1.5;" x1="624" x2="838" y1="308" y2="308"/><line style="stroke: #A80036; stroke-width: 1.5;" x1="624" x2="838" y1="316" y2="316"/><rect fill="#F24D5C" height="6" style="stroke: #C82930; stroke-width: 1.0;" width="6" x="631" y="324.9775"/><text fill="#000000" font-family="sans-serif" font-size="11" lengthAdjust="spacingAndGlyphs" textLength="190" x="643" y="330.6348">void dispatch(Lifecycle.Event event)</text><path d="M368.971,230.3369 C421.7174,282.069 496.9755,355.8798 538.8468,396.9459 " fill="none" style="stroke: #A80036; stroke-width: 1.0;"/><polygon fill="none" points="363.7775,235.0481,354.4002,216.0463,373.5804,225.0529,363.7775,235.0481" style="stroke: #A80036; stroke-width: 1.0;"/><path d="M253.5698,347.476 C242.7443,363.6475 230.5233,381.9034 220.4904,396.8909 " fill="none" style="stroke: #A80036; stroke-width: 1.0;"/><polygon fill="none" points="247.8604,343.4212,264.8031,330.6953,259.4943,351.2092,247.8604,343.4212" style="stroke: #A80036; stroke-width: 1.0;"/><path d="M200,478.4258 C200,501.755 200,528.9021 200,550.2773 " fill="none" style="stroke: #A80036; stroke-width: 1.0; stroke-dasharray: 7.0,7.0;"/><polygon fill="none" points="193.0001,478.3496,200,458.3496,207.0001,478.3496,193.0001,478.3496" style="stroke: #A80036; stroke-width: 1.0;"/><path d="M422.5047,69.2423 C404.3553,85.9 381.5438,106.8365 361.214,125.4954 " fill="none" style="stroke: #A80036; stroke-width: 1.0; stroke-dasharray: 7.0,7.0;"/><polygon fill="#A80036" points="357.4485,128.9514,366.7839,125.8128,361.1322,125.5705,361.3745,119.9189,357.4485,128.9514" style="stroke: #A80036; stroke-width: 1.0;"/><path d="M504.53,82.7382 C525.7954,102.123 550.2256,124.3927 569.4322,141.9007 " fill="none" style="stroke: #A80036; stroke-width: 1.0; stroke-dasharray: 7.0,7.0;"/><polygon fill="none" points="499.7897,87.889,489.7248,69.2423,509.2211,77.5426,499.7897,87.889" style="stroke: #A80036; stroke-width: 1.0;"/><path d="M300.5845,216.006 C296.8633,233.2005 292.6306,252.7588 289.0545,269.2827 " fill="none" style="stroke: #A80036; stroke-width: 1.0; stroke-dasharray: 7.0,7.0;"/><polygon fill="#EEEBDC" points="286.2307,282.3306,291.4094,277.3125,288.769,270.6021,283.5904,275.6203,286.2307,282.3306" style="stroke: #A80036; stroke-width: 1.0;"/><path d="M632.3658,203.2423 C652.0415,223.8404 677.967,250.9811 698.3004,272.2676 " fill="none" style="stroke: #A80036; stroke-width: 1.0; stroke-dasharray: 7.0,7.0;"/><polygon fill="#A80036" points="701.7709,275.9007,698.4467,266.6298,698.3172,272.2852,692.6618,272.1557,701.7709,275.9007" style="stroke: #A80036; stroke-width: 1.0;"/><path d="M599.0522,203.0057 C592.9159,250.4225 581.1192,341.5788 574.6044,391.9204 " fill="none" style="stroke: #A80036; stroke-width: 1.0; stroke-dasharray: 7.0,7.0;"/><polygon fill="#A80036" points="573.9523,396.9593,579.0743,388.5471,574.594,392.0006,571.1405,387.5204,573.9523,396.9593" style="stroke: #A80036; stroke-width: 1.0;"/><path d="M690.3729,337.0334 C667.3012,354.373 638.3836,376.1061 614.6745,393.9248 " fill="none" style="stroke: #A80036; stroke-width: 1.0; stroke-dasharray: 7.0,7.0;"/><polygon fill="#A80036" points="610.6141,396.9764,620.2119,394.7668,614.6111,393.9724,615.4055,388.3716,610.6141,396.9764" style="stroke: #A80036; stroke-width: 1.0;"/><path d="M730.4554,337.1068 C729.7454,377.008 728.476,448.3471 727.4733,504.6991 " fill="none" style="stroke: #A80036; stroke-width: 1.0;"/><polygon fill="#EEEBDC" points="727.2377,517.9392,731.3439,512.0114,727.4513,505.9411,723.3451,511.8689,727.2377,517.9392" style="stroke: #A80036; stroke-width: 1.0;"/><path d="M600.0784,458.3496 C622.1881,481.0263 652.6852,512.3053 678.1285,538.401 " fill="none" style="stroke: #A80036; stroke-width: 1.0; stroke-dasharray: 7.0,7.0;"/><polygon fill="#A80036" points="681.8441,542.2119,678.4251,532.9755,678.3536,538.6319,672.6972,538.5604,681.8441,542.2119" style="stroke: #A80036; stroke-width: 1.0;"/><path d="M570,458.3496 C570,475.2649 570,496.9666 570,517.7332 " fill="none" style="stroke: #A80036; stroke-width: 1.0;"/><polygon fill="#EEEBDC" points="570,530.8367,574,524.8367,570,518.8367,566,524.8367,570,530.8367" style="stroke: #A80036; stroke-width: 1.0;"/></g></svg>