<?xml version="1.0" encoding="UTF-8" standalone="no"?><svg xmlns="http://www.w3.org/2000/svg" xmlns:xlink="http://www.w3.org/1999/xlink" contentScriptType="application/ecmascript" contentStyleType="text/css" height="556px" preserveAspectRatio="none" style="width:1258px;height:556px;" version="1.1" viewBox="0 0 1258 556" width="1258px" zoomAndPan="magnify"><defs><filter height="300%" id="fdft5tw" width="300%" x="-1" y="-1"><feGaussianBlur result="blurOut" stdDeviation="2.0"/><feColorMatrix in="blurOut" result="blurOut2" type="matrix" values="0 0 0 0 0 0 0 0 0 0 0 0 0 0 0 0 0 0 .4 0"/><feOffset dx="4.0" dy="4.0" in="blurOut2" result="blurOut3"/><feBlend in="SourceGraphic" in2="blurOut3" mode="normal"/></filter></defs><g><rect fill="#FFFFFF" filter="url(#fdft5tw)" height="441.0371" style="stroke: #A80036; stroke-width: 1.0;" width="10" x="59" y="48.4883"/><rect fill="#FFFFFF" filter="url(#fdft5tw)" height="247.4844" style="stroke: #A80036; stroke-width: 1.0;" width="10" x="656.5" y="242.041"/><line style="stroke: #A80036; stroke-width: 1.0; stroke-dasharray: 5.0,5.0;" x1="64" x2="64" y1="38.4883" y2="507.8359"/><line style="stroke: #A80036; stroke-width: 1.0; stroke-dasharray: 5.0,5.0;" x1="177" x2="177" y1="38.4883" y2="507.8359"/><line style="stroke: #A80036; stroke-width: 1.0; stroke-dasharray: 5.0,5.0;" x1="303" x2="303" y1="38.4883" y2="507.8359"/><line style="stroke: #A80036; stroke-width: 1.0; stroke-dasharray: 5.0,5.0;" x1="422" x2="422" y1="38.4883" y2="507.8359"/><line style="stroke: #A80036; stroke-width: 1.0; stroke-dasharray: 5.0,5.0;" x1="549" x2="549" y1="38.4883" y2="507.8359"/><line style="stroke: #A80036; stroke-width: 1.0; stroke-dasharray: 5.0,5.0;" x1="661" x2="661" y1="38.4883" y2="507.8359"/><line style="stroke: #A80036; stroke-width: 1.0; stroke-dasharray: 5.0,5.0;" x1="869.5" x2="869.5" y1="38.4883" y2="507.8359"/><line style="stroke: #A80036; stroke-width: 1.0; stroke-dasharray: 5.0,5.0;" x1="956.5" x2="956.5" y1="38.4883" y2="507.8359"/><line style="stroke: #A80036; stroke-width: 1.0; stroke-dasharray: 5.0,5.0;" x1="1071.5" x2="1071.5" y1="38.4883" y2="507.8359"/><line style="stroke: #A80036; stroke-width: 1.0; stroke-dasharray: 5.0,5.0;" x1="1207" x2="1207" y1="38.4883" y2="507.8359"/><rect fill="#FEFECE" filter="url(#fdft5tw)" height="30.4883" style="stroke: #A80036; stroke-width: 1.5;" width="108" x="8" y="3"/><text fill="#000000" font-family="sans-serif" font-size="14" lengthAdjust="spacingAndGlyphs" textLength="94" x="15" y="23.5352">FlutterActivity</text><rect fill="#FEFECE" filter="url(#fdft5tw)" height="30.4883" style="stroke: #A80036; stroke-width: 1.5;" width="108" x="8" y="506.8359"/><text fill="#000000" font-family="sans-serif" font-size="14" lengthAdjust="spacingAndGlyphs" textLength="94" x="15" y="527.3711">FlutterActivity</text><rect fill="#FEFECE" filter="url(#fdft5tw)" height="30.4883" style="stroke: #A80036; stroke-width: 1.5;" width="91" x="130" y="3"/><text fill="#000000" font-family="sans-serif" font-size="14" lengthAdjust="spacingAndGlyphs" textLength="77" x="137" y="23.5352">FlutterView</text><rect fill="#FEFECE" filter="url(#fdft5tw)" height="30.4883" style="stroke: #A80036; stroke-width: 1.5;" width="91" x="130" y="506.8359"/><text fill="#000000" font-family="sans-serif" font-size="14" lengthAdjust="spacingAndGlyphs" textLength="77" x="137" y="527.3711">FlutterView</text><rect fill="#FEFECE" filter="url(#fdft5tw)" height="30.4883" style="stroke: #A80036; stroke-width: 1.5;" width="133" x="235" y="3"/><text fill="#000000" font-family="sans-serif" font-size="14" lengthAdjust="spacingAndGlyphs" textLength="119" x="242" y="23.5352">FlutterNativeView</text><rect fill="#FEFECE" filter="url(#fdft5tw)" height="30.4883" style="stroke: #A80036; stroke-width: 1.5;" width="133" x="235" y="506.8359"/><text fill="#000000" font-family="sans-serif" font-size="14" lengthAdjust="spacingAndGlyphs" textLength="119" x="242" y="527.3711">FlutterNativeView</text><rect fill="#FEFECE" filter="url(#fdft5tw)" height="30.4883" style="stroke: #A80036; stroke-width: 1.5;" width="77" x="382" y="3"/><text fill="#000000" font-family="sans-serif" font-size="14" lengthAdjust="spacingAndGlyphs" textLength="63" x="389" y="23.5352">FlutterJNI</text><rect fill="#FEFECE" filter="url(#fdft5tw)" height="30.4883" style="stroke: #A80036; stroke-width: 1.5;" width="77" x="382" y="506.8359"/><text fill="#000000" font-family="sans-serif" font-size="14" lengthAdjust="spacingAndGlyphs" textLength="63" x="389" y="527.3711">FlutterJNI</text><rect fill="#FEFECE" filter="url(#fdft5tw)" height="30.4883" style="stroke: #A80036; stroke-width: 1.5;" width="149" x="473" y="3"/><text fill="#000000" font-family="sans-serif" font-size="14" lengthAdjust="spacingAndGlyphs" textLength="135" x="480" y="23.5352">AndroidShellHolder</text><rect fill="#FEFECE" filter="url(#fdft5tw)" height="30.4883" style="stroke: #A80036; stroke-width: 1.5;" width="149" x="473" y="506.8359"/><text fill="#000000" font-family="sans-serif" font-size="14" lengthAdjust="spacingAndGlyphs" textLength="135" x="480" y="527.3711">AndroidShellHolder</text><rect fill="#FEFECE" filter="url(#fdft5tw)" height="30.4883" style="stroke: #A80036; stroke-width: 1.5;" width="47" x="636" y="3"/><text fill="#000000" font-family="sans-serif" font-size="14" lengthAdjust="spacingAndGlyphs" textLength="33" x="643" y="23.5352">Shell</text><rect fill="#FEFECE" filter="url(#fdft5tw)" height="30.4883" style="stroke: #A80036; stroke-width: 1.5;" width="47" x="636" y="506.8359"/><text fill="#000000" font-family="sans-serif" font-size="14" lengthAdjust="spacingAndGlyphs" textLength="33" x="643" y="527.3711">Shell</text><rect fill="#FEFECE" filter="url(#fdft5tw)" height="30.4883" style="stroke: #A80036; stroke-width: 1.5;" width="86" x="824.5" y="3"/><text fill="#000000" font-family="sans-serif" font-size="14" lengthAdjust="spacingAndGlyphs" textLength="72" x="831.5" y="23.5352">DartVMRef</text><rect fill="#FEFECE" filter="url(#fdft5tw)" height="30.4883" style="stroke: #A80036; stroke-width: 1.5;" width="86" x="824.5" y="506.8359"/><text fill="#000000" font-family="sans-serif" font-size="14" lengthAdjust="spacingAndGlyphs" textLength="72" x="831.5" y="527.3711">DartVMRef</text><rect fill="#FEFECE" filter="url(#fdft5tw)" height="30.4883" style="stroke: #A80036; stroke-width: 1.5;" width="61" x="924.5" y="3"/><text fill="#000000" font-family="sans-serif" font-size="14" lengthAdjust="spacingAndGlyphs" textLength="47" x="931.5" y="23.5352">Engine</text><rect fill="#FEFECE" filter="url(#fdft5tw)" height="30.4883" style="stroke: #A80036; stroke-width: 1.5;" width="61" x="924.5" y="506.8359"/><text fill="#000000" font-family="sans-serif" font-size="14" lengthAdjust="spacingAndGlyphs" textLength="47" x="931.5" y="527.3711">Engine</text><rect fill="#FEFECE" filter="url(#fdft5tw)" height="30.4883" style="stroke: #A80036; stroke-width: 1.5;" width="141" x="999.5" y="3"/><text fill="#000000" font-family="sans-serif" font-size="14" lengthAdjust="spacingAndGlyphs" textLength="127" x="1006.5" y="23.5352">RuntimeController</text><rect fill="#FEFECE" filter="url(#fdft5tw)" height="30.4883" style="stroke: #A80036; stroke-width: 1.5;" width="141" x="999.5" y="506.8359"/><text fill="#000000" font-family="sans-serif" font-size="14" lengthAdjust="spacingAndGlyphs" textLength="127" x="1006.5" y="527.3711">RuntimeController</text><rect fill="#FEFECE" filter="url(#fdft5tw)" height="30.4883" style="stroke: #A80036; stroke-width: 1.5;" width="88" x="1161" y="3"/><text fill="#000000" font-family="sans-serif" font-size="14" lengthAdjust="spacingAndGlyphs" textLength="74" x="1168" y="23.5352">DartIsolate</text><rect fill="#FEFECE" filter="url(#fdft5tw)" height="30.4883" style="stroke: #A80036; stroke-width: 1.5;" width="88" x="1161" y="506.8359"/><text fill="#000000" font-family="sans-serif" font-size="14" lengthAdjust="spacingAndGlyphs" textLength="74" x="1168" y="527.3711">DartIsolate</text><rect fill="#FFFFFF" filter="url(#fdft5tw)" height="441.0371" style="stroke: #A80036; stroke-width: 1.0;" width="10" x="59" y="48.4883"/><rect fill="#FFFFFF" filter="url(#fdft5tw)" height="247.4844" style="stroke: #A80036; stroke-width: 1.0;" width="10" x="656.5" y="242.041"/><line style="stroke: #A80036; stroke-width: 1.0;" x1="69" x2="111" y1="69.7988" y2="69.7988"/><line style="stroke: #A80036; stroke-width: 1.0;" x1="111" x2="111" y1="69.7988" y2="82.7988"/><line style="stroke: #A80036; stroke-width: 1.0;" x1="70" x2="111" y1="82.7988" y2="82.7988"/><polygon fill="#A80036" points="80,78.7988,70,82.7988,80,86.7988,76,82.7988" style="stroke: #A80036; stroke-width: 1.0;"/><text fill="#000000" font-family="sans-serif" font-size="13" lengthAdjust="spacingAndGlyphs" textLength="56" x="76" y="65.0566">onCreate</text><polygon fill="#A80036" points="165.5,107.7988,175.5,111.7988,165.5,115.7988,169.5,111.7988" style="stroke: #A80036; stroke-width: 1.0;"/><line style="stroke: #A80036; stroke-width: 1.0;" x1="69" x2="171.5" y1="111.7988" y2="111.7988"/><text fill="#000000" font-family="sans-serif" font-size="13" lengthAdjust="spacingAndGlyphs" textLength="25" x="76" y="107.3672">new</text><polygon fill="#A80036" points="291.5,137.1094,301.5,141.1094,291.5,145.1094,295.5,141.1094" style="stroke: #A80036; stroke-width: 1.0;"/><line style="stroke: #A80036; stroke-width: 1.0;" x1="177.5" x2="297.5" y1="141.1094" y2="141.1094"/><text fill="#000000" font-family="sans-serif" font-size="13" lengthAdjust="spacingAndGlyphs" textLength="25" x="184.5" y="136.6777">new</text><line style="stroke: #A80036; stroke-width: 1.0;" x1="303.5" x2="345.5" y1="170.7305" y2="170.7305"/><line style="stroke: #A80036; stroke-width: 1.0;" x1="345.5" x2="345.5" y1="170.7305" y2="183.7305"/><line style="stroke: #A80036; stroke-width: 1.0;" x1="304.5" x2="345.5" y1="183.7305" y2="183.7305"/><polygon fill="#A80036" points="314.5,179.7305,304.5,183.7305,314.5,187.7305,310.5,183.7305" style="stroke: #A80036; stroke-width: 1.0;"/><text fill="#000000" font-family="sans-serif" font-size="13" lengthAdjust="spacingAndGlyphs" textLength="39" x="310.5" y="165.9883">attach</text><polygon fill="#A80036" points="410.5,208.7305,420.5,212.7305,410.5,216.7305,414.5,212.7305" style="stroke: #A80036; stroke-width: 1.0;"/><line style="stroke: #A80036; stroke-width: 1.0;" x1="303.5" x2="416.5" y1="212.7305" y2="212.7305"/><text fill="#000000" font-family="sans-serif" font-size="13" lengthAdjust="spacingAndGlyphs" textLength="95" x="310.5" y="208.2988">attachToNative</text><polygon fill="#A80036" points="537.5,238.041,547.5,242.041,537.5,246.041,541.5,242.041" style="stroke: #A80036; stroke-width: 1.0;"/><line style="stroke: #A80036; stroke-width: 1.0;" x1="422.5" x2="543.5" y1="242.041" y2="242.041"/><text fill="#000000" font-family="sans-serif" font-size="13" lengthAdjust="spacingAndGlyphs" textLength="25" x="429.5" y="237.6094">new</text><polygon fill="#A80036" points="644.5,267.3516,654.5,271.3516,644.5,275.3516,648.5,271.3516" style="stroke: #A80036; stroke-width: 1.0;"/><line style="stroke: #A80036; stroke-width: 1.0;" x1="549.5" x2="650.5" y1="271.3516" y2="271.3516"/><text fill="#000000" font-family="sans-serif" font-size="13" lengthAdjust="spacingAndGlyphs" textLength="40" x="556.5" y="266.9199">Create</text><polygon fill="#A80036" points="857.5,296.6621,867.5,300.6621,857.5,304.6621,861.5,300.6621" style="stroke: #A80036; stroke-width: 1.0;"/><line style="stroke: #A80036; stroke-width: 1.0;" x1="666.5" x2="863.5" y1="300.6621" y2="300.6621"/><text fill="#000000" font-family="sans-serif" font-size="13" lengthAdjust="spacingAndGlyphs" textLength="40" x="673.5" y="296.2305">Create</text><polygon fill="#A80036" points="677.5,325.9727,667.5,329.9727,677.5,333.9727,673.5,329.9727" style="stroke: #A80036; stroke-width: 1.0;"/><line style="stroke: #A80036; stroke-width: 1.0; stroke-dasharray: 2.0,2.0;" x1="671.5" x2="868.5" y1="329.9727" y2="329.9727"/><text fill="#000000" font-family="sans-serif" font-size="13" lengthAdjust="spacingAndGlyphs" textLength="44" x="683.5" y="325.541">dartVM</text><line style="stroke: #A80036; stroke-width: 1.0;" x1="666.5" x2="708.5" y1="359.5938" y2="359.5938"/><line style="stroke: #A80036; stroke-width: 1.0;" x1="708.5" x2="708.5" y1="359.5938" y2="372.5938"/><line style="stroke: #A80036; stroke-width: 1.0;" x1="667.5" x2="708.5" y1="372.5938" y2="372.5938"/><polygon fill="#A80036" points="677.5,368.5938,667.5,372.5938,677.5,376.5938,673.5,372.5938" style="stroke: #A80036; stroke-width: 1.0;"/><text fill="#000000" font-family="sans-serif" font-size="13" lengthAdjust="spacingAndGlyphs" textLength="184" x="673.5" y="354.8516">CreateShellOnPlatformThread</text><polygon fill="#A80036" points="945,397.5938,955,401.5938,945,405.5938,949,401.5938" style="stroke: #A80036; stroke-width: 1.0;"/><line style="stroke: #A80036; stroke-width: 1.0;" x1="666.5" x2="951" y1="401.5938" y2="401.5938"/><text fill="#000000" font-family="sans-serif" font-size="13" lengthAdjust="spacingAndGlyphs" textLength="25" x="673.5" y="397.1621">new</text><polygon fill="#A80036" points="1060,426.9043,1070,430.9043,1060,434.9043,1064,430.9043" style="stroke: #A80036; stroke-width: 1.0;"/><line style="stroke: #A80036; stroke-width: 1.0;" x1="957" x2="1066" y1="430.9043" y2="430.9043"/><text fill="#000000" font-family="sans-serif" font-size="13" lengthAdjust="spacingAndGlyphs" textLength="25" x="964" y="426.4727">new</text><polygon fill="#A80036" points="1195,456.2148,1205,460.2148,1195,464.2148,1199,460.2148" style="stroke: #A80036; stroke-width: 1.0;"/><line style="stroke: #A80036; stroke-width: 1.0;" x1="1072" x2="1201" y1="460.2148" y2="460.2148"/><text fill="#000000" font-family="sans-serif" font-size="13" lengthAdjust="spacingAndGlyphs" textLength="111" x="1079" y="455.7832">CreateRootIsolate</text><polygon fill="#A80036" points="560.5,485.5254,550.5,489.5254,560.5,493.5254,556.5,489.5254" style="stroke: #A80036; stroke-width: 1.0;"/><line style="stroke: #A80036; stroke-width: 1.0; stroke-dasharray: 2.0,2.0;" x1="554.5" x2="660.5" y1="489.5254" y2="489.5254"/><text fill="#000000" font-family="sans-serif" font-size="13" lengthAdjust="spacingAndGlyphs" textLength="30" x="566.5" y="485.0938">shell</text><text fill="#888888" font-family="sans-serif" font-size="10" lengthAdjust="spacingAndGlyphs" textLength="51" x="605" y="555.9922">Flutter Init</text></g></svg>