<?xml version="1.0" encoding="UTF-8" standalone="no"?><svg xmlns="http://www.w3.org/2000/svg" xmlns:xlink="http://www.w3.org/1999/xlink" contentScriptType="application/ecmascript" contentStyleType="text/css" height="211px" preserveAspectRatio="none" style="width:334px;height:211px;" version="1.1" viewBox="0 0 334 211" width="334px" zoomAndPan="magnify"><defs><filter height="300%" id="fdju2kl" width="300%" x="-1" y="-1"><feGaussianBlur result="blurOut" stdDeviation="2.0"/><feColorMatrix in="blurOut" result="blurOut2" type="matrix" values="0 0 0 0 0 0 0 0 0 0 0 0 0 0 0 0 0 0 .4 0"/><feOffset dx="4.0" dy="4.0" in="blurOut2" result="blurOut3"/><feBlend in="SourceGraphic" in2="blurOut3" mode="normal"/></filter></defs><g><!--class Context--><rect fill="#FEFECE" filter="url(#fdju2kl)" height="73.9102" style="stroke: #A80036; stroke-width: 1.5;" width="138" x="6" y="8"/><ellipse cx="48.9" cy="24" fill="#ADD1B2" rx="11" ry="11" style="stroke: #A80036; stroke-width: 1.0;"/><path d="M51.3731,30.1431 Q50.7921,30.4419 50.1529,30.5913 Q49.5138,30.7407 48.8082,30.7407 Q46.3014,30.7407 44.9815,29.0889 Q43.6617,27.437 43.6617,24.3159 Q43.6617,21.1865 44.9815,19.5347 Q46.3014,17.8828 48.8082,17.8828 Q49.5138,17.8828 50.1612,18.0322 Q50.8087,18.1816 51.3731,18.4805 L51.3731,21.2031 Q50.7423,20.6221 50.1488,20.3523 Q49.5553,20.0825 48.9244,20.0825 Q47.5797,20.0825 46.8949,21.1492 Q46.2101,22.2158 46.2101,24.3159 Q46.2101,26.4077 46.8949,27.4744 Q47.5797,28.541 48.9244,28.541 Q49.5553,28.541 50.1488,28.2712 Q50.7423,28.0015 51.3731,27.4204 Z "/><text fill="#000000" font-family="sans-serif" font-size="12" lengthAdjust="spacingAndGlyphs" textLength="44" x="69.1" y="28.5352">Context</text><line style="stroke: #A80036; stroke-width: 1.5;" x1="7" x2="143" y1="40" y2="40"/><line style="stroke: #A80036; stroke-width: 1.5;" x1="7" x2="143" y1="48" y2="48"/><ellipse cx="17" cy="59.9775" fill="#84BE84" rx="3" ry="3" style="stroke: #038048; stroke-width: 1.0;"/><text fill="#000000" font-family="sans-serif" font-size="11" lengthAdjust="spacingAndGlyphs" textLength="60" x="26" y="62.6348">algorithm()</text><ellipse cx="17" cy="72.9326" fill="#84BE84" rx="3" ry="3" style="stroke: #038048; stroke-width: 1.0;"/><text fill="#000000" font-family="sans-serif" font-size="11" lengthAdjust="spacingAndGlyphs" textLength="112" x="26" y="75.5898">setStrategy(Strategy)</text><!--class Strategy--><rect fill="#FEFECE" filter="url(#fdju2kl)" height="60.9551" style="stroke: #A80036; stroke-width: 1.5;" width="86" x="179" y="14.5"/><ellipse cx="197.6" cy="30.5" fill="#B4A7E5" rx="11" ry="11" style="stroke: #A80036; stroke-width: 1.0;"/><path d="M194.0277,26.7651 L194.0277,24.6069 L201.4071,24.6069 L201.4071,26.7651 L198.9418,26.7651 L198.9418,34.8418 L201.4071,34.8418 L201.4071,37 L194.0277,37 L194.0277,34.8418 L196.4931,34.8418 L196.4931,26.7651 Z "/><text fill="#000000" font-family="sans-serif" font-size="12" font-style="italic" lengthAdjust="spacingAndGlyphs" textLength="46" x="212.4" y="35.0352">Strategy</text><line style="stroke: #A80036; stroke-width: 1.5;" x1="180" x2="264" y1="46.5" y2="46.5"/><line style="stroke: #A80036; stroke-width: 1.5;" x1="180" x2="264" y1="54.5" y2="54.5"/><ellipse cx="190" cy="66.4775" fill="#84BE84" rx="3" ry="3" style="stroke: #038048; stroke-width: 1.0;"/><text fill="#000000" font-family="sans-serif" font-size="11" lengthAdjust="spacingAndGlyphs" textLength="60" x="199" y="69.1348">algorithm()</text><!--class StrategyA--><rect fill="#FEFECE" filter="url(#fdju2kl)" height="60.9551" style="stroke: #A80036; stroke-width: 1.5;" width="86" x="118" y="142"/><ellipse cx="133" cy="158" fill="#ADD1B2" rx="11" ry="11" style="stroke: #A80036; stroke-width: 1.0;"/><path d="M135.4731,164.1431 Q134.8921,164.4419 134.2529,164.5913 Q133.6138,164.7407 132.9082,164.7407 Q130.4014,164.7407 129.0815,163.0889 Q127.7617,161.437 127.7617,158.3159 Q127.7617,155.1865 129.0815,153.5347 Q130.4014,151.8828 132.9082,151.8828 Q133.6138,151.8828 134.2612,152.0322 Q134.9087,152.1816 135.4731,152.4805 L135.4731,155.2031 Q134.8423,154.6221 134.2488,154.3523 Q133.6553,154.0825 133.0244,154.0825 Q131.6797,154.0825 130.9949,155.1492 Q130.3101,156.2158 130.3101,158.3159 Q130.3101,160.4077 130.9949,161.4744 Q131.6797,162.541 133.0244,162.541 Q133.6553,162.541 134.2488,162.2712 Q134.8423,162.0015 135.4731,161.4204 Z "/><text fill="#000000" font-family="sans-serif" font-size="12" lengthAdjust="spacingAndGlyphs" textLength="54" x="147" y="162.5352">StrategyA</text><line style="stroke: #A80036; stroke-width: 1.5;" x1="119" x2="203" y1="174" y2="174"/><line style="stroke: #A80036; stroke-width: 1.5;" x1="119" x2="203" y1="182" y2="182"/><ellipse cx="129" cy="193.9775" fill="#84BE84" rx="3" ry="3" style="stroke: #038048; stroke-width: 1.0;"/><text fill="#000000" font-family="sans-serif" font-size="11" lengthAdjust="spacingAndGlyphs" textLength="60" x="138" y="196.6348">algorithm()</text><!--class StrategyB--><rect fill="#FEFECE" filter="url(#fdju2kl)" height="60.9551" style="stroke: #A80036; stroke-width: 1.5;" width="86" x="239" y="142"/><ellipse cx="254.45" cy="158" fill="#ADD1B2" rx="11" ry="11" style="stroke: #A80036; stroke-width: 1.0;"/><path d="M256.9231,164.1431 Q256.3421,164.4419 255.7029,164.5913 Q255.0638,164.7407 254.3582,164.7407 Q251.8514,164.7407 250.5315,163.0889 Q249.2117,161.437 249.2117,158.3159 Q249.2117,155.1865 250.5315,153.5347 Q251.8514,151.8828 254.3582,151.8828 Q255.0638,151.8828 255.7112,152.0322 Q256.3587,152.1816 256.9231,152.4805 L256.9231,155.2031 Q256.2923,154.6221 255.6988,154.3523 Q255.1053,154.0825 254.4744,154.0825 Q253.1297,154.0825 252.4449,155.1492 Q251.7601,156.2158 251.7601,158.3159 Q251.7601,160.4077 252.4449,161.4744 Q253.1297,162.541 254.4744,162.541 Q255.1053,162.541 255.6988,162.2712 Q256.2923,162.0015 256.9231,161.4204 Z "/><text fill="#000000" font-family="sans-serif" font-size="12" lengthAdjust="spacingAndGlyphs" textLength="53" x="268.55" y="162.5352">StrategyB</text><line style="stroke: #A80036; stroke-width: 1.5;" x1="240" x2="324" y1="174" y2="174"/><line style="stroke: #A80036; stroke-width: 1.5;" x1="240" x2="324" y1="182" y2="182"/><ellipse cx="250" cy="193.9775" fill="#84BE84" rx="3" ry="3" style="stroke: #038048; stroke-width: 1.0;"/><text fill="#000000" font-family="sans-serif" font-size="11" lengthAdjust="spacingAndGlyphs" textLength="60" x="259" y="196.6348">algorithm()</text><path d="M157.4572,45 C164.5853,45 171.7135,45 178.8416,45 " fill="none" style="stroke: #A80036; stroke-width: 1.0;"/><polygon fill="#FFFFFF" points="144.1934,45,150.1934,49,156.1934,45,150.1934,41,144.1934,45" style="stroke: #A80036; stroke-width: 1.0;"/><path d="M198.7392,93.619 C191.003,109.7889 182.6073,127.3372 175.7032,141.7679 " fill="none" style="stroke: #A80036; stroke-width: 1.0;"/><polygon fill="none" points="192.4428,90.5598,207.389,75.5394,205.0718,96.602,192.4428,90.5598" style="stroke: #A80036; stroke-width: 1.0;"/><path d="M245.0036,93.8827 C252.5786,109.9796 260.7838,127.4157 267.5378,141.7679 " fill="none" style="stroke: #A80036; stroke-width: 1.0;"/><polygon fill="none" points="238.5538,96.6164,236.3715,75.5394,251.2212,90.6552,238.5538,96.6164" style="stroke: #A80036; stroke-width: 1.0;"/></g></svg>