<?xml version="1.0" encoding="UTF-8" standalone="no"?><svg xmlns="http://www.w3.org/2000/svg" xmlns:xlink="http://www.w3.org/1999/xlink" contentScriptType="application/ecmascript" contentStyleType="text/css" height="199px" preserveAspectRatio="none" style="width:562px;height:199px;" version="1.1" viewBox="0 0 562 199" width="562px" zoomAndPan="magnify"><defs><filter height="300%" id="fu2btce" width="300%" x="-1" y="-1"><feGaussianBlur result="blurOut" stdDeviation="2.0"/><feColorMatrix in="blurOut" result="blurOut2" type="matrix" values="0 0 0 0 0 0 0 0 0 0 0 0 0 0 0 0 0 0 .4 0"/><feOffset dx="4.0" dy="4.0" in="blurOut2" result="blurOut3"/><feBlend in="SourceGraphic" in2="blurOut3" mode="normal"/></filter></defs><g><!--class ImageCache--><rect fill="#FEFECE" filter="url(#fu2btce)" height="73.9102" style="stroke: #A80036; stroke-width: 1.5;" width="180" x="67.5" y="8"/><ellipse cx="118.25" cy="24" fill="#B4A7E5" rx="11" ry="11" style="stroke: #A80036; stroke-width: 1.0;"/><path d="M114.6777,20.2651 L114.6777,18.1069 L122.0571,18.1069 L122.0571,20.2651 L119.5918,20.2651 L119.5918,28.3418 L122.0571,28.3418 L122.0571,30.5 L114.6777,30.5 L114.6777,28.3418 L117.1431,28.3418 L117.1431,20.2651 Z "/><text fill="#000000" font-family="sans-serif" font-size="12" font-style="italic" lengthAdjust="spacingAndGlyphs" textLength="70" x="138.75" y="28.5352">ImageCache</text><line style="stroke: #A80036; stroke-width: 1.5;" x1="68.5" x2="246.5" y1="40" y2="40"/><line style="stroke: #A80036; stroke-width: 1.5;" x1="68.5" x2="246.5" y1="48" y2="48"/><ellipse cx="78.5" cy="59.9775" fill="#84BE84" rx="3" ry="3" style="stroke: #038048; stroke-width: 1.0;"/><text fill="#000000" font-family="sans-serif" font-size="11" lengthAdjust="spacingAndGlyphs" textLength="114" x="87.5" y="62.6348">Bitmap get(String url)</text><ellipse cx="78.5" cy="72.9326" fill="#84BE84" rx="3" ry="3" style="stroke: #038048; stroke-width: 1.0;"/><text fill="#000000" font-family="sans-serif" font-size="11" lengthAdjust="spacingAndGlyphs" textLength="154" x="87.5" y="75.5898">void put(String url, Bitmap b)</text><!--class Loader--><rect fill="#FEFECE" filter="url(#fu2btce)" height="60.9551" style="stroke: #A80036; stroke-width: 1.5;" width="146" x="334.5" y="14.5"/><ellipse cx="383.25" cy="30.5" fill="#B4A7E5" rx="11" ry="11" style="stroke: #A80036; stroke-width: 1.0;"/><path d="M379.6777,26.7651 L379.6777,24.6069 L387.0571,24.6069 L387.0571,26.7651 L384.5918,26.7651 L384.5918,34.8418 L387.0571,34.8418 L387.0571,37 L379.6777,37 L379.6777,34.8418 L382.1431,34.8418 L382.1431,26.7651 Z "/><text fill="#000000" font-family="sans-serif" font-size="12" font-style="italic" lengthAdjust="spacingAndGlyphs" textLength="40" x="403.75" y="35.0352">Loader</text><line style="stroke: #A80036; stroke-width: 1.5;" x1="335.5" x2="479.5" y1="46.5" y2="46.5"/><line style="stroke: #A80036; stroke-width: 1.5;" x1="335.5" x2="479.5" y1="54.5" y2="54.5"/><ellipse cx="345.5" cy="66.4775" fill="#84BE84" rx="3" ry="3" style="stroke: #038048; stroke-width: 1.0;"/><text fill="#000000" font-family="sans-serif" font-size="11" lengthAdjust="spacingAndGlyphs" textLength="120" x="354.5" y="69.1348">Bitmap load(String url)</text><!--class MemoryCache--><rect fill="#FEFECE" filter="url(#fu2btce)" height="48" style="stroke: #A80036; stroke-width: 1.5;" width="113" x="6" y="142"/><ellipse cx="21" cy="158" fill="#ADD1B2" rx="11" ry="11" style="stroke: #A80036; stroke-width: 1.0;"/><path d="M23.4731,164.1431 Q22.8921,164.4419 22.2529,164.5913 Q21.6138,164.7407 20.9082,164.7407 Q18.4014,164.7407 17.0815,163.0889 Q15.7617,161.437 15.7617,158.3159 Q15.7617,155.1865 17.0815,153.5347 Q18.4014,151.8828 20.9082,151.8828 Q21.6138,151.8828 22.2612,152.0322 Q22.9087,152.1816 23.4731,152.4805 L23.4731,155.2031 Q22.8423,154.6221 22.2488,154.3523 Q21.6553,154.0825 21.0244,154.0825 Q19.6797,154.0825 18.9949,155.1492 Q18.3101,156.2158 18.3101,158.3159 Q18.3101,160.4077 18.9949,161.4744 Q19.6797,162.541 21.0244,162.541 Q21.6553,162.541 22.2488,162.2712 Q22.8423,162.0015 23.4731,161.4204 Z "/><text fill="#000000" font-family="sans-serif" font-size="12" lengthAdjust="spacingAndGlyphs" textLength="81" x="35" y="162.5352">MemoryCache</text><line style="stroke: #A80036; stroke-width: 1.5;" x1="7" x2="118" y1="174" y2="174"/><line style="stroke: #A80036; stroke-width: 1.5;" x1="7" x2="118" y1="182" y2="182"/><!--class DiskCache--><rect fill="#FEFECE" filter="url(#fu2btce)" height="48" style="stroke: #A80036; stroke-width: 1.5;" width="92" x="154.5" y="142"/><ellipse cx="169.5" cy="158" fill="#ADD1B2" rx="11" ry="11" style="stroke: #A80036; stroke-width: 1.0;"/><path d="M171.9731,164.1431 Q171.3921,164.4419 170.7529,164.5913 Q170.1138,164.7407 169.4082,164.7407 Q166.9014,164.7407 165.5815,163.0889 Q164.2617,161.437 164.2617,158.3159 Q164.2617,155.1865 165.5815,153.5347 Q166.9014,151.8828 169.4082,151.8828 Q170.1138,151.8828 170.7612,152.0322 Q171.4087,152.1816 171.9731,152.4805 L171.9731,155.2031 Q171.3423,154.6221 170.7488,154.3523 Q170.1553,154.0825 169.5244,154.0825 Q168.1797,154.0825 167.4949,155.1492 Q166.8101,156.2158 166.8101,158.3159 Q166.8101,160.4077 167.4949,161.4744 Q168.1797,162.541 169.5244,162.541 Q170.1553,162.541 170.7488,162.2712 Q171.3423,162.0015 171.9731,161.4204 Z "/><text fill="#000000" font-family="sans-serif" font-size="12" lengthAdjust="spacingAndGlyphs" textLength="60" x="183.5" y="162.5352">DiskCache</text><line style="stroke: #A80036; stroke-width: 1.5;" x1="155.5" x2="245.5" y1="174" y2="174"/><line style="stroke: #A80036; stroke-width: 1.5;" x1="155.5" x2="245.5" y1="182" y2="182"/><!--class SyncLoader--><rect fill="#FEFECE" filter="url(#fu2btce)" height="48" style="stroke: #A80036; stroke-width: 1.5;" width="97" x="316" y="142"/><ellipse cx="331" cy="158" fill="#ADD1B2" rx="11" ry="11" style="stroke: #A80036; stroke-width: 1.0;"/><path d="M333.4731,164.1431 Q332.8921,164.4419 332.2529,164.5913 Q331.6138,164.7407 330.9082,164.7407 Q328.4014,164.7407 327.0815,163.0889 Q325.7617,161.437 325.7617,158.3159 Q325.7617,155.1865 327.0815,153.5347 Q328.4014,151.8828 330.9082,151.8828 Q331.6138,151.8828 332.2612,152.0322 Q332.9087,152.1816 333.4731,152.4805 L333.4731,155.2031 Q332.8423,154.6221 332.2488,154.3523 Q331.6553,154.0825 331.0244,154.0825 Q329.6797,154.0825 328.9949,155.1492 Q328.3101,156.2158 328.3101,158.3159 Q328.3101,160.4077 328.9949,161.4744 Q329.6797,162.541 331.0244,162.541 Q331.6553,162.541 332.2488,162.2712 Q332.8423,162.0015 333.4731,161.4204 Z "/><text fill="#000000" font-family="sans-serif" font-size="12" lengthAdjust="spacingAndGlyphs" textLength="65" x="345" y="162.5352">SyncLoader</text><line style="stroke: #A80036; stroke-width: 1.5;" x1="317" x2="412" y1="174" y2="174"/><line style="stroke: #A80036; stroke-width: 1.5;" x1="317" x2="412" y1="182" y2="182"/><!--class AsyncLoader--><rect fill="#FEFECE" filter="url(#fu2btce)" height="48" style="stroke: #A80036; stroke-width: 1.5;" width="105" x="448" y="142"/><ellipse cx="463" cy="158" fill="#ADD1B2" rx="11" ry="11" style="stroke: #A80036; stroke-width: 1.0;"/><path d="M465.4731,164.1431 Q464.8921,164.4419 464.2529,164.5913 Q463.6138,164.7407 462.9082,164.7407 Q460.4014,164.7407 459.0815,163.0889 Q457.7617,161.437 457.7617,158.3159 Q457.7617,155.1865 459.0815,153.5347 Q460.4014,151.8828 462.9082,151.8828 Q463.6138,151.8828 464.2612,152.0322 Q464.9087,152.1816 465.4731,152.4805 L465.4731,155.2031 Q464.8423,154.6221 464.2488,154.3523 Q463.6553,154.0825 463.0244,154.0825 Q461.6797,154.0825 460.9949,155.1492 Q460.3101,156.2158 460.3101,158.3159 Q460.3101,160.4077 460.9949,161.4744 Q461.6797,162.541 463.0244,162.541 Q463.6553,162.541 464.2488,162.2712 Q464.8423,162.0015 465.4731,161.4204 Z "/><text fill="#000000" font-family="sans-serif" font-size="12" lengthAdjust="spacingAndGlyphs" textLength="73" x="477" y="162.5352">AsyncLoader</text><line style="stroke: #A80036; stroke-width: 1.5;" x1="449" x2="552" y1="174" y2="174"/><line style="stroke: #A80036; stroke-width: 1.5;" x1="449" x2="552" y1="182" y2="182"/><path d="M115.5772,98.3965 C103.6166,113.6304 91.1777,129.4737 81.3506,141.9903 " fill="none" style="stroke: #A80036; stroke-width: 1.0;"/><polygon fill="none" points="110.3652,93.6995,128.2217,82.2913,121.3768,102.345,110.3652,93.6995" style="stroke: #A80036; stroke-width: 1.0;"/><path d="M177.5146,101.32 C182.6033,115.6394 187.8035,130.2726 191.9676,141.9903 " fill="none" style="stroke: #A80036; stroke-width: 1.0;"/><polygon fill="none" points="170.8536,103.4807,170.7523,82.2913,184.0454,98.7927,170.8536,103.4807" style="stroke: #A80036; stroke-width: 1.0;"/><path d="M389.8739,94.599 C384.0628,110.9513 377.8612,128.4023 373.0436,141.9587 " fill="none" style="stroke: #A80036; stroke-width: 1.0;"/><polygon fill="none" points="383.3562,92.0348,396.6493,75.5334,396.548,96.7228,383.3562,92.0348" style="stroke: #A80036; stroke-width: 1.0;"/><path d="M443.3528,91.6472 C456.5576,108.8276 470.9729,127.583 482.022,141.9587 " fill="none" style="stroke: #A80036; stroke-width: 1.0;"/><polygon fill="none" points="437.6057,95.6566,430.9678,75.5334,448.7058,87.125,437.6057,95.6566" style="stroke: #A80036; stroke-width: 1.0;"/></g></svg>