<?xml version="1.0" encoding="UTF-8" standalone="no"?><svg xmlns="http://www.w3.org/2000/svg" xmlns:xlink="http://www.w3.org/1999/xlink" contentScriptType="application/ecmascript" contentStyleType="text/css" height="595px" preserveAspectRatio="none" style="width:818px;height:595px;" version="1.1" viewBox="0 0 818 595" width="818px" zoomAndPan="magnify"><defs><filter height="300%" id="feta3gy" width="300%" x="-1" y="-1"><feGaussianBlur result="blurOut" stdDeviation="2.0"/><feColorMatrix in="blurOut" result="blurOut2" type="matrix" values="0 0 0 0 0 0 0 0 0 0 0 0 0 0 0 0 0 0 .4 0"/><feOffset dx="4.0" dy="4.0" in="blurOut2" result="blurOut3"/><feBlend in="SourceGraphic" in2="blurOut3" mode="normal"/></filter></defs><g><ellipse cx="317.625" cy="20" fill="#000000" filter="url(#feta3gy)" rx="10" ry="10" style="stroke: none; stroke-width: 1.0;"/><rect fill="#FEFECE" filter="url(#feta3gy)" height="34.1328" rx="12.5" ry="12.5" style="stroke: #A80036; stroke-width: 1.5;" width="262" x="186.625" y="50"/><text fill="#000000" font-family="sans-serif" font-size="12" lengthAdjust="spacingAndGlyphs" textLength="242" x="196.625" y="71.6016">JVM Thread#dispatchUncaughtException()</text><rect fill="#FEFECE" filter="url(#feta3gy)" height="34.1328" rx="12.5" ry="12.5" style="stroke: #A80036; stroke-width: 1.5;" width="201" x="217.125" y="104.1328"/><text fill="#000000" font-family="sans-serif" font-size="12" lengthAdjust="spacingAndGlyphs" textLength="181" x="227.125" y="125.7344">getUncaughtExceptionHandler()</text><polygon fill="#FEFECE" filter="url(#feta3gy)" points="225.625,158.2656,409.625,158.2656,421.625,170.2656,409.625,182.2656,225.625,182.2656,213.625,170.2656,225.625,158.2656" style="stroke: #A80036; stroke-width: 1.5;"/><text fill="#000000" font-family="sans-serif" font-size="11" lengthAdjust="spacingAndGlyphs" textLength="184" x="225.625" y="174.4229">uncaughtExceptionHandler != null</text><text fill="#000000" font-family="sans-serif" font-size="11" lengthAdjust="spacingAndGlyphs" textLength="7" x="206.625" y="167.9453">Y</text><text fill="#000000" font-family="sans-serif" font-size="11" lengthAdjust="spacingAndGlyphs" textLength="8" x="421.625" y="167.9453">N</text><rect fill="#FEFECE" filter="url(#feta3gy)" height="34.1328" rx="12.5" ry="12.5" style="stroke: #A80036; stroke-width: 1.5;" width="176" x="10" y="192.2656"/><text fill="#000000" font-family="sans-serif" font-size="12" lengthAdjust="spacingAndGlyphs" textLength="156" x="20" y="213.8672">handler.uncaughtException</text><rect fill="#FEFECE" filter="url(#feta3gy)" height="34.1328" rx="12.5" ry="12.5" style="stroke: #A80036; stroke-width: 1.5;" width="222" x="426.25" y="192.2656"/><text fill="#000000" font-family="sans-serif" font-size="12" lengthAdjust="spacingAndGlyphs" textLength="202" x="436.25" y="213.8672">ThreadGroup#uncaughtException()</text><rect fill="#FEFECE" filter="url(#feta3gy)" height="34.1328" rx="12.5" ry="12.5" style="stroke: #A80036; stroke-width: 1.5;" width="178" x="448.25" y="290.3984"/><text fill="#000000" font-family="sans-serif" font-size="12" lengthAdjust="spacingAndGlyphs" textLength="158" x="458.25" y="312">parent.uncaughtException()</text><polygon fill="#FEFECE" filter="url(#feta3gy)" points="500.75,246.3984,573.75,246.3984,585.75,258.3984,573.75,270.3984,500.75,270.3984,488.75,258.3984,500.75,246.3984" style="stroke: #A80036; stroke-width: 1.5;"/><text fill="#000000" font-family="sans-serif" font-size="11" lengthAdjust="spacingAndGlyphs" textLength="73" x="500.75" y="262.5557">parent != null</text><polygon fill="#FEFECE" filter="url(#feta3gy)" points="405.75,366.5313,668.75,366.5313,680.75,378.5313,668.75,390.5313,405.75,390.5313,393.75,378.5313,405.75,366.5313" style="stroke: #A80036; stroke-width: 1.5;"/><text fill="#000000" font-family="sans-serif" font-size="11" lengthAdjust="spacingAndGlyphs" textLength="263" x="405.75" y="382.6885">Thread.defaultUncaughtExceptionHandler != null</text><text fill="#000000" font-family="sans-serif" font-size="11" lengthAdjust="spacingAndGlyphs" textLength="7" x="386.75" y="376.2109">Y</text><text fill="#000000" font-family="sans-serif" font-size="11" lengthAdjust="spacingAndGlyphs" textLength="8" x="680.75" y="376.2109">N</text><rect fill="#FEFECE" filter="url(#feta3gy)" height="34.1328" rx="12.5" ry="12.5" style="stroke: #A80036; stroke-width: 1.5;" width="335" x="216" y="400.5313"/><text fill="#000000" font-family="sans-serif" font-size="12" lengthAdjust="spacingAndGlyphs" textLength="315" x="226" y="422.1328">defaultUncaughtExceptionHandler.uncaughtException()</text><rect fill="#FEFECE" filter="url(#feta3gy)" height="34.1328" rx="12.5" ry="12.5" style="stroke: #A80036; stroke-width: 1.5;" width="240" x="571" y="400.5313"/><text fill="#000000" font-family="sans-serif" font-size="12" lengthAdjust="spacingAndGlyphs" textLength="220" x="581" y="422.1328">System.err.print("Exception in thread")</text><rect fill="#FEFECE" filter="url(#feta3gy)" height="34.1328" rx="12.5" ry="12.5" style="stroke: #A80036; stroke-width: 1.5;" width="129" x="626.5" y="454.6641"/><text fill="#000000" font-family="sans-serif" font-size="12" lengthAdjust="spacingAndGlyphs" textLength="109" x="636.5" y="476.2656">e.printStackTrace()</text><polygon fill="#FEFECE" filter="url(#feta3gy)" points="537.25,494.7969,549.25,506.7969,537.25,518.7969,525.25,506.7969,537.25,494.7969" style="stroke: #A80036; stroke-width: 1.5;"/><polygon fill="#FEFECE" filter="url(#feta3gy)" points="317.625,524.7969,329.625,536.7969,317.625,548.7969,305.625,536.7969,317.625,524.7969" style="stroke: #A80036; stroke-width: 1.5;"/><ellipse cx="317.625" cy="578.7969" fill="none" filter="url(#feta3gy)" rx="10" ry="10" style="stroke: #000000; stroke-width: 1.0;"/><ellipse cx="318.125" cy="579.2969" fill="#000000" filter="url(#feta3gy)" rx="6" ry="6" style="stroke: none; stroke-width: 1.0;"/><line style="stroke: #A80036; stroke-width: 1.5;" x1="317.625" x2="317.625" y1="30" y2="50"/><polygon fill="#A80036" points="313.625,40,317.625,50,321.625,40,317.625,44" style="stroke: #A80036; stroke-width: 1.0;"/><line style="stroke: #A80036; stroke-width: 1.5;" x1="317.625" x2="317.625" y1="84.1328" y2="104.1328"/><polygon fill="#A80036" points="313.625,94.1328,317.625,104.1328,321.625,94.1328,317.625,98.1328" style="stroke: #A80036; stroke-width: 1.0;"/><line style="stroke: #A80036; stroke-width: 1.5;" x1="537.25" x2="537.25" y1="270.3984" y2="290.3984"/><polygon fill="#A80036" points="533.25,280.3984,537.25,290.3984,541.25,280.3984,537.25,284.3984" style="stroke: #A80036; stroke-width: 1.0;"/><line style="stroke: #A80036; stroke-width: 1.5;" x1="537.25" x2="537.25" y1="324.5313" y2="334.5313"/><line style="stroke: #A80036; stroke-width: 1.5;" x1="537.25" x2="638.25" y1="334.5313" y2="334.5313"/><polygon fill="#A80036" points="634.25,305.4648,638.25,295.4648,642.25,305.4648,638.25,301.4648" style="stroke: #A80036; stroke-width: 1.5;"/><line style="stroke: #A80036; stroke-width: 1.5;" x1="638.25" x2="638.25" y1="258.3984" y2="334.5313"/><line style="stroke: #A80036; stroke-width: 1.5;" x1="638.25" x2="585.75" y1="258.3984" y2="258.3984"/><polygon fill="#A80036" points="595.75,254.3984,585.75,258.3984,595.75,262.3984,591.75,258.3984" style="stroke: #A80036; stroke-width: 1.0;"/><line style="stroke: #A80036; stroke-width: 1.5;" x1="488.75" x2="436.25" y1="258.3984" y2="258.3984"/><polygon fill="#A80036" points="432.25,291.4648,436.25,301.4648,440.25,291.4648,436.25,295.4648" style="stroke: #A80036; stroke-width: 1.5;"/><line style="stroke: #A80036; stroke-width: 1.5;" x1="436.25" x2="436.25" y1="258.3984" y2="346.5313"/><line style="stroke: #A80036; stroke-width: 1.5;" x1="436.25" x2="537.25" y1="346.5313" y2="346.5313"/><line style="stroke: #A80036; stroke-width: 1.5;" x1="537.25" x2="537.25" y1="346.5313" y2="366.5313"/><polygon fill="#A80036" points="533.25,356.5313,537.25,366.5313,541.25,356.5313,537.25,360.5313" style="stroke: #A80036; stroke-width: 1.0;"/><line style="stroke: #A80036; stroke-width: 1.5;" x1="537.25" x2="537.25" y1="226.3984" y2="246.3984"/><polygon fill="#A80036" points="533.25,236.3984,537.25,246.3984,541.25,236.3984,537.25,240.3984" style="stroke: #A80036; stroke-width: 1.0;"/><line style="stroke: #A80036; stroke-width: 1.5;" x1="691" x2="691" y1="434.6641" y2="454.6641"/><polygon fill="#A80036" points="687,444.6641,691,454.6641,695,444.6641,691,448.6641" style="stroke: #A80036; stroke-width: 1.0;"/><line style="stroke: #A80036; stroke-width: 1.5;" x1="393.75" x2="383.5" y1="378.5313" y2="378.5313"/><line style="stroke: #A80036; stroke-width: 1.5;" x1="383.5" x2="383.5" y1="378.5313" y2="400.5313"/><polygon fill="#A80036" points="379.5,390.5313,383.5,400.5313,387.5,390.5313,383.5,394.5313" style="stroke: #A80036; stroke-width: 1.0;"/><line style="stroke: #A80036; stroke-width: 1.5;" x1="680.75" x2="691" y1="378.5313" y2="378.5313"/><line style="stroke: #A80036; stroke-width: 1.5;" x1="691" x2="691" y1="378.5313" y2="400.5313"/><polygon fill="#A80036" points="687,390.5313,691,400.5313,695,390.5313,691,394.5313" style="stroke: #A80036; stroke-width: 1.0;"/><line style="stroke: #A80036; stroke-width: 1.5;" x1="383.5" x2="383.5" y1="434.6641" y2="506.7969"/><line style="stroke: #A80036; stroke-width: 1.5;" x1="383.5" x2="525.25" y1="506.7969" y2="506.7969"/><polygon fill="#A80036" points="515.25,502.7969,525.25,506.7969,515.25,510.7969,519.25,506.7969" style="stroke: #A80036; stroke-width: 1.0;"/><line style="stroke: #A80036; stroke-width: 1.5;" x1="691" x2="691" y1="488.7969" y2="506.7969"/><line style="stroke: #A80036; stroke-width: 1.5;" x1="691" x2="549.25" y1="506.7969" y2="506.7969"/><polygon fill="#A80036" points="559.25,502.7969,549.25,506.7969,559.25,510.7969,555.25,506.7969" style="stroke: #A80036; stroke-width: 1.0;"/><line style="stroke: #A80036; stroke-width: 1.5;" x1="213.625" x2="98" y1="170.2656" y2="170.2656"/><line style="stroke: #A80036; stroke-width: 1.5;" x1="98" x2="98" y1="170.2656" y2="192.2656"/><polygon fill="#A80036" points="94,182.2656,98,192.2656,102,182.2656,98,186.2656" style="stroke: #A80036; stroke-width: 1.0;"/><line style="stroke: #A80036; stroke-width: 1.5;" x1="421.625" x2="537.25" y1="170.2656" y2="170.2656"/><line style="stroke: #A80036; stroke-width: 1.5;" x1="537.25" x2="537.25" y1="170.2656" y2="192.2656"/><polygon fill="#A80036" points="533.25,182.2656,537.25,192.2656,541.25,182.2656,537.25,186.2656" style="stroke: #A80036; stroke-width: 1.0;"/><line style="stroke: #A80036; stroke-width: 1.5;" x1="98" x2="98" y1="226.3984" y2="536.7969"/><line style="stroke: #A80036; stroke-width: 1.5;" x1="98" x2="305.625" y1="536.7969" y2="536.7969"/><polygon fill="#A80036" points="295.625,532.7969,305.625,536.7969,295.625,540.7969,299.625,536.7969" style="stroke: #A80036; stroke-width: 1.0;"/><line style="stroke: #A80036; stroke-width: 1.5;" x1="537.25" x2="537.25" y1="518.7969" y2="536.7969"/><line style="stroke: #A80036; stroke-width: 1.5;" x1="537.25" x2="329.625" y1="536.7969" y2="536.7969"/><polygon fill="#A80036" points="339.625,532.7969,329.625,536.7969,339.625,540.7969,335.625,536.7969" style="stroke: #A80036; stroke-width: 1.0;"/><line style="stroke: #A80036; stroke-width: 1.5;" x1="317.625" x2="317.625" y1="138.2656" y2="158.2656"/><polygon fill="#A80036" points="313.625,148.2656,317.625,158.2656,321.625,148.2656,317.625,152.2656" style="stroke: #A80036; stroke-width: 1.0;"/><line style="stroke: #A80036; stroke-width: 1.5;" x1="317.625" x2="317.625" y1="548.7969" y2="568.7969"/><polygon fill="#A80036" points="313.625,558.7969,317.625,568.7969,321.625,558.7969,317.625,562.7969" style="stroke: #A80036; stroke-width: 1.0;"/></g></svg>