<?xml version="1.0" encoding="UTF-8" standalone="no"?><svg xmlns="http://www.w3.org/2000/svg" xmlns:xlink="http://www.w3.org/1999/xlink" contentScriptType="application/ecmascript" contentStyleType="text/css" height="1581px" preserveAspectRatio="none" style="width:4027px;height:1581px;" version="1.1" viewBox="0 0 4027 1581" width="4027px" zoomAndPan="magnify"><defs><filter height="300%" id="f9fl4dh" width="300%" x="-1" y="-1"><feGaussianBlur result="blurOut" stdDeviation="2.0"/><feColorMatrix in="blurOut" result="blurOut2" type="matrix" values="0 0 0 0 0 0 0 0 0 0 0 0 0 0 0 0 0 0 .4 0"/><feOffset dx="4.0" dy="4.0" in="blurOut2" result="blurOut3"/><feBlend in="SourceGraphic" in2="blurOut3" mode="normal"/></filter></defs><g><rect fill="#FFFFFF" filter="url(#f9fl4dh)" height="34.3105" style="stroke: #A80036; stroke-width: 1.0;" width="10" x="62.5" y="77.4883"/><rect fill="#FFFFFF" filter="url(#f9fl4dh)" height="71.6211" style="stroke: #A80036; stroke-width: 1.0;" width="10" x="215" y="111.7988"/><rect fill="#FFFFFF" filter="url(#f9fl4dh)" height="58.6211" style="stroke: #A80036; stroke-width: 1.0;" width="10" x="215" y="300.6621"/><rect fill="#FFFFFF" filter="url(#f9fl4dh)" height="131.9316" style="stroke: #A80036; stroke-width: 1.0;" width="10" x="2032" y="447.2148"/><rect fill="#FFFFFF" filter="url(#f9fl4dh)" height="30" style="stroke: #A80036; stroke-width: 1.0;" width="10" x="2214.5" y="476.5254"/><rect fill="#FFFFFF" filter="url(#f9fl4dh)" height="30" style="stroke: #A80036; stroke-width: 1.0;" width="10" x="2214.5" y="1480.2207"/><rect fill="#FFFFFF" filter="url(#f9fl4dh)" height="14.3105" style="stroke: #A80036; stroke-width: 1.0;" width="10" x="2438" y="535.8359"/><rect fill="#FFFFFF" filter="url(#f9fl4dh)" height="570.6582" style="stroke: #A80036; stroke-width: 1.0;" width="10" x="2866" y="608.457"/><rect fill="#FFFFFF" filter="url(#f9fl4dh)" height="29.3105" style="stroke: #A80036; stroke-width: 1.0;" width="10" x="3202" y="1179.1152"/><rect fill="#FFFFFF" filter="url(#f9fl4dh)" height="317.1055" style="stroke: #A80036; stroke-width: 1.0;" width="10" x="3347" y="1208.4258"/><rect fill="#FFFFFF" filter="url(#f9fl4dh)" height="103.9316" style="stroke: #000000; stroke-width: 2.0;" width="358.5" x="2760.5" y="877.6309"/><rect fill="#FFFFFF" height="44.3105" style="stroke: none; stroke-width: 1.0;" width="358.5" x="2760.5" y="937.252"/><rect fill="#FFFFFF" filter="url(#f9fl4dh)" height="46.6211" style="stroke: #000000; stroke-width: 2.0;" width="859" x="2122.5" y="1037.873"/><rect fill="#FFFFFF" filter="url(#f9fl4dh)" height="384.7266" style="stroke: #000000; stroke-width: 2.0;" width="1905.5" x="2112.5" y="1140.8047"/><rect fill="#FFFFFF" filter="url(#f9fl4dh)" height="177.5527" style="stroke: #000000; stroke-width: 2.0;" width="1885.5" x="2122.5" y="1340.9785"/><line style="stroke: #A80036; stroke-width: 1.0; stroke-dasharray: 5.0,5.0;" x1="67" x2="67" y1="38.4883" y2="1542.5313"/><line style="stroke: #A80036; stroke-width: 1.0; stroke-dasharray: 5.0,5.0;" x1="220" x2="220" y1="38.4883" y2="1542.5313"/><line style="stroke: #A80036; stroke-width: 1.0; stroke-dasharray: 5.0,5.0;" x1="471" x2="471" y1="38.4883" y2="1542.5313"/><line style="stroke: #A80036; stroke-width: 1.0; stroke-dasharray: 5.0,5.0;" x1="648" x2="648" y1="38.4883" y2="1542.5313"/><line style="stroke: #A80036; stroke-width: 1.0; stroke-dasharray: 5.0,5.0;" x1="862.5" x2="862.5" y1="38.4883" y2="1542.5313"/><line style="stroke: #A80036; stroke-width: 1.0; stroke-dasharray: 5.0,5.0;" x1="1033.5" x2="1033.5" y1="38.4883" y2="1542.5313"/><line style="stroke: #A80036; stroke-width: 1.0; stroke-dasharray: 5.0,5.0;" x1="1192.5" x2="1192.5" y1="38.4883" y2="1542.5313"/><line style="stroke: #A80036; stroke-width: 1.0; stroke-dasharray: 5.0,5.0;" x1="1368.5" x2="1368.5" y1="38.4883" y2="1542.5313"/><line style="stroke: #A80036; stroke-width: 1.0; stroke-dasharray: 5.0,5.0;" x1="1611.5" x2="1611.5" y1="38.4883" y2="1542.5313"/><line style="stroke: #A80036; stroke-width: 1.0; stroke-dasharray: 5.0,5.0;" x1="1848.5" x2="1848.5" y1="38.4883" y2="1542.5313"/><line style="stroke: #A80036; stroke-width: 1.0; stroke-dasharray: 5.0,5.0;" x1="2036.5" x2="2036.5" y1="38.4883" y2="1542.5313"/><line style="stroke: #A80036; stroke-width: 1.0; stroke-dasharray: 5.0,5.0;" x1="2219.5" x2="2219.5" y1="38.4883" y2="1542.5313"/><line style="stroke: #A80036; stroke-width: 1.0; stroke-dasharray: 5.0,5.0;" x1="2442.5" x2="2442.5" y1="38.4883" y2="1542.5313"/><line style="stroke: #A80036; stroke-width: 1.0; stroke-dasharray: 5.0,5.0;" x1="2669.5" x2="2669.5" y1="38.4883" y2="1542.5313"/><line style="stroke: #A80036; stroke-width: 1.0; stroke-dasharray: 5.0,5.0;" x1="2870.5" x2="2870.5" y1="38.4883" y2="1542.5313"/><line style="stroke: #A80036; stroke-width: 1.0; stroke-dasharray: 5.0,5.0;" x1="3207" x2="3207" y1="38.4883" y2="1542.5313"/><line style="stroke: #A80036; stroke-width: 1.0; stroke-dasharray: 5.0,5.0;" x1="3352" x2="3352" y1="38.4883" y2="1542.5313"/><line style="stroke: #A80036; stroke-width: 1.0; stroke-dasharray: 5.0,5.0;" x1="3516" x2="3516" y1="38.4883" y2="1542.5313"/><line style="stroke: #A80036; stroke-width: 1.0; stroke-dasharray: 5.0,5.0;" x1="3691" x2="3691" y1="38.4883" y2="1542.5313"/><line style="stroke: #A80036; stroke-width: 1.0; stroke-dasharray: 5.0,5.0;" x1="3823" x2="3823" y1="38.4883" y2="1542.5313"/><line style="stroke: #A80036; stroke-width: 1.0; stroke-dasharray: 5.0,5.0;" x1="3941" x2="3941" y1="38.4883" y2="1542.5313"/><rect fill="#FEFECE" filter="url(#f9fl4dh)" height="30.4883" style="stroke: #A80036; stroke-width: 1.5;" width="115" x="8" y="3"/><text fill="#000000" font-family="sans-serif" font-size="14" lengthAdjust="spacingAndGlyphs" textLength="101" x="15" y="23.5352">DownloadTask</text><rect fill="#FEFECE" filter="url(#f9fl4dh)" height="30.4883" style="stroke: #A80036; stroke-width: 1.5;" width="115" x="8" y="1541.5313"/><text fill="#000000" font-family="sans-serif" font-size="14" lengthAdjust="spacingAndGlyphs" textLength="101" x="15" y="1562.0664">DownloadTask</text><rect fill="#FEFECE" filter="url(#f9fl4dh)" height="30.4883" style="stroke: #A80036; stroke-width: 1.5;" width="162" x="137" y="3"/><text fill="#000000" font-family="sans-serif" font-size="14" lengthAdjust="spacingAndGlyphs" textLength="148" x="144" y="23.5352">DownloadTaskHunter</text><rect fill="#FEFECE" filter="url(#f9fl4dh)" height="30.4883" style="stroke: #A80036; stroke-width: 1.5;" width="162" x="137" y="1541.5313"/><text fill="#000000" font-family="sans-serif" font-size="14" lengthAdjust="spacingAndGlyphs" textLength="148" x="144" y="1562.0664">DownloadTaskHunter</text><rect fill="#FEFECE" filter="url(#f9fl4dh)" height="30.4883" style="stroke: #A80036; stroke-width: 1.5;" width="202" x="368" y="3"/><text fill="#000000" font-family="sans-serif" font-size="14" lengthAdjust="spacingAndGlyphs" textLength="188" x="375" y="23.5352">FileDownloadTaskLauncher</text><rect fill="#FEFECE" filter="url(#f9fl4dh)" height="30.4883" style="stroke: #A80036; stroke-width: 1.5;" width="202" x="368" y="1541.5313"/><text fill="#000000" font-family="sans-serif" font-size="14" lengthAdjust="spacingAndGlyphs" textLength="188" x="375" y="1562.0664">FileDownloadTaskLauncher</text><rect fill="#FEFECE" filter="url(#f9fl4dh)" height="30.4883" style="stroke: #A80036; stroke-width: 1.5;" width="125" x="584" y="3"/><text fill="#000000" font-family="sans-serif" font-size="14" lengthAdjust="spacingAndGlyphs" textLength="111" x="591" y="23.5352">LaunchTaskPool</text><rect fill="#FEFECE" filter="url(#f9fl4dh)" height="30.4883" style="stroke: #A80036; stroke-width: 1.5;" width="125" x="584" y="1541.5313"/><text fill="#000000" font-family="sans-serif" font-size="14" lengthAdjust="spacingAndGlyphs" textLength="111" x="591" y="1562.0664">LaunchTaskPool</text><rect fill="#FEFECE" filter="url(#f9fl4dh)" height="30.4883" style="stroke: #A80036; stroke-width: 1.5;" width="154" x="783.5" y="3"/><text fill="#000000" font-family="sans-serif" font-size="14" lengthAdjust="spacingAndGlyphs" textLength="140" x="790.5" y="23.5352">ThreadPoolExecutor</text><rect fill="#FEFECE" filter="url(#f9fl4dh)" height="30.4883" style="stroke: #A80036; stroke-width: 1.5;" width="154" x="783.5" y="1541.5313"/><text fill="#000000" font-family="sans-serif" font-size="14" lengthAdjust="spacingAndGlyphs" textLength="140" x="790.5" y="1562.0664">ThreadPoolExecutor</text><rect fill="#FEFECE" filter="url(#f9fl4dh)" height="30.4883" style="stroke: #A80036; stroke-width: 1.5;" width="160" x="951.5" y="3"/><text fill="#000000" font-family="sans-serif" font-size="14" lengthAdjust="spacingAndGlyphs" textLength="146" x="958.5" y="23.5352">LaunchTaskRunnable</text><rect fill="#FEFECE" filter="url(#f9fl4dh)" height="30.4883" style="stroke: #A80036; stroke-width: 1.5;" width="160" x="951.5" y="1541.5313"/><text fill="#000000" font-family="sans-serif" font-size="14" lengthAdjust="spacingAndGlyphs" textLength="146" x="958.5" y="1562.0664">LaunchTaskRunnable</text><rect fill="#FEFECE" filter="url(#f9fl4dh)" height="30.4883" style="stroke: #A80036; stroke-width: 1.5;" width="130" x="1125.5" y="3"/><text fill="#000000" font-family="sans-serif" font-size="14" lengthAdjust="spacingAndGlyphs" textLength="116" x="1132.5" y="23.5352">FileDownloadList</text><rect fill="#FEFECE" filter="url(#f9fl4dh)" height="30.4883" style="stroke: #A80036; stroke-width: 1.5;" width="130" x="1125.5" y="1541.5313"/><text fill="#000000" font-family="sans-serif" font-size="14" lengthAdjust="spacingAndGlyphs" textLength="116" x="1132.5" y="1562.0664">FileDownloadList</text><rect fill="#FEFECE" filter="url(#f9fl4dh)" height="30.4883" style="stroke: #A80036; stroke-width: 1.5;" width="194" x="1269.5" y="3"/><text fill="#000000" font-family="sans-serif" font-size="14" lengthAdjust="spacingAndGlyphs" textLength="180" x="1276.5" y="23.5352">FileDownloadServiceProxy</text><rect fill="#FEFECE" filter="url(#f9fl4dh)" height="30.4883" style="stroke: #A80036; stroke-width: 1.5;" width="194" x="1269.5" y="1541.5313"/><text fill="#000000" font-family="sans-serif" font-size="14" lengthAdjust="spacingAndGlyphs" textLength="180" x="1276.5" y="1562.0664">FileDownloadServiceProxy</text><rect fill="#FEFECE" filter="url(#f9fl4dh)" height="30.4883" style="stroke: #A80036; stroke-width: 1.5;" width="264" x="1477.5" y="3"/><text fill="#000000" font-family="sans-serif" font-size="14" lengthAdjust="spacingAndGlyphs" textLength="250" x="1484.5" y="23.5352">FileDownloadServiceSharedTransmit</text><rect fill="#FEFECE" filter="url(#f9fl4dh)" height="30.4883" style="stroke: #A80036; stroke-width: 1.5;" width="264" x="1477.5" y="1541.5313"/><text fill="#000000" font-family="sans-serif" font-size="14" lengthAdjust="spacingAndGlyphs" textLength="250" x="1484.5" y="1562.0664">FileDownloadServiceSharedTransmit</text><rect fill="#FEFECE" filter="url(#f9fl4dh)" height="30.4883" style="stroke: #A80036; stroke-width: 1.5;" width="182" x="1755.5" y="3"/><text fill="#000000" font-family="sans-serif" font-size="14" lengthAdjust="spacingAndGlyphs" textLength="168" x="1762.5" y="23.5352">FDServiceSharedHandler</text><rect fill="#FEFECE" filter="url(#f9fl4dh)" height="30.4883" style="stroke: #A80036; stroke-width: 1.5;" width="182" x="1755.5" y="1541.5313"/><text fill="#000000" font-family="sans-serif" font-size="14" lengthAdjust="spacingAndGlyphs" textLength="168" x="1762.5" y="1562.0664">FDServiceSharedHandler</text><rect fill="#FEFECE" filter="url(#f9fl4dh)" height="30.4883" style="stroke: #A80036; stroke-width: 1.5;" width="167" x="1951.5" y="3"/><text fill="#000000" font-family="sans-serif" font-size="14" lengthAdjust="spacingAndGlyphs" textLength="153" x="1958.5" y="23.5352">FileDownloadManager</text><rect fill="#FEFECE" filter="url(#f9fl4dh)" height="30.4883" style="stroke: #A80036; stroke-width: 1.5;" width="167" x="1951.5" y="1541.5313"/><text fill="#000000" font-family="sans-serif" font-size="14" lengthAdjust="spacingAndGlyphs" textLength="153" x="1958.5" y="1562.0664">FileDownloadManager</text><rect fill="#FEFECE" filter="url(#f9fl4dh)" height="30.4883" style="stroke: #A80036; stroke-width: 1.5;" width="170" x="2132.5" y="3"/><text fill="#000000" font-family="sans-serif" font-size="14" lengthAdjust="spacingAndGlyphs" textLength="156" x="2139.5" y="23.5352">FileDownloadDatabase</text><rect fill="#FEFECE" filter="url(#f9fl4dh)" height="30.4883" style="stroke: #A80036; stroke-width: 1.5;" width="170" x="2132.5" y="1541.5313"/><text fill="#000000" font-family="sans-serif" font-size="14" lengthAdjust="spacingAndGlyphs" textLength="156" x="2139.5" y="1562.0664">FileDownloadDatabase</text><rect fill="#FEFECE" filter="url(#f9fl4dh)" height="30.4883" style="stroke: #A80036; stroke-width: 1.5;" width="249" x="2316.5" y="3"/><text fill="#000000" font-family="sans-serif" font-size="14" lengthAdjust="spacingAndGlyphs" textLength="235" x="2323.5" y="23.5352">DownloadLaunchRunnable.Builder</text><rect fill="#FEFECE" filter="url(#f9fl4dh)" height="30.4883" style="stroke: #A80036; stroke-width: 1.5;" width="249" x="2316.5" y="1541.5313"/><text fill="#000000" font-family="sans-serif" font-size="14" lengthAdjust="spacingAndGlyphs" textLength="235" x="2323.5" y="1562.0664">DownloadLaunchRunnable.Builder</text><rect fill="#FEFECE" filter="url(#f9fl4dh)" height="30.4883" style="stroke: #A80036; stroke-width: 1.5;" width="177" x="2579.5" y="3"/><text fill="#000000" font-family="sans-serif" font-size="14" lengthAdjust="spacingAndGlyphs" textLength="163" x="2586.5" y="23.5352">FileDownloadTreadPool</text><rect fill="#FEFECE" filter="url(#f9fl4dh)" height="30.4883" style="stroke: #A80036; stroke-width: 1.5;" width="177" x="2579.5" y="1541.5313"/><text fill="#000000" font-family="sans-serif" font-size="14" lengthAdjust="spacingAndGlyphs" textLength="163" x="2586.5" y="1562.0664">FileDownloadTreadPool</text><rect fill="#FEFECE" filter="url(#f9fl4dh)" height="30.4883" style="stroke: #A80036; stroke-width: 1.5;" width="197" x="2770.5" y="3"/><text fill="#000000" font-family="sans-serif" font-size="14" lengthAdjust="spacingAndGlyphs" textLength="183" x="2777.5" y="23.5352">DownloadLaunchRunnable</text><rect fill="#FEFECE" filter="url(#f9fl4dh)" height="30.4883" style="stroke: #A80036; stroke-width: 1.5;" width="197" x="2770.5" y="1541.5313"/><text fill="#000000" font-family="sans-serif" font-size="14" lengthAdjust="spacingAndGlyphs" textLength="183" x="2777.5" y="1562.0664">DownloadLaunchRunnable</text><rect fill="#FEFECE" filter="url(#f9fl4dh)" height="30.4883" style="stroke: #A80036; stroke-width: 1.5;" width="148" x="3131" y="3"/><text fill="#000000" font-family="sans-serif" font-size="14" lengthAdjust="spacingAndGlyphs" textLength="134" x="3138" y="23.5352">DownloadRunnable</text><rect fill="#FEFECE" filter="url(#f9fl4dh)" height="30.4883" style="stroke: #A80036; stroke-width: 1.5;" width="148" x="3131" y="1541.5313"/><text fill="#000000" font-family="sans-serif" font-size="14" lengthAdjust="spacingAndGlyphs" textLength="134" x="3138" y="1562.0664">DownloadRunnable</text><rect fill="#FEFECE" filter="url(#f9fl4dh)" height="30.4883" style="stroke: #A80036; stroke-width: 1.5;" width="114" x="3293" y="3"/><text fill="#000000" font-family="sans-serif" font-size="14" lengthAdjust="spacingAndGlyphs" textLength="100" x="3300" y="23.5352">FetchDataTask</text><rect fill="#FEFECE" filter="url(#f9fl4dh)" height="30.4883" style="stroke: #A80036; stroke-width: 1.5;" width="114" x="3293" y="1541.5313"/><text fill="#000000" font-family="sans-serif" font-size="14" lengthAdjust="spacingAndGlyphs" textLength="100" x="3300" y="1562.0664">FetchDataTask</text><rect fill="#FEFECE" filter="url(#f9fl4dh)" height="30.4883" style="stroke: #A80036; stroke-width: 1.5;" width="186" x="3421" y="3"/><text fill="#000000" font-family="sans-serif" font-size="14" lengthAdjust="spacingAndGlyphs" textLength="172" x="3428" y="23.5352">FileDownloadConnection</text><rect fill="#FEFECE" filter="url(#f9fl4dh)" height="30.4883" style="stroke: #A80036; stroke-width: 1.5;" width="186" x="3421" y="1541.5313"/><text fill="#000000" font-family="sans-serif" font-size="14" lengthAdjust="spacingAndGlyphs" textLength="172" x="3428" y="1562.0664">FileDownloadConnection</text><rect fill="#FEFECE" filter="url(#f9fl4dh)" height="30.4883" style="stroke: #A80036; stroke-width: 1.5;" width="137" x="3621" y="3"/><text fill="#000000" font-family="sans-serif" font-size="14" lengthAdjust="spacingAndGlyphs" textLength="123" x="3628" y="23.5352">FileDownloadUtils</text><rect fill="#FEFECE" filter="url(#f9fl4dh)" height="30.4883" style="stroke: #A80036; stroke-width: 1.5;" width="137" x="3621" y="1541.5313"/><text fill="#000000" font-family="sans-serif" font-size="14" lengthAdjust="spacingAndGlyphs" textLength="123" x="3628" y="1562.0664">FileDownloadUtils</text><rect fill="#FEFECE" filter="url(#f9fl4dh)" height="30.4883" style="stroke: #A80036; stroke-width: 1.5;" width="98" x="3772" y="3"/><text fill="#000000" font-family="sans-serif" font-size="14" lengthAdjust="spacingAndGlyphs" textLength="84" x="3779" y="23.5352">InputStream</text><rect fill="#FEFECE" filter="url(#f9fl4dh)" height="30.4883" style="stroke: #A80036; stroke-width: 1.5;" width="98" x="3772" y="1541.5313"/><text fill="#000000" font-family="sans-serif" font-size="14" lengthAdjust="spacingAndGlyphs" textLength="84" x="3779" y="1562.0664">InputStream</text><rect fill="#FEFECE" filter="url(#f9fl4dh)" height="30.4883" style="stroke: #A80036; stroke-width: 1.5;" width="110" x="3884" y="3"/><text fill="#000000" font-family="sans-serif" font-size="14" lengthAdjust="spacingAndGlyphs" textLength="96" x="3891" y="23.5352">OutputStream</text><rect fill="#FEFECE" filter="url(#f9fl4dh)" height="30.4883" style="stroke: #A80036; stroke-width: 1.5;" width="110" x="3884" y="1541.5313"/><text fill="#000000" font-family="sans-serif" font-size="14" lengthAdjust="spacingAndGlyphs" textLength="96" x="3891" y="1562.0664">OutputStream</text><rect fill="#FFFFFF" filter="url(#f9fl4dh)" height="34.3105" style="stroke: #A80036; stroke-width: 1.0;" width="10" x="62.5" y="77.4883"/><rect fill="#FFFFFF" filter="url(#f9fl4dh)" height="71.6211" style="stroke: #A80036; stroke-width: 1.0;" width="10" x="215" y="111.7988"/><rect fill="#FFFFFF" filter="url(#f9fl4dh)" height="58.6211" style="stroke: #A80036; stroke-width: 1.0;" width="10" x="215" y="300.6621"/><rect fill="#FFFFFF" filter="url(#f9fl4dh)" height="131.9316" style="stroke: #A80036; stroke-width: 1.0;" width="10" x="2032" y="447.2148"/><rect fill="#FFFFFF" filter="url(#f9fl4dh)" height="30" style="stroke: #A80036; stroke-width: 1.0;" width="10" x="2214.5" y="476.5254"/><rect fill="#FFFFFF" filter="url(#f9fl4dh)" height="30" style="stroke: #A80036; stroke-width: 1.0;" width="10" x="2214.5" y="1480.2207"/><rect fill="#FFFFFF" filter="url(#f9fl4dh)" height="14.3105" style="stroke: #A80036; stroke-width: 1.0;" width="10" x="2438" y="535.8359"/><rect fill="#FFFFFF" filter="url(#f9fl4dh)" height="570.6582" style="stroke: #A80036; stroke-width: 1.0;" width="10" x="2866" y="608.457"/><rect fill="#FFFFFF" filter="url(#f9fl4dh)" height="29.3105" style="stroke: #A80036; stroke-width: 1.0;" width="10" x="3202" y="1179.1152"/><rect fill="#FFFFFF" filter="url(#f9fl4dh)" height="317.1055" style="stroke: #A80036; stroke-width: 1.0;" width="10" x="3347" y="1208.4258"/><line style="stroke: #A80036; stroke-width: 1.0;" x1="67.5" x2="114.5" y1="64.7988" y2="64.7988"/><line style="stroke: #A80036; stroke-width: 1.0;" x1="114.5" x2="114.5" y1="64.7988" y2="77.7988"/><line style="stroke: #A80036; stroke-width: 1.0;" x1="73.5" x2="114.5" y1="77.7988" y2="77.7988"/><polygon fill="#A80036" points="83.5,73.7988,73.5,77.7988,83.5,81.7988,79.5,77.7988" style="stroke: #A80036; stroke-width: 1.0;"/><text fill="#000000" font-family="sans-serif" font-size="13" lengthAdjust="spacingAndGlyphs" textLength="29" x="79.5" y="60.0566">start</text><polygon fill="#A80036" points="203,107.7988,213,111.7988,203,115.7988,207,111.7988" style="stroke: #A80036; stroke-width: 1.0;"/><line style="stroke: #A80036; stroke-width: 1.0;" x1="67.5" x2="209" y1="111.7988" y2="111.7988"/><text fill="#000000" font-family="sans-serif" font-size="13" lengthAdjust="spacingAndGlyphs" textLength="97" x="74.5" y="107.3672">intoLaunchPool</text><line style="stroke: #A80036; stroke-width: 1.0;" x1="225" x2="267" y1="141.4199" y2="141.4199"/><line style="stroke: #A80036; stroke-width: 1.0;" x1="267" x2="267" y1="141.4199" y2="154.4199"/><line style="stroke: #A80036; stroke-width: 1.0;" x1="226" x2="267" y1="154.4199" y2="154.4199"/><polygon fill="#A80036" points="236,150.4199,226,154.4199,236,158.4199,232,154.4199" style="stroke: #A80036; stroke-width: 1.0;"/><text fill="#000000" font-family="sans-serif" font-size="13" lengthAdjust="spacingAndGlyphs" textLength="47" x="232" y="136.6777">prepare</text><polygon fill="#FBFB77" filter="url(#f9fl4dh)" points="291,126.6094,291,151.6094,403,151.6094,403,136.6094,393,126.6094,291,126.6094" style="stroke: #A80036; stroke-width: 1.0;"/><line style="stroke: #A80036; stroke-width: 1.0;" x1="393" x2="393" y1="126.6094" y2="136.6094"/><line style="stroke: #A80036; stroke-width: 1.0;" x1="403" x2="393" y1="136.6094" y2="136.6094"/><text fill="#000000" font-family="sans-serif" font-size="13" lengthAdjust="spacingAndGlyphs" textLength="91" x="297" y="144.1777">创建目标文件夹</text><polygon fill="#A80036" points="459,179.4199,469,183.4199,459,187.4199,463,183.4199" style="stroke: #A80036; stroke-width: 1.0;"/><line style="stroke: #A80036; stroke-width: 1.0;" x1="220" x2="465" y1="183.4199" y2="183.4199"/><text fill="#000000" font-family="sans-serif" font-size="13" lengthAdjust="spacingAndGlyphs" textLength="222" x="227" y="178.9883">launch(FileDownloadTaskLauncher)</text><polygon fill="#A80036" points="636.5,208.7305,646.5,212.7305,636.5,216.7305,640.5,212.7305" style="stroke: #A80036; stroke-width: 1.0;"/><line style="stroke: #A80036; stroke-width: 1.0;" x1="471" x2="642.5" y1="212.7305" y2="212.7305"/><text fill="#000000" font-family="sans-serif" font-size="13" lengthAdjust="spacingAndGlyphs" textLength="85" x="478" y="208.2988">asyncExecute</text><polygon fill="#A80036" points="850.5,238.041,860.5,242.041,850.5,246.041,854.5,242.041" style="stroke: #A80036; stroke-width: 1.0;"/><line style="stroke: #A80036; stroke-width: 1.0;" x1="648.5" x2="856.5" y1="242.041" y2="242.041"/><text fill="#000000" font-family="sans-serif" font-size="13" lengthAdjust="spacingAndGlyphs" textLength="190" x="655.5" y="237.6094">execute(LaunchTaskRunnable)</text><polygon fill="#A80036" points="1021.5,267.3516,1031.5,271.3516,1021.5,275.3516,1025.5,271.3516" style="stroke: #A80036; stroke-width: 1.0;"/><line style="stroke: #A80036; stroke-width: 1.0;" x1="862.5" x2="1027.5" y1="271.3516" y2="271.3516"/><text fill="#000000" font-family="sans-serif" font-size="13" lengthAdjust="spacingAndGlyphs" textLength="21" x="869.5" y="266.9199">run</text><polygon fill="#A80036" points="236,296.6621,226,300.6621,236,304.6621,232,300.6621" style="stroke: #A80036; stroke-width: 1.0;"/><line style="stroke: #A80036; stroke-width: 1.0;" x1="230" x2="1032.5" y1="300.6621" y2="300.6621"/><text fill="#000000" font-family="sans-serif" font-size="13" lengthAdjust="spacingAndGlyphs" textLength="29" x="242" y="296.2305">start</text><polygon fill="#A80036" points="1180.5,325.9727,1190.5,329.9727,1180.5,333.9727,1184.5,329.9727" style="stroke: #A80036; stroke-width: 1.0;"/><line style="stroke: #A80036; stroke-width: 1.0;" x1="225" x2="1186.5" y1="329.9727" y2="329.9727"/><text fill="#000000" font-family="sans-serif" font-size="13" lengthAdjust="spacingAndGlyphs" textLength="23" x="232" y="325.541">add</text><polygon fill="#A80036" points="1356.5,355.2832,1366.5,359.2832,1356.5,363.2832,1360.5,359.2832" style="stroke: #A80036; stroke-width: 1.0;"/><line style="stroke: #A80036; stroke-width: 1.0;" x1="220" x2="1362.5" y1="359.2832" y2="359.2832"/><text fill="#000000" font-family="sans-serif" font-size="13" lengthAdjust="spacingAndGlyphs" textLength="29" x="227" y="354.8516">start</text><polygon fill="#A80036" points="1599.5,384.5938,1609.5,388.5938,1599.5,392.5938,1603.5,388.5938" style="stroke: #A80036; stroke-width: 1.0;"/><line style="stroke: #A80036; stroke-width: 1.0;" x1="1368.5" x2="1605.5" y1="388.5938" y2="388.5938"/><text fill="#000000" font-family="sans-serif" font-size="13" lengthAdjust="spacingAndGlyphs" textLength="29" x="1375.5" y="384.1621">start</text><polygon fill="#A80036" points="1836.5,413.9043,1846.5,417.9043,1836.5,421.9043,1840.5,417.9043" style="stroke: #A80036; stroke-width: 1.0;"/><line style="stroke: #A80036; stroke-width: 1.0;" x1="1611.5" x2="1842.5" y1="417.9043" y2="417.9043"/><text fill="#000000" font-family="sans-serif" font-size="13" lengthAdjust="spacingAndGlyphs" textLength="29" x="1618.5" y="413.4727">start</text><polygon fill="#A80036" points="2020,443.2148,2030,447.2148,2020,451.2148,2024,447.2148" style="stroke: #A80036; stroke-width: 1.0;"/><line style="stroke: #A80036; stroke-width: 1.0;" x1="1848.5" x2="2026" y1="447.2148" y2="447.2148"/><text fill="#000000" font-family="sans-serif" font-size="13" lengthAdjust="spacingAndGlyphs" textLength="29" x="1855.5" y="442.7832">start</text><polygon fill="#A80036" points="2202.5,472.5254,2212.5,476.5254,2202.5,480.5254,2206.5,476.5254" style="stroke: #A80036; stroke-width: 1.0;"/><line style="stroke: #A80036; stroke-width: 1.0;" x1="2042" x2="2208.5" y1="476.5254" y2="476.5254"/><text fill="#000000" font-family="sans-serif" font-size="13" lengthAdjust="spacingAndGlyphs" textLength="43" x="2049" y="472.0938">update</text><polygon fill="#A80036" points="2426,531.8359,2436,535.8359,2426,539.8359,2430,535.8359" style="stroke: #A80036; stroke-width: 1.0;"/><line style="stroke: #A80036; stroke-width: 1.0;" x1="2042" x2="2432" y1="535.8359" y2="535.8359"/><text fill="#000000" font-family="sans-serif" font-size="13" lengthAdjust="spacingAndGlyphs" textLength="32" x="2049" y="531.4043">build</text><polygon fill="#A80036" points="2053,546.1465,2043,550.1465,2053,554.1465,2049,550.1465" style="stroke: #A80036; stroke-width: 1.0;"/><line style="stroke: #A80036; stroke-width: 1.0; stroke-dasharray: 2.0,2.0;" x1="2047" x2="2442" y1="550.1465" y2="550.1465"/><polygon fill="#A80036" points="2658,575.1465,2668,579.1465,2658,583.1465,2662,579.1465" style="stroke: #A80036; stroke-width: 1.0;"/><line style="stroke: #A80036; stroke-width: 1.0;" x1="2037" x2="2664" y1="579.1465" y2="579.1465"/><text fill="#000000" font-family="sans-serif" font-size="13" lengthAdjust="spacingAndGlyphs" textLength="49" x="2044" y="574.7148">execute</text><polygon fill="#A80036" points="2854,604.457,2864,608.457,2854,612.457,2858,608.457" style="stroke: #A80036; stroke-width: 1.0;"/><line style="stroke: #A80036; stroke-width: 1.0;" x1="2670" x2="2860" y1="608.457" y2="608.457"/><text fill="#000000" font-family="sans-serif" font-size="13" lengthAdjust="spacingAndGlyphs" textLength="21" x="2677" y="604.0254">run</text><line style="stroke: #A80036; stroke-width: 1.0;" x1="2876" x2="2918" y1="638.0781" y2="638.0781"/><line style="stroke: #A80036; stroke-width: 1.0;" x1="2918" x2="2918" y1="638.0781" y2="651.0781"/><line style="stroke: #A80036; stroke-width: 1.0;" x1="2877" x2="2918" y1="651.0781" y2="651.0781"/><polygon fill="#A80036" points="2887,647.0781,2877,651.0781,2887,655.0781,2883,651.0781" style="stroke: #A80036; stroke-width: 1.0;"/><text fill="#000000" font-family="sans-serif" font-size="13" lengthAdjust="spacingAndGlyphs" textLength="144" x="2883" y="633.3359">checkupBeforeConnect</text><line style="stroke: #A80036; stroke-width: 1.0;" x1="2876" x2="2918" y1="680.3887" y2="680.3887"/><line style="stroke: #A80036; stroke-width: 1.0;" x1="2918" x2="2918" y1="680.3887" y2="693.3887"/><line style="stroke: #A80036; stroke-width: 1.0;" x1="2877" x2="2918" y1="693.3887" y2="693.3887"/><polygon fill="#A80036" points="2887,689.3887,2877,693.3887,2887,697.3887,2883,693.3887" style="stroke: #A80036; stroke-width: 1.0;"/><text fill="#000000" font-family="sans-serif" font-size="13" lengthAdjust="spacingAndGlyphs" textLength="77" x="2883" y="675.6465">trialConnect</text><line style="stroke: #A80036; stroke-width: 1.0;" x1="2876" x2="2918" y1="722.6992" y2="722.6992"/><line style="stroke: #A80036; stroke-width: 1.0;" x1="2918" x2="2918" y1="722.6992" y2="735.6992"/><line style="stroke: #A80036; stroke-width: 1.0;" x1="2877" x2="2918" y1="735.6992" y2="735.6992"/><polygon fill="#A80036" points="2887,731.6992,2877,735.6992,2887,739.6992,2883,735.6992" style="stroke: #A80036; stroke-width: 1.0;"/><text fill="#000000" font-family="sans-serif" font-size="13" lengthAdjust="spacingAndGlyphs" textLength="161" x="2883" y="717.957">checkupAfterGetFilename</text><line style="stroke: #A80036; stroke-width: 1.0;" x1="2876" x2="2918" y1="765.0098" y2="765.0098"/><line style="stroke: #A80036; stroke-width: 1.0;" x1="2918" x2="2918" y1="765.0098" y2="778.0098"/><line style="stroke: #A80036; stroke-width: 1.0;" x1="2877" x2="2918" y1="778.0098" y2="778.0098"/><polygon fill="#A80036" points="2887,774.0098,2877,778.0098,2887,782.0098,2883,778.0098" style="stroke: #A80036; stroke-width: 1.0;"/><text fill="#000000" font-family="sans-serif" font-size="13" lengthAdjust="spacingAndGlyphs" textLength="255" x="2883" y="760.2676">inspectTaskModelResumeAvailableOnDB</text><line style="stroke: #A80036; stroke-width: 1.0;" x1="2876" x2="2918" y1="807.3203" y2="807.3203"/><line style="stroke: #A80036; stroke-width: 1.0;" x1="2918" x2="2918" y1="807.3203" y2="820.3203"/><line style="stroke: #A80036; stroke-width: 1.0;" x1="2877" x2="2918" y1="820.3203" y2="820.3203"/><polygon fill="#A80036" points="2887,816.3203,2877,820.3203,2887,824.3203,2883,820.3203" style="stroke: #A80036; stroke-width: 1.0;"/><text fill="#000000" font-family="sans-serif" font-size="13" lengthAdjust="spacingAndGlyphs" textLength="112" x="2883" y="802.5781">handlePreAllocate</text><line style="stroke: #A80036; stroke-width: 1.0;" x1="2876" x2="2918" y1="849.6309" y2="849.6309"/><line style="stroke: #A80036; stroke-width: 1.0;" x1="2918" x2="2918" y1="849.6309" y2="862.6309"/><line style="stroke: #A80036; stroke-width: 1.0;" x1="2877" x2="2918" y1="862.6309" y2="862.6309"/><polygon fill="#A80036" points="2887,858.6309,2877,862.6309,2887,866.6309,2883,862.6309" style="stroke: #A80036; stroke-width: 1.0;"/><text fill="#000000" font-family="sans-serif" font-size="13" lengthAdjust="spacingAndGlyphs" textLength="135" x="2883" y="844.8887">calcConnectionCount</text><rect fill="none" height="103.9316" style="stroke: #000000; stroke-width: 2.0;" width="358.5" x="2760.5" y="877.6309"/><polygon fill="#EEEEEE" points="2760.5,877.6309,2822.5,877.6309,2822.5,884.6309,2812.5,894.6309,2760.5,894.6309,2760.5,877.6309" style="stroke: #000000; stroke-width: 2.0;"/><text fill="#000000" font-family="sans-serif" font-size="13" font-weight="bold" lengthAdjust="spacingAndGlyphs" textLength="17" x="2775.5" y="891.1992">alt</text><text fill="#000000" font-family="sans-serif" font-size="11" font-weight="bold" lengthAdjust="spacingAndGlyphs" textLength="159" x="2837.5" y="890.2656">[calcConnectionCount == 1]</text><line style="stroke: #A80036; stroke-width: 1.0;" x1="2876" x2="2918" y1="916.252" y2="916.252"/><line style="stroke: #A80036; stroke-width: 1.0;" x1="2918" x2="2918" y1="916.252" y2="929.252"/><line style="stroke: #A80036; stroke-width: 1.0;" x1="2877" x2="2918" y1="929.252" y2="929.252"/><polygon fill="#A80036" points="2887,925.252,2877,929.252,2887,933.252,2883,929.252" style="stroke: #A80036; stroke-width: 1.0;"/><text fill="#000000" font-family="sans-serif" font-size="13" lengthAdjust="spacingAndGlyphs" textLength="224" x="2883" y="911.5098">realDownloadWithSingleConnection</text><line style="stroke: #000000; stroke-width: 1.0; stroke-dasharray: 2.0,2.0;" x1="2760.5" x2="3119" y1="938.252" y2="938.252"/><line style="stroke: #A80036; stroke-width: 1.0;" x1="2876" x2="2918" y1="960.5625" y2="960.5625"/><line style="stroke: #A80036; stroke-width: 1.0;" x1="2918" x2="2918" y1="960.5625" y2="973.5625"/><line style="stroke: #A80036; stroke-width: 1.0;" x1="2877" x2="2918" y1="973.5625" y2="973.5625"/><polygon fill="#A80036" points="2887,969.5625,2877,973.5625,2887,977.5625,2883,973.5625" style="stroke: #A80036; stroke-width: 1.0;"/><text fill="#000000" font-family="sans-serif" font-size="13" lengthAdjust="spacingAndGlyphs" textLength="224" x="2883" y="955.8203">realDownloadWithSingleConnection</text><line style="stroke: #A80036; stroke-width: 1.0;" x1="2876" x2="2918" y1="1009.873" y2="1009.873"/><line style="stroke: #A80036; stroke-width: 1.0;" x1="2918" x2="2918" y1="1009.873" y2="1022.873"/><line style="stroke: #A80036; stroke-width: 1.0;" x1="2877" x2="2918" y1="1022.873" y2="1022.873"/><polygon fill="#A80036" points="2887,1018.873,2877,1022.873,2887,1026.873,2883,1022.873" style="stroke: #A80036; stroke-width: 1.0;"/><text fill="#000000" font-family="sans-serif" font-size="13" lengthAdjust="spacingAndGlyphs" textLength="312" x="2883" y="1005.1309">realDownloadWithMultiConnectionFromBeginning</text><rect fill="none" height="46.6211" style="stroke: #000000; stroke-width: 2.0;" width="859" x="2122.5" y="1037.873"/><polygon fill="#EEEEEE" points="2122.5,1037.873,2196.5,1037.873,2196.5,1044.873,2186.5,1054.873,2122.5,1054.873,2122.5,1037.873" style="stroke: #000000; stroke-width: 2.0;"/><text fill="#000000" font-family="sans-serif" font-size="13" font-weight="bold" lengthAdjust="spacingAndGlyphs" textLength="29" x="2137.5" y="1051.4414">loop</text><text fill="#000000" font-family="sans-serif" font-size="11" font-weight="bold" lengthAdjust="spacingAndGlyphs" textLength="251" x="2211.5" y="1050.5078">[connectCount 次, 构造多个 ConnectionModel]</text><polygon fill="#A80036" points="2230.5,1072.1836,2220.5,1076.1836,2230.5,1080.1836,2226.5,1076.1836" style="stroke: #A80036; stroke-width: 1.0;"/><line style="stroke: #A80036; stroke-width: 1.0;" x1="2224.5" x2="2865" y1="1076.1836" y2="1076.1836"/><text fill="#000000" font-family="sans-serif" font-size="13" lengthAdjust="spacingAndGlyphs" textLength="146" x="2236.5" y="1071.752">insertConnectionModel</text><line style="stroke: #A80036; stroke-width: 1.0;" x1="2876" x2="2918" y1="1112.8047" y2="1112.8047"/><line style="stroke: #A80036; stroke-width: 1.0;" x1="2918" x2="2918" y1="1112.8047" y2="1125.8047"/><line style="stroke: #A80036; stroke-width: 1.0;" x1="2877" x2="2918" y1="1125.8047" y2="1125.8047"/><polygon fill="#A80036" points="2887,1121.8047,2877,1125.8047,2887,1129.8047,2883,1125.8047" style="stroke: #A80036; stroke-width: 1.0;"/><text fill="#000000" font-family="sans-serif" font-size="13" lengthAdjust="spacingAndGlyphs" textLength="183" x="2883" y="1108.0625">fetchWithMultipleConnection</text><rect fill="none" height="384.7266" style="stroke: #000000; stroke-width: 2.0;" width="1905.5" x="2112.5" y="1140.8047"/><polygon fill="#EEEEEE" points="2112.5,1140.8047,2186.5,1140.8047,2186.5,1147.8047,2176.5,1157.8047,2112.5,1157.8047,2112.5,1140.8047" style="stroke: #000000; stroke-width: 2.0;"/><text fill="#000000" font-family="sans-serif" font-size="13" font-weight="bold" lengthAdjust="spacingAndGlyphs" textLength="29" x="2127.5" y="1154.373">loop</text><text fill="#000000" font-family="sans-serif" font-size="11" font-weight="bold" lengthAdjust="spacingAndGlyphs" textLength="262" x="2201.5" y="1153.4395">[connectCount 次, 构造多个 DownloadRunnable]</text><polygon fill="#A80036" points="3190,1175.1152,3200,1179.1152,3190,1183.1152,3194,1179.1152" style="stroke: #A80036; stroke-width: 1.0;"/><line style="stroke: #A80036; stroke-width: 1.0;" x1="2871" x2="3196" y1="1179.1152" y2="1179.1152"/><text fill="#000000" font-family="sans-serif" font-size="13" lengthAdjust="spacingAndGlyphs" textLength="21" x="2878" y="1174.6836">run</text><polygon fill="#A80036" points="3335,1204.4258,3345,1208.4258,3335,1212.4258,3339,1208.4258" style="stroke: #A80036; stroke-width: 1.0;"/><line style="stroke: #A80036; stroke-width: 1.0;" x1="3207" x2="3341" y1="1208.4258" y2="1208.4258"/><text fill="#000000" font-family="sans-serif" font-size="13" lengthAdjust="spacingAndGlyphs" textLength="21" x="3214" y="1203.9941">run</text><polygon fill="#A80036" points="3504,1233.7363,3514,1237.7363,3504,1241.7363,3508,1237.7363" style="stroke: #A80036; stroke-width: 1.0;"/><line style="stroke: #A80036; stroke-width: 1.0;" x1="3357" x2="3510" y1="1237.7363" y2="1237.7363"/><text fill="#000000" font-family="sans-serif" font-size="13" lengthAdjust="spacingAndGlyphs" textLength="96" x="3364" y="1233.3047">getInputStream</text><polygon fill="#A80036" points="3368,1263.0469,3358,1267.0469,3368,1271.0469,3364,1267.0469" style="stroke: #A80036; stroke-width: 1.0;"/><line style="stroke: #A80036; stroke-width: 1.0; stroke-dasharray: 2.0,2.0;" x1="3362" x2="3515" y1="1267.0469" y2="1267.0469"/><text fill="#000000" font-family="sans-serif" font-size="13" lengthAdjust="spacingAndGlyphs" textLength="76" x="3374" y="1262.6152">inputStream</text><polygon fill="#A80036" points="3679.5,1292.3574,3689.5,1296.3574,3679.5,1300.3574,3683.5,1296.3574" style="stroke: #A80036; stroke-width: 1.0;"/><line style="stroke: #A80036; stroke-width: 1.0;" x1="3357" x2="3685.5" y1="1296.3574" y2="1296.3574"/><text fill="#000000" font-family="sans-serif" font-size="13" lengthAdjust="spacingAndGlyphs" textLength="125" x="3364" y="1291.9258">createOutputStream</text><polygon fill="#A80036" points="3368,1321.668,3358,1325.668,3368,1329.668,3364,1325.668" style="stroke: #A80036; stroke-width: 1.0;"/><line style="stroke: #A80036; stroke-width: 1.0; stroke-dasharray: 2.0,2.0;" x1="3362" x2="3690.5" y1="1325.668" y2="1325.668"/><text fill="#000000" font-family="sans-serif" font-size="13" lengthAdjust="spacingAndGlyphs" textLength="85" x="3374" y="1321.2363">outputStream</text><rect fill="none" height="177.5527" style="stroke: #000000; stroke-width: 2.0;" width="1885.5" x="2122.5" y="1340.9785"/><polygon fill="#EEEEEE" points="2122.5,1340.9785,2196.5,1340.9785,2196.5,1347.9785,2186.5,1357.9785,2122.5,1357.9785,2122.5,1340.9785" style="stroke: #000000; stroke-width: 2.0;"/><text fill="#000000" font-family="sans-serif" font-size="13" font-weight="bold" lengthAdjust="spacingAndGlyphs" textLength="29" x="2137.5" y="1354.5469">loop</text><text fill="#000000" font-family="sans-serif" font-size="11" font-weight="bold" lengthAdjust="spacingAndGlyphs" textLength="143" x="2211.5" y="1353.6133">[直到读完输入流或者 pause]</text><polygon fill="#A80036" points="3811,1375.2891,3821,1379.2891,3811,1383.2891,3815,1379.2891" style="stroke: #A80036; stroke-width: 1.0;"/><line style="stroke: #A80036; stroke-width: 1.0;" x1="3357" x2="3817" y1="1379.2891" y2="1379.2891"/><text fill="#000000" font-family="sans-serif" font-size="13" lengthAdjust="spacingAndGlyphs" textLength="27" x="3364" y="1374.8574">read</text><polygon fill="#A80036" points="3929,1404.5996,3939,1408.5996,3929,1412.5996,3933,1408.5996" style="stroke: #A80036; stroke-width: 1.0;"/><line style="stroke: #A80036; stroke-width: 1.0; stroke-dasharray: 2.0,2.0;" x1="3357" x2="3935" y1="1408.5996" y2="1408.5996"/><text fill="#000000" font-family="sans-serif" font-size="13" lengthAdjust="spacingAndGlyphs" textLength="31" x="3364" y="1404.168">write</text><line style="stroke: #A80036; stroke-width: 1.0;" x1="3357" x2="3399" y1="1438.2207" y2="1438.2207"/><line style="stroke: #A80036; stroke-width: 1.0;" x1="3399" x2="3399" y1="1438.2207" y2="1451.2207"/><line style="stroke: #A80036; stroke-width: 1.0;" x1="3358" x2="3399" y1="1451.2207" y2="1451.2207"/><polygon fill="#A80036" points="3368,1447.2207,3358,1451.2207,3368,1455.2207,3364,1451.2207" style="stroke: #A80036; stroke-width: 1.0;"/><text fill="#000000" font-family="sans-serif" font-size="13" lengthAdjust="spacingAndGlyphs" textLength="91" x="3364" y="1433.4785">checkAndSync</text><polygon fill="#A80036" points="2235.5,1476.2207,2225.5,1480.2207,2235.5,1484.2207,2231.5,1480.2207" style="stroke: #A80036; stroke-width: 1.0;"/><line style="stroke: #A80036; stroke-width: 1.0;" x1="2229.5" x2="3346" y1="1480.2207" y2="1480.2207"/><text fill="#000000" font-family="sans-serif" font-size="13" lengthAdjust="spacingAndGlyphs" textLength="153" x="2241.5" y="1475.7891">updateConnectionModel</text></g></svg>