<?xml version="1.0" encoding="UTF-8" standalone="no"?><svg xmlns="http://www.w3.org/2000/svg" xmlns:xlink="http://www.w3.org/1999/xlink" contentScriptType="application/ecmascript" contentStyleType="text/css" height="211px" preserveAspectRatio="none" style="width:443px;height:211px;" version="1.1" viewBox="0 0 443 211" width="443px" zoomAndPan="magnify"><defs><filter height="300%" id="fs1u21y" width="300%" x="-1" y="-1"><feGaussianBlur result="blurOut" stdDeviation="2.0"/><feColorMatrix in="blurOut" result="blurOut2" type="matrix" values="0 0 0 0 0 0 0 0 0 0 0 0 0 0 0 0 0 0 .4 0"/><feOffset dx="4.0" dy="4.0" in="blurOut2" result="blurOut3"/><feBlend in="SourceGraphic" in2="blurOut3" mode="normal"/></filter></defs><g><!--class ElectricCalculator--><rect fill="#FEFECE" filter="url(#fs1u21y)" height="73.9102" style="stroke: #A80036; stroke-width: 1.5;" width="160" x="6" y="8"/><ellipse cx="34.5" cy="24" fill="#ADD1B2" rx="11" ry="11" style="stroke: #A80036; stroke-width: 1.0;"/><path d="M36.9731,30.1431 Q36.3921,30.4419 35.7529,30.5913 Q35.1138,30.7407 34.4082,30.7407 Q31.9014,30.7407 30.5815,29.0889 Q29.2617,27.437 29.2617,24.3159 Q29.2617,21.1865 30.5815,19.5347 Q31.9014,17.8828 34.4082,17.8828 Q35.1138,17.8828 35.7612,18.0322 Q36.4087,18.1816 36.9731,18.4805 L36.9731,21.2031 Q36.3423,20.6221 35.7488,20.3523 Q35.1553,20.0825 34.5244,20.0825 Q33.1797,20.0825 32.4949,21.1492 Q31.8101,22.2158 31.8101,24.3159 Q31.8101,26.4077 32.4949,27.4744 Q33.1797,28.541 34.5244,28.541 Q35.1553,28.541 35.7488,28.2712 Q36.3423,28.0015 36.9731,27.4204 Z "/><text fill="#000000" font-family="sans-serif" font-size="12" lengthAdjust="spacingAndGlyphs" textLength="98" x="51.5" y="28.5352">ElectricCalculator</text><line style="stroke: #A80036; stroke-width: 1.5;" x1="7" x2="165" y1="40" y2="40"/><line style="stroke: #A80036; stroke-width: 1.5;" x1="7" x2="165" y1="48" y2="48"/><ellipse cx="17" cy="59.9775" fill="#84BE84" rx="3" ry="3" style="stroke: #038048; stroke-width: 1.0;"/><text fill="#000000" font-family="sans-serif" font-size="11" lengthAdjust="spacingAndGlyphs" textLength="92" x="26" y="62.6348">calculate(int deg)</text><ellipse cx="17" cy="72.9326" fill="#84BE84" rx="3" ry="3" style="stroke: #038048; stroke-width: 1.0;"/><text fill="#000000" font-family="sans-serif" font-size="11" lengthAdjust="spacingAndGlyphs" textLength="134" x="26" y="75.5898">setCalculator(Calculator)</text><!--class Calculator--><rect fill="#FEFECE" filter="url(#fs1u21y)" height="60.9551" style="stroke: #A80036; stroke-width: 1.5;" width="118" x="201" y="14.5"/><ellipse cx="229.05" cy="30.5" fill="#B4A7E5" rx="11" ry="11" style="stroke: #A80036; stroke-width: 1.0;"/><path d="M225.4777,26.7651 L225.4777,24.6069 L232.8571,24.6069 L232.8571,26.7651 L230.3918,26.7651 L230.3918,34.8418 L232.8571,34.8418 L232.8571,37 L225.4777,37 L225.4777,34.8418 L227.9431,34.8418 L227.9431,26.7651 Z "/><text fill="#000000" font-family="sans-serif" font-size="12" font-style="italic" lengthAdjust="spacingAndGlyphs" textLength="57" x="245.95" y="35.0352">Calculator</text><line style="stroke: #A80036; stroke-width: 1.5;" x1="202" x2="318" y1="46.5" y2="46.5"/><line style="stroke: #A80036; stroke-width: 1.5;" x1="202" x2="318" y1="54.5" y2="54.5"/><ellipse cx="212" cy="66.4775" fill="#84BE84" rx="3" ry="3" style="stroke: #038048; stroke-width: 1.0;"/><text fill="#000000" font-family="sans-serif" font-size="11" lengthAdjust="spacingAndGlyphs" textLength="92" x="221" y="69.1348">calculate(int deg)</text><!--class V220Calculator--><rect fill="#FEFECE" filter="url(#fs1u21y)" height="60.9551" style="stroke: #A80036; stroke-width: 1.5;" width="121" x="109.5" y="142"/><ellipse cx="124.5" cy="158" fill="#ADD1B2" rx="11" ry="11" style="stroke: #A80036; stroke-width: 1.0;"/><path d="M126.9731,164.1431 Q126.3921,164.4419 125.7529,164.5913 Q125.1138,164.7407 124.4082,164.7407 Q121.9014,164.7407 120.5815,163.0889 Q119.2617,161.437 119.2617,158.3159 Q119.2617,155.1865 120.5815,153.5347 Q121.9014,151.8828 124.4082,151.8828 Q125.1138,151.8828 125.7612,152.0322 Q126.4087,152.1816 126.9731,152.4805 L126.9731,155.2031 Q126.3423,154.6221 125.7488,154.3523 Q125.1553,154.0825 124.5244,154.0825 Q123.1797,154.0825 122.4949,155.1492 Q121.8101,156.2158 121.8101,158.3159 Q121.8101,160.4077 122.4949,161.4744 Q123.1797,162.541 124.5244,162.541 Q125.1553,162.541 125.7488,162.2712 Q126.3423,162.0015 126.9731,161.4204 Z "/><text fill="#000000" font-family="sans-serif" font-size="12" lengthAdjust="spacingAndGlyphs" textLength="89" x="138.5" y="162.5352">V220Calculator</text><line style="stroke: #A80036; stroke-width: 1.5;" x1="110.5" x2="229.5" y1="174" y2="174"/><line style="stroke: #A80036; stroke-width: 1.5;" x1="110.5" x2="229.5" y1="182" y2="182"/><ellipse cx="120.5" cy="193.9775" fill="#84BE84" rx="3" ry="3" style="stroke: #038048; stroke-width: 1.0;"/><text fill="#000000" font-family="sans-serif" font-size="11" lengthAdjust="spacingAndGlyphs" textLength="92" x="129.5" y="196.6348">calculate(int deg)</text><!--class V220SummerCalculator--><rect fill="#FEFECE" filter="url(#fs1u21y)" height="60.9551" style="stroke: #A80036; stroke-width: 1.5;" width="168" x="266" y="142"/><ellipse cx="281" cy="158" fill="#ADD1B2" rx="11" ry="11" style="stroke: #A80036; stroke-width: 1.0;"/><path d="M283.4731,164.1431 Q282.8921,164.4419 282.2529,164.5913 Q281.6138,164.7407 280.9082,164.7407 Q278.4014,164.7407 277.0815,163.0889 Q275.7617,161.437 275.7617,158.3159 Q275.7617,155.1865 277.0815,153.5347 Q278.4014,151.8828 280.9082,151.8828 Q281.6138,151.8828 282.2612,152.0322 Q282.9087,152.1816 283.4731,152.4805 L283.4731,155.2031 Q282.8423,154.6221 282.2488,154.3523 Q281.6553,154.0825 281.0244,154.0825 Q279.6797,154.0825 278.9949,155.1492 Q278.3101,156.2158 278.3101,158.3159 Q278.3101,160.4077 278.9949,161.4744 Q279.6797,162.541 281.0244,162.541 Q281.6553,162.541 282.2488,162.2712 Q282.8423,162.0015 283.4731,161.4204 Z "/><text fill="#000000" font-family="sans-serif" font-size="12" lengthAdjust="spacingAndGlyphs" textLength="136" x="295" y="162.5352">V220SummerCalculator</text><line style="stroke: #A80036; stroke-width: 1.5;" x1="267" x2="433" y1="174" y2="174"/><line style="stroke: #A80036; stroke-width: 1.5;" x1="267" x2="433" y1="182" y2="182"/><ellipse cx="277" cy="193.9775" fill="#84BE84" rx="3" ry="3" style="stroke: #038048; stroke-width: 1.0;"/><text fill="#000000" font-family="sans-serif" font-size="11" lengthAdjust="spacingAndGlyphs" textLength="92" x="286" y="196.6348">calculate(int deg)</text><path d="M179.3876,45 C186.4731,45 193.5586,45 200.6442,45 " fill="none" style="stroke: #A80036; stroke-width: 1.0;"/><polygon fill="#FFFFFF" points="166.2031,45,172.2031,49,178.2031,45,172.2031,41,166.2031,45" style="stroke: #A80036; stroke-width: 1.0;"/><path d="M226.7941,92.0417 C215.0768,108.6411 202.2118,126.8667 191.6933,141.7679 " fill="none" style="stroke: #A80036; stroke-width: 1.0;"/><polygon fill="none" points="221.1903,87.842,238.4428,75.5394,232.6278,95.9156,221.1903,87.842" style="stroke: #A80036; stroke-width: 1.0;"/><path d="M293.2059,92.0417 C304.9232,108.6411 317.7882,126.8667 328.3067,141.7679 " fill="none" style="stroke: #A80036; stroke-width: 1.0;"/><polygon fill="none" points="287.3722,95.9156,281.5572,75.5394,298.8097,87.842,287.3722,95.9156" style="stroke: #A80036; stroke-width: 1.0;"/></g></svg>