<?xml version="1.0" encoding="UTF-8" standalone="no"?><svg xmlns="http://www.w3.org/2000/svg" xmlns:xlink="http://www.w3.org/1999/xlink" contentScriptType="application/ecmascript" contentStyleType="text/css" height="198px" preserveAspectRatio="none" style="width:486px;height:198px;" version="1.1" viewBox="0 0 486 198" width="486px" zoomAndPan="magnify"><defs><filter height="300%" id="fflwl90" width="300%" x="-1" y="-1"><feGaussianBlur result="blurOut" stdDeviation="2.0"/><feColorMatrix in="blurOut" result="blurOut2" type="matrix" values="0 0 0 0 0 0 0 0 0 0 0 0 0 0 0 0 0 0 .4 0"/><feOffset dx="4.0" dy="4.0" in="blurOut2" result="blurOut3"/><feBlend in="SourceGraphic" in2="blurOut3" mode="normal"/></filter></defs><g><!--class CloseUtil--><rect fill="#FEFECE" filter="url(#fflwl90)" height="60.9551" style="stroke: #A80036; stroke-width: 1.5;" width="231" x="246.5" y="8"/><ellipse cx="333.25" cy="24" fill="#ADD1B2" rx="11" ry="11" style="stroke: #A80036; stroke-width: 1.0;"/><path d="M335.7231,30.1431 Q335.1421,30.4419 334.5029,30.5913 Q333.8638,30.7407 333.1582,30.7407 Q330.6514,30.7407 329.3315,29.0889 Q328.0117,27.437 328.0117,24.3159 Q328.0117,21.1865 329.3315,19.5347 Q330.6514,17.8828 333.1582,17.8828 Q333.8638,17.8828 334.5112,18.0322 Q335.1587,18.1816 335.7231,18.4805 L335.7231,21.2031 Q335.0923,20.6221 334.4988,20.3523 Q333.9053,20.0825 333.2744,20.0825 Q331.9297,20.0825 331.2449,21.1492 Q330.5601,22.2158 330.5601,24.3159 Q330.5601,26.4077 331.2449,27.4744 Q331.9297,28.541 333.2744,28.541 Q333.9053,28.541 334.4988,28.2712 Q335.0923,28.0015 335.7231,27.4204 Z "/><text fill="#000000" font-family="sans-serif" font-size="12" lengthAdjust="spacingAndGlyphs" textLength="49" x="353.75" y="28.5352">CloseUtil</text><line style="stroke: #A80036; stroke-width: 1.5;" x1="247.5" x2="476.5" y1="40" y2="40"/><line style="stroke: #A80036; stroke-width: 1.5;" x1="247.5" x2="476.5" y1="48" y2="48"/><ellipse cx="257.5" cy="59.9775" fill="#84BE84" rx="3" ry="3" style="stroke: #038048; stroke-width: 1.0;"/><text fill="#000000" font-family="sans-serif" font-size="11" lengthAdjust="spacingAndGlyphs" textLength="205" x="266.5" y="62.6348">void closeQuietly(Closeable closeable)</text><!--class Closeable--><rect fill="#FEFECE" filter="url(#fflwl90)" height="60.9551" style="stroke: #A80036; stroke-width: 1.5;" width="88" x="318" y="129"/><ellipse cx="333" cy="145" fill="#B4A7E5" rx="11" ry="11" style="stroke: #A80036; stroke-width: 1.0;"/><path d="M329.4277,141.2651 L329.4277,139.1069 L336.8071,139.1069 L336.8071,141.2651 L334.3418,141.2651 L334.3418,149.3418 L336.8071,149.3418 L336.8071,151.5 L329.4277,151.5 L329.4277,149.3418 L331.8931,149.3418 L331.8931,141.2651 Z "/><text fill="#000000" font-family="sans-serif" font-size="12" font-style="italic" lengthAdjust="spacingAndGlyphs" textLength="56" x="347" y="149.5352">Closeable</text><line style="stroke: #A80036; stroke-width: 1.5;" x1="319" x2="405" y1="161" y2="161"/><line style="stroke: #A80036; stroke-width: 1.5;" x1="319" x2="405" y1="169" y2="169"/><ellipse cx="329" cy="180.9775" fill="#84BE84" rx="3" ry="3" style="stroke: #038048; stroke-width: 1.0;"/><text fill="#000000" font-family="sans-serif" font-size="11" lengthAdjust="spacingAndGlyphs" textLength="62" x="338" y="183.6348">void close()</text><!--class OutputStream--><rect fill="#FEFECE" filter="url(#fflwl90)" height="48" style="stroke: #A80036; stroke-width: 1.5;" width="111" x="171.5" y="135.5"/><ellipse cx="186.5" cy="151.5" fill="#A9DCDF" rx="11" ry="11" style="stroke: #A80036; stroke-width: 1.0;"/><path d="M186.6133,147.0981 L185.4595,152.1699 L187.7754,152.1699 Z M185.1191,144.8569 L188.1157,144.8569 L191.4609,157.25 L189.0122,157.25 L188.2485,154.187 L184.9697,154.187 L184.2227,157.25 L181.7739,157.25 Z "/><text fill="#000000" font-family="sans-serif" font-size="12" font-style="italic" lengthAdjust="spacingAndGlyphs" textLength="79" x="200.5" y="156.0352">OutputStream</text><line style="stroke: #A80036; stroke-width: 1.5;" x1="172.5" x2="281.5" y1="167.5" y2="167.5"/><line style="stroke: #A80036; stroke-width: 1.5;" x1="172.5" x2="281.5" y1="175.5" y2="175.5"/><!--class FileOutputStream--><rect fill="#FEFECE" filter="url(#fflwl90)" height="48" style="stroke: #A80036; stroke-width: 1.5;" width="130" x="6" y="135.5"/><ellipse cx="21" cy="151.5" fill="#ADD1B2" rx="11" ry="11" style="stroke: #A80036; stroke-width: 1.0;"/><path d="M23.4731,157.6431 Q22.8921,157.9419 22.2529,158.0913 Q21.6138,158.2407 20.9082,158.2407 Q18.4014,158.2407 17.0815,156.5889 Q15.7617,154.937 15.7617,151.8159 Q15.7617,148.6865 17.0815,147.0347 Q18.4014,145.3828 20.9082,145.3828 Q21.6138,145.3828 22.2612,145.5322 Q22.9087,145.6816 23.4731,145.9805 L23.4731,148.7031 Q22.8423,148.1221 22.2488,147.8523 Q21.6553,147.5825 21.0244,147.5825 Q19.6797,147.5825 18.9949,148.6492 Q18.3101,149.7158 18.3101,151.8159 Q18.3101,153.9077 18.9949,154.9744 Q19.6797,156.041 21.0244,156.041 Q21.6553,156.041 22.2488,155.7712 Q22.8423,155.5015 23.4731,154.9204 Z "/><text fill="#000000" font-family="sans-serif" font-size="12" lengthAdjust="spacingAndGlyphs" textLength="98" x="35" y="156.0352">FileOutputStream</text><line style="stroke: #A80036; stroke-width: 1.5;" x1="7" x2="135" y1="167.5" y2="167.5"/><line style="stroke: #A80036; stroke-width: 1.5;" x1="7" x2="135" y1="175.5" y2="175.5"/><path d="M362,69.0334 C362,87.3761 362,110.6354 362,128.9764 " fill="none" style="stroke: #A80036; stroke-width: 1.0;"/><path d="M282.6348,159.5 C287.6968,159.5 292.7589,159.5 297.8209,159.5 " fill="none" style="stroke: #A80036; stroke-width: 1.0;"/><polygon fill="none" points="297.9771,152.4999,317.9771,159.5,297.9771,166.4999,297.9771,152.4999" style="stroke: #A80036; stroke-width: 1.0;"/><path d="M136.2031,159.5 C141.2323,159.5 146.2615,159.5 151.2907,159.5 " fill="none" style="stroke: #A80036; stroke-width: 1.0;"/><polygon fill="none" points="151.316,152.4999,171.316,159.5,151.3159,166.4999,151.316,152.4999" style="stroke: #A80036; stroke-width: 1.0;"/></g></svg>