<?xml version="1.0" encoding="UTF-8" standalone="no"?><svg xmlns="http://www.w3.org/2000/svg" xmlns:xlink="http://www.w3.org/1999/xlink" contentScriptType="application/ecmascript" contentStyleType="text/css" height="372px" preserveAspectRatio="none" style="width:562px;height:372px;" version="1.1" viewBox="0 0 562 372" width="562px" zoomAndPan="magnify"><defs><filter height="300%" id="fex9sfx" width="300%" x="-1" y="-1"><feGaussianBlur result="blurOut" stdDeviation="2.0"/><feColorMatrix in="blurOut" result="blurOut2" type="matrix" values="0 0 0 0 0 0 0 0 0 0 0 0 0 0 0 0 0 0 .4 0"/><feOffset dx="4.0" dy="4.0" in="blurOut2" result="blurOut3"/><feBlend in="SourceGraphic" in2="blurOut3" mode="normal"/></filter></defs><g><!--class ImageCache--><rect fill="#FEFECE" filter="url(#fex9sfx)" height="73.9102" style="stroke: #A80036; stroke-width: 1.5;" width="180" x="93.5" y="181"/><ellipse cx="144.25" cy="197" fill="#B4A7E5" rx="11" ry="11" style="stroke: #A80036; stroke-width: 1.0;"/><path d="M140.6777,193.2651 L140.6777,191.1069 L148.0571,191.1069 L148.0571,193.2651 L145.5918,193.2651 L145.5918,201.3418 L148.0571,201.3418 L148.0571,203.5 L140.6777,203.5 L140.6777,201.3418 L143.1431,201.3418 L143.1431,193.2651 Z "/><text fill="#000000" font-family="sans-serif" font-size="12" font-style="italic" lengthAdjust="spacingAndGlyphs" textLength="70" x="164.75" y="201.5352">ImageCache</text><line style="stroke: #A80036; stroke-width: 1.5;" x1="94.5" x2="272.5" y1="213" y2="213"/><line style="stroke: #A80036; stroke-width: 1.5;" x1="94.5" x2="272.5" y1="221" y2="221"/><ellipse cx="104.5" cy="232.9775" fill="#84BE84" rx="3" ry="3" style="stroke: #038048; stroke-width: 1.0;"/><text fill="#000000" font-family="sans-serif" font-size="11" lengthAdjust="spacingAndGlyphs" textLength="114" x="113.5" y="235.6348">Bitmap get(String url)</text><ellipse cx="104.5" cy="245.9326" fill="#84BE84" rx="3" ry="3" style="stroke: #038048; stroke-width: 1.0;"/><text fill="#000000" font-family="sans-serif" font-size="11" lengthAdjust="spacingAndGlyphs" textLength="154" x="113.5" y="248.5898">void put(String url, Bitmap b)</text><!--class Loader--><rect fill="#FEFECE" filter="url(#fex9sfx)" height="60.9551" style="stroke: #A80036; stroke-width: 1.5;" width="146" x="308.5" y="187.5"/><ellipse cx="357.25" cy="203.5" fill="#B4A7E5" rx="11" ry="11" style="stroke: #A80036; stroke-width: 1.0;"/><path d="M353.6777,199.7651 L353.6777,197.6069 L361.0571,197.6069 L361.0571,199.7651 L358.5918,199.7651 L358.5918,207.8418 L361.0571,207.8418 L361.0571,210 L353.6777,210 L353.6777,207.8418 L356.1431,207.8418 L356.1431,199.7651 Z "/><text fill="#000000" font-family="sans-serif" font-size="12" font-style="italic" lengthAdjust="spacingAndGlyphs" textLength="40" x="377.75" y="208.0352">Loader</text><line style="stroke: #A80036; stroke-width: 1.5;" x1="309.5" x2="453.5" y1="219.5" y2="219.5"/><line style="stroke: #A80036; stroke-width: 1.5;" x1="309.5" x2="453.5" y1="227.5" y2="227.5"/><ellipse cx="319.5" cy="239.4775" fill="#84BE84" rx="3" ry="3" style="stroke: #038048; stroke-width: 1.0;"/><text fill="#000000" font-family="sans-serif" font-size="11" lengthAdjust="spacingAndGlyphs" textLength="120" x="328.5" y="242.1348">Bitmap load(String url)</text><!--class MemoryCache--><rect fill="#FEFECE" filter="url(#fex9sfx)" height="48" style="stroke: #A80036; stroke-width: 1.5;" width="113" x="6" y="315"/><ellipse cx="21" cy="331" fill="#ADD1B2" rx="11" ry="11" style="stroke: #A80036; stroke-width: 1.0;"/><path d="M23.4731,337.1431 Q22.8921,337.4419 22.2529,337.5913 Q21.6138,337.7407 20.9082,337.7407 Q18.4014,337.7407 17.0815,336.0889 Q15.7617,334.437 15.7617,331.3159 Q15.7617,328.1865 17.0815,326.5347 Q18.4014,324.8828 20.9082,324.8828 Q21.6138,324.8828 22.2612,325.0322 Q22.9087,325.1816 23.4731,325.4805 L23.4731,328.2031 Q22.8423,327.6221 22.2488,327.3523 Q21.6553,327.0825 21.0244,327.0825 Q19.6797,327.0825 18.9949,328.1492 Q18.3101,329.2158 18.3101,331.3159 Q18.3101,333.4077 18.9949,334.4744 Q19.6797,335.541 21.0244,335.541 Q21.6553,335.541 22.2488,335.2712 Q22.8423,335.0015 23.4731,334.4204 Z "/><text fill="#000000" font-family="sans-serif" font-size="12" lengthAdjust="spacingAndGlyphs" textLength="81" x="35" y="335.5352">MemoryCache</text><line style="stroke: #A80036; stroke-width: 1.5;" x1="7" x2="118" y1="347" y2="347"/><line style="stroke: #A80036; stroke-width: 1.5;" x1="7" x2="118" y1="355" y2="355"/><!--class DiskCache--><rect fill="#FEFECE" filter="url(#fex9sfx)" height="48" style="stroke: #A80036; stroke-width: 1.5;" width="92" x="154.5" y="315"/><ellipse cx="169.5" cy="331" fill="#ADD1B2" rx="11" ry="11" style="stroke: #A80036; stroke-width: 1.0;"/><path d="M171.9731,337.1431 Q171.3921,337.4419 170.7529,337.5913 Q170.1138,337.7407 169.4082,337.7407 Q166.9014,337.7407 165.5815,336.0889 Q164.2617,334.437 164.2617,331.3159 Q164.2617,328.1865 165.5815,326.5347 Q166.9014,324.8828 169.4082,324.8828 Q170.1138,324.8828 170.7612,325.0322 Q171.4087,325.1816 171.9731,325.4805 L171.9731,328.2031 Q171.3423,327.6221 170.7488,327.3523 Q170.1553,327.0825 169.5244,327.0825 Q168.1797,327.0825 167.4949,328.1492 Q166.8101,329.2158 166.8101,331.3159 Q166.8101,333.4077 167.4949,334.4744 Q168.1797,335.541 169.5244,335.541 Q170.1553,335.541 170.7488,335.2712 Q171.3423,335.0015 171.9731,334.4204 Z "/><text fill="#000000" font-family="sans-serif" font-size="12" lengthAdjust="spacingAndGlyphs" textLength="60" x="183.5" y="335.5352">DiskCache</text><line style="stroke: #A80036; stroke-width: 1.5;" x1="155.5" x2="245.5" y1="347" y2="347"/><line style="stroke: #A80036; stroke-width: 1.5;" x1="155.5" x2="245.5" y1="355" y2="355"/><!--class SyncLoader--><rect fill="#FEFECE" filter="url(#fex9sfx)" height="48" style="stroke: #A80036; stroke-width: 1.5;" width="97" x="316" y="315"/><ellipse cx="331" cy="331" fill="#ADD1B2" rx="11" ry="11" style="stroke: #A80036; stroke-width: 1.0;"/><path d="M333.4731,337.1431 Q332.8921,337.4419 332.2529,337.5913 Q331.6138,337.7407 330.9082,337.7407 Q328.4014,337.7407 327.0815,336.0889 Q325.7617,334.437 325.7617,331.3159 Q325.7617,328.1865 327.0815,326.5347 Q328.4014,324.8828 330.9082,324.8828 Q331.6138,324.8828 332.2612,325.0322 Q332.9087,325.1816 333.4731,325.4805 L333.4731,328.2031 Q332.8423,327.6221 332.2488,327.3523 Q331.6553,327.0825 331.0244,327.0825 Q329.6797,327.0825 328.9949,328.1492 Q328.3101,329.2158 328.3101,331.3159 Q328.3101,333.4077 328.9949,334.4744 Q329.6797,335.541 331.0244,335.541 Q331.6553,335.541 332.2488,335.2712 Q332.8423,335.0015 333.4731,334.4204 Z "/><text fill="#000000" font-family="sans-serif" font-size="12" lengthAdjust="spacingAndGlyphs" textLength="65" x="345" y="335.5352">SyncLoader</text><line style="stroke: #A80036; stroke-width: 1.5;" x1="317" x2="412" y1="347" y2="347"/><line style="stroke: #A80036; stroke-width: 1.5;" x1="317" x2="412" y1="355" y2="355"/><!--class AsyncLoader--><rect fill="#FEFECE" filter="url(#fex9sfx)" height="48" style="stroke: #A80036; stroke-width: 1.5;" width="105" x="448" y="315"/><ellipse cx="463" cy="331" fill="#ADD1B2" rx="11" ry="11" style="stroke: #A80036; stroke-width: 1.0;"/><path d="M465.4731,337.1431 Q464.8921,337.4419 464.2529,337.5913 Q463.6138,337.7407 462.9082,337.7407 Q460.4014,337.7407 459.0815,336.0889 Q457.7617,334.437 457.7617,331.3159 Q457.7617,328.1865 459.0815,326.5347 Q460.4014,324.8828 462.9082,324.8828 Q463.6138,324.8828 464.2612,325.0322 Q464.9087,325.1816 465.4731,325.4805 L465.4731,328.2031 Q464.8423,327.6221 464.2488,327.3523 Q463.6553,327.0825 463.0244,327.0825 Q461.6797,327.0825 460.9949,328.1492 Q460.3101,329.2158 460.3101,331.3159 Q460.3101,333.4077 460.9949,334.4744 Q461.6797,335.541 463.0244,335.541 Q463.6553,335.541 464.2488,335.2712 Q464.8423,335.0015 465.4731,334.4204 Z "/><text fill="#000000" font-family="sans-serif" font-size="12" lengthAdjust="spacingAndGlyphs" textLength="73" x="477" y="335.5352">AsyncLoader</text><line style="stroke: #A80036; stroke-width: 1.5;" x1="449" x2="552" y1="347" y2="347"/><line style="stroke: #A80036; stroke-width: 1.5;" x1="449" x2="552" y1="355" y2="355"/><!--class ImageLoader--><rect fill="#FEFECE" filter="url(#fex9sfx)" height="112.7754" style="stroke: #A80036; stroke-width: 1.5;" width="240" x="162.5" y="8"/><ellipse cx="240.75" cy="24" fill="#ADD1B2" rx="11" ry="11" style="stroke: #A80036; stroke-width: 1.0;"/><path d="M243.2231,30.1431 Q242.6421,30.4419 242.0029,30.5913 Q241.3638,30.7407 240.6582,30.7407 Q238.1514,30.7407 236.8315,29.0889 Q235.5117,27.437 235.5117,24.3159 Q235.5117,21.1865 236.8315,19.5347 Q238.1514,17.8828 240.6582,17.8828 Q241.3638,17.8828 242.0112,18.0322 Q242.6587,18.1816 243.2231,18.4805 L243.2231,21.2031 Q242.5923,20.6221 241.9988,20.3523 Q241.4053,20.0825 240.7744,20.0825 Q239.4297,20.0825 238.7449,21.1492 Q238.0601,22.2158 238.0601,24.3159 Q238.0601,26.4077 238.7449,27.4744 Q239.4297,28.541 240.7744,28.541 Q241.4053,28.541 241.9988,28.2712 Q242.5923,28.0015 243.2231,27.4204 Z "/><text fill="#000000" font-family="sans-serif" font-size="12" lengthAdjust="spacingAndGlyphs" textLength="75" x="261.25" y="28.5352">ImageLoader</text><line style="stroke: #A80036; stroke-width: 1.5;" x1="163.5" x2="401.5" y1="40" y2="40"/><rect fill="none" height="6" style="stroke: #C82930; stroke-width: 1.0;" width="6" x="170.5" y="48.9775"/><text fill="#000000" font-family="sans-serif" font-size="11" lengthAdjust="spacingAndGlyphs" textLength="133" x="182.5" y="54.6348">ImageCache imageCache</text><rect fill="none" height="6" style="stroke: #C82930; stroke-width: 1.0;" width="6" x="170.5" y="61.9326"/><text fill="#000000" font-family="sans-serif" font-size="11" lengthAdjust="spacingAndGlyphs" textLength="74" x="182.5" y="67.5898">Loader loader</text><line style="stroke: #A80036; stroke-width: 1.5;" x1="163.5" x2="401.5" y1="73.9102" y2="73.9102"/><ellipse cx="173.5" cy="85.8877" fill="#84BE84" rx="3" ry="3" style="stroke: #038048; stroke-width: 1.0;"/><text fill="#000000" font-family="sans-serif" font-size="11" lengthAdjust="spacingAndGlyphs" textLength="196" x="182.5" y="88.5449">void display(String url, ImageView iv)</text><ellipse cx="173.5" cy="98.8428" fill="#84BE84" rx="3" ry="3" style="stroke: #038048; stroke-width: 1.0;"/><text fill="#000000" font-family="sans-serif" font-size="11" lengthAdjust="spacingAndGlyphs" textLength="214" x="182.5" y="101.5">void setImageCache(ImageCache cache)</text><ellipse cx="173.5" cy="111.7979" fill="#84BE84" rx="3" ry="3" style="stroke: #038048; stroke-width: 1.0;"/><text fill="#000000" font-family="sans-serif" font-size="11" lengthAdjust="spacingAndGlyphs" textLength="161" x="182.5" y="114.4551">void setLoader(Loader loader)</text><path d="M132.0447,269.4553 C116.2239,285.2761 99.559,301.941 86.5097,314.9903 " fill="none" style="stroke: #A80036; stroke-width: 1.0;"/><polygon fill="none" points="127.1168,264.4837,146.2087,255.2913,137.0163,274.3832,127.1168,264.4837" style="stroke: #A80036; stroke-width: 1.0;"/><path d="M191.55,275.2968 C193.5178,289.3031 195.5179,303.5389 197.1267,314.9903 " fill="none" style="stroke: #A80036; stroke-width: 1.0;"/><polygon fill="none" points="184.59,276.0707,188.7393,255.2913,198.4539,274.1229,184.59,276.0707" style="stroke: #A80036; stroke-width: 1.0;"/><path d="M374.4178,268.4085 C372.1534,284.5255 369.7509,301.6258 367.8777,314.9587 " fill="none" style="stroke: #A80036; stroke-width: 1.0;"/><polygon fill="none" points="367.4956,267.365,377.2102,248.5334,381.3594,269.3128,367.4956,267.365" style="stroke: #A80036; stroke-width: 1.0;"/><path d="M425.805,263.0496 C443.1215,280.6572 462.2785,300.1361 476.8561,314.9587 " fill="none" style="stroke: #A80036; stroke-width: 1.0;"/><polygon fill="none" points="420.5617,267.7013,411.5287,248.5334,430.5434,257.8846,420.5617,267.7013" style="stroke: #A80036; stroke-width: 1.0;"/><path d="M245.9173,121.2216 C235.7343,137.0105 224.767,154.0153 214.9096,169.2993 " fill="none" style="stroke: #A80036; stroke-width: 1.0;"/><polygon fill="#FFFFFF" points="207.6192,180.6031,214.2327,177.7289,214.1233,170.5186,207.5098,173.3928,207.6192,180.6031" style="stroke: #A80036; stroke-width: 1.0;"/><path d="M319.0827,121.2216 C330.808,139.4018 343.5731,159.1941 354.4863,176.1152 " fill="none" style="stroke: #A80036; stroke-width: 1.0;"/><polygon fill="#FFFFFF" points="361.7103,187.316,361.8198,180.1057,355.2062,177.2315,355.0968,184.4418,361.7103,187.316" style="stroke: #A80036; stroke-width: 1.0;"/></g></svg>