<?xml version="1.0" encoding="UTF-8" standalone="no"?><svg xmlns="http://www.w3.org/2000/svg" xmlns:xlink="http://www.w3.org/1999/xlink" contentScriptType="application/ecmascript" contentStyleType="text/css" height="198px" preserveAspectRatio="none" style="width:334px;height:198px;" version="1.1" viewBox="0 0 334 198" width="334px" zoomAndPan="magnify"><defs><filter height="300%" id="f4k00cf" width="300%" x="-1" y="-1"><feGaussianBlur result="blurOut" stdDeviation="2.0"/><feColorMatrix in="blurOut" result="blurOut2" type="matrix" values="0 0 0 0 0 0 0 0 0 0 0 0 0 0 0 0 0 0 .4 0"/><feOffset dx="4.0" dy="4.0" in="blurOut2" result="blurOut3"/><feBlend in="SourceGraphic" in2="blurOut3" mode="normal"/></filter></defs><g><!--class Product--><rect fill="#FEFECE" filter="url(#f4k00cf)" height="60.9551" style="stroke: #A80036; stroke-width: 1.5;" width="102" x="210.5" y="8"/><ellipse cx="237.2" cy="24" fill="#A9DCDF" rx="11" ry="11" style="stroke: #A80036; stroke-width: 1.0;"/><path d="M237.3133,19.5981 L236.1595,24.6699 L238.4754,24.6699 Z M235.8191,17.3569 L238.8157,17.3569 L242.1609,29.75 L239.7122,29.75 L238.9485,26.687 L235.6697,26.687 L234.9227,29.75 L232.4739,29.75 Z "/><text fill="#000000" font-family="sans-serif" font-size="12" font-style="italic" lengthAdjust="spacingAndGlyphs" textLength="44" x="253.8" y="28.5352">Product</text><line style="stroke: #A80036; stroke-width: 1.5;" x1="211.5" x2="311.5" y1="40" y2="40"/><line style="stroke: #A80036; stroke-width: 1.5;" x1="211.5" x2="311.5" y1="48" y2="48"/><ellipse cx="221.5" cy="59.9775" fill="#84BE84" rx="3" ry="3" style="stroke: #038048; stroke-width: 1.0;"/><text fill="#000000" font-family="sans-serif" font-size="11" lengthAdjust="spacingAndGlyphs" textLength="76" x="230.5" y="62.6348">method():Void</text><!--class ConcreteProduct--><rect fill="#FEFECE" filter="url(#f4k00cf)" height="60.9551" style="stroke: #A80036; stroke-width: 1.5;" width="127" x="198" y="129"/><ellipse cx="213" cy="145" fill="#ADD1B2" rx="11" ry="11" style="stroke: #A80036; stroke-width: 1.0;"/><path d="M215.4731,151.1431 Q214.8921,151.4419 214.2529,151.5913 Q213.6138,151.7407 212.9082,151.7407 Q210.4014,151.7407 209.0815,150.0889 Q207.7617,148.437 207.7617,145.3159 Q207.7617,142.1865 209.0815,140.5347 Q210.4014,138.8828 212.9082,138.8828 Q213.6138,138.8828 214.2612,139.0322 Q214.9087,139.1816 215.4731,139.4805 L215.4731,142.2031 Q214.8423,141.6221 214.2488,141.3523 Q213.6553,141.0825 213.0244,141.0825 Q211.6797,141.0825 210.9949,142.1492 Q210.3101,143.2158 210.3101,145.3159 Q210.3101,147.4077 210.9949,148.4744 Q211.6797,149.541 213.0244,149.541 Q213.6553,149.541 214.2488,149.2712 Q214.8423,149.0015 215.4731,148.4204 Z "/><text fill="#000000" font-family="sans-serif" font-size="12" lengthAdjust="spacingAndGlyphs" textLength="95" x="227" y="149.5352">ConcreteProduct</text><line style="stroke: #A80036; stroke-width: 1.5;" x1="199" x2="324" y1="161" y2="161"/><line style="stroke: #A80036; stroke-width: 1.5;" x1="199" x2="324" y1="169" y2="169"/><ellipse cx="209" cy="180.9775" fill="#84BE84" rx="3" ry="3" style="stroke: #038048; stroke-width: 1.0;"/><text fill="#000000" font-family="sans-serif" font-size="11" lengthAdjust="spacingAndGlyphs" textLength="76" x="218" y="183.6348">method():Void</text><!--class Factory--><rect fill="#FEFECE" filter="url(#f4k00cf)" height="60.9551" style="stroke: #A80036; stroke-width: 1.5;" width="157" x="6" y="8"/><ellipse cx="59.75" cy="24" fill="#A9DCDF" rx="11" ry="11" style="stroke: #A80036; stroke-width: 1.0;"/><path d="M59.8633,19.5981 L58.7095,24.6699 L61.0254,24.6699 Z M58.3691,17.3569 L61.3657,17.3569 L64.7109,29.75 L62.2622,29.75 L61.4985,26.687 L58.2197,26.687 L57.4727,29.75 L55.0239,29.75 Z "/><text fill="#000000" font-family="sans-serif" font-size="12" font-style="italic" lengthAdjust="spacingAndGlyphs" textLength="41" x="80.25" y="28.5352">Factory</text><line style="stroke: #A80036; stroke-width: 1.5;" x1="7" x2="162" y1="40" y2="40"/><line style="stroke: #A80036; stroke-width: 1.5;" x1="7" x2="162" y1="48" y2="48"/><ellipse cx="17" cy="59.9775" fill="#84BE84" rx="3" ry="3" style="stroke: #038048; stroke-width: 1.0;"/><text fill="#000000" font-family="sans-serif" font-size="11" lengthAdjust="spacingAndGlyphs" textLength="131" x="26" y="62.6348">createProduct(): Product</text><!--class ConcreteFactory--><rect fill="#FEFECE" filter="url(#f4k00cf)" height="60.9551" style="stroke: #A80036; stroke-width: 1.5;" width="157" x="6" y="129"/><ellipse cx="35.85" cy="145" fill="#ADD1B2" rx="11" ry="11" style="stroke: #A80036; stroke-width: 1.0;"/><path d="M38.3231,151.1431 Q37.7421,151.4419 37.1029,151.5913 Q36.4638,151.7407 35.7582,151.7407 Q33.2514,151.7407 31.9315,150.0889 Q30.6117,148.437 30.6117,145.3159 Q30.6117,142.1865 31.9315,140.5347 Q33.2514,138.8828 35.7582,138.8828 Q36.4638,138.8828 37.1112,139.0322 Q37.7587,139.1816 38.3231,139.4805 L38.3231,142.2031 Q37.6923,141.6221 37.0988,141.3523 Q36.5053,141.0825 35.8744,141.0825 Q34.5297,141.0825 33.8449,142.1492 Q33.1601,143.2158 33.1601,145.3159 Q33.1601,147.4077 33.8449,148.4744 Q34.5297,149.541 35.8744,149.541 Q36.5053,149.541 37.0988,149.2712 Q37.6923,149.0015 38.3231,148.4204 Z "/><text fill="#000000" font-family="sans-serif" font-size="12" lengthAdjust="spacingAndGlyphs" textLength="92" x="53.15" y="149.5352">ConcreteFactory</text><line style="stroke: #A80036; stroke-width: 1.5;" x1="7" x2="162" y1="161" y2="161"/><line style="stroke: #A80036; stroke-width: 1.5;" x1="7" x2="162" y1="169" y2="169"/><ellipse cx="17" cy="180.9775" fill="#84BE84" rx="3" ry="3" style="stroke: #038048; stroke-width: 1.0;"/><text fill="#000000" font-family="sans-serif" font-size="11" lengthAdjust="spacingAndGlyphs" textLength="131" x="26" y="183.6348">createProduct(): Product</text><path d="M261.5,89.2927 C261.5,102.7857 261.5,116.9401 261.5,128.9764 " fill="none" style="stroke: #A80036; stroke-width: 1.0;"/><polygon fill="none" points="254.5001,89.0334,261.5,69.0334,268.5001,89.0334,254.5001,89.0334" style="stroke: #A80036; stroke-width: 1.0;"/><path d="M84.5,89.2927 C84.5,102.7857 84.5,116.9401 84.5,128.9764 " fill="none" style="stroke: #A80036; stroke-width: 1.0;"/><polygon fill="none" points="77.5001,89.0334,84.5,69.0334,91.5001,89.0334,77.5001,89.0334" style="stroke: #A80036; stroke-width: 1.0;"/><path d="M163.3203,159.5 C173.1179,159.5 182.9155,159.5 192.7131,159.5 " fill="none" style="stroke: #A80036; stroke-width: 1.0; stroke-dasharray: 7.0,7.0;"/><polygon fill="#A80036" points="197.8366,159.5,188.8366,155.5,192.8366,159.5,188.8366,163.5,197.8366,159.5" style="stroke: #A80036; stroke-width: 1.0;"/></g></svg>