<?xml version="1.0" encoding="UTF-8" standalone="no"?><svg xmlns="http://www.w3.org/2000/svg" xmlns:xlink="http://www.w3.org/1999/xlink" contentScriptType="application/ecmascript" contentStyleType="text/css" height="473px" preserveAspectRatio="none" style="width:525px;height:473px;" version="1.1" viewBox="0 0 525 473" width="525px" zoomAndPan="magnify"><defs><filter height="300%" id="fmndewf" width="300%" x="-1" y="-1"><feGaussianBlur result="blurOut" stdDeviation="2.0"/><feColorMatrix in="blurOut" result="blurOut2" type="matrix" values="0 0 0 0 0 0 0 0 0 0 0 0 0 0 0 0 0 0 .4 0"/><feOffset dx="4.0" dy="4.0" in="blurOut2" result="blurOut3"/><feBlend in="SourceGraphic" in2="blurOut3" mode="normal"/></filter></defs><g><rect fill="#FFFFFF" filter="url(#fmndewf)" height="189.8633" style="stroke: #000000; stroke-width: 2.0;" width="503.5" x="13" y="169.4199"/><line style="stroke: #A80036; stroke-width: 1.0; stroke-dasharray: 5.0,5.0;" x1="66" x2="66" y1="38.4883" y2="434.9043"/><line style="stroke: #A80036; stroke-width: 1.0; stroke-dasharray: 5.0,5.0;" x1="252.5" x2="252.5" y1="38.4883" y2="434.9043"/><line style="stroke: #A80036; stroke-width: 1.0; stroke-dasharray: 5.0,5.0;" x1="348.5" x2="348.5" y1="38.4883" y2="434.9043"/><rect fill="#FEFECE" filter="url(#fmndewf)" height="30.4883" style="stroke: #A80036; stroke-width: 1.5;" width="82" x="23" y="3"/><text fill="#000000" font-family="sans-serif" font-size="14" lengthAdjust="spacingAndGlyphs" textLength="68" x="30" y="23.5352">ZygoteInit</text><rect fill="#FEFECE" filter="url(#fmndewf)" height="30.4883" style="stroke: #A80036; stroke-width: 1.5;" width="82" x="23" y="433.9043"/><text fill="#000000" font-family="sans-serif" font-size="14" lengthAdjust="spacingAndGlyphs" textLength="68" x="30" y="454.4395">ZygoteInit</text><rect fill="#FEFECE" filter="url(#fmndewf)" height="30.4883" style="stroke: #A80036; stroke-width: 1.5;" width="103" x="199.5" y="3"/><text fill="#000000" font-family="sans-serif" font-size="14" lengthAdjust="spacingAndGlyphs" textLength="89" x="206.5" y="23.5352">ZygoteServer</text><rect fill="#FEFECE" filter="url(#fmndewf)" height="30.4883" style="stroke: #A80036; stroke-width: 1.5;" width="103" x="199.5" y="433.9043"/><text fill="#000000" font-family="sans-serif" font-size="14" lengthAdjust="spacingAndGlyphs" textLength="89" x="206.5" y="454.4395">ZygoteServer</text><rect fill="#FEFECE" filter="url(#fmndewf)" height="30.4883" style="stroke: #A80036; stroke-width: 1.5;" width="60" x="316.5" y="3"/><text fill="#000000" font-family="sans-serif" font-size="14" lengthAdjust="spacingAndGlyphs" textLength="46" x="323.5" y="23.5352">Zygote</text><rect fill="#FEFECE" filter="url(#fmndewf)" height="30.4883" style="stroke: #A80036; stroke-width: 1.5;" width="60" x="316.5" y="433.9043"/><text fill="#000000" font-family="sans-serif" font-size="14" lengthAdjust="spacingAndGlyphs" textLength="46" x="323.5" y="454.4395">Zygote</text><line style="stroke: #A80036; stroke-width: 1.0;" x1="66" x2="108" y1="69.7988" y2="69.7988"/><line style="stroke: #A80036; stroke-width: 1.0;" x1="108" x2="108" y1="69.7988" y2="82.7988"/><line style="stroke: #A80036; stroke-width: 1.0;" x1="67" x2="108" y1="82.7988" y2="82.7988"/><polygon fill="#A80036" points="77,78.7988,67,82.7988,77,86.7988,73,82.7988" style="stroke: #A80036; stroke-width: 1.0;"/><text fill="#000000" font-family="sans-serif" font-size="13" lengthAdjust="spacingAndGlyphs" textLength="31" x="73" y="65.0566">main</text><polygon fill="#A80036" points="241,107.7988,251,111.7988,241,115.7988,245,111.7988" style="stroke: #A80036; stroke-width: 1.0;"/><line style="stroke: #A80036; stroke-width: 1.0;" x1="66" x2="247" y1="111.7988" y2="111.7988"/><text fill="#000000" font-family="sans-serif" font-size="13" lengthAdjust="spacingAndGlyphs" textLength="128" x="73" y="107.3672">registerServerSocket</text><line style="stroke: #A80036; stroke-width: 1.0;" x1="66" x2="108" y1="141.4199" y2="141.4199"/><line style="stroke: #A80036; stroke-width: 1.0;" x1="108" x2="108" y1="141.4199" y2="154.4199"/><line style="stroke: #A80036; stroke-width: 1.0;" x1="67" x2="108" y1="154.4199" y2="154.4199"/><polygon fill="#A80036" points="77,150.4199,67,154.4199,77,158.4199,73,154.4199" style="stroke: #A80036; stroke-width: 1.0;"/><text fill="#000000" font-family="sans-serif" font-size="13" lengthAdjust="spacingAndGlyphs" textLength="47" x="73" y="136.6777">preload</text><rect fill="none" height="189.8633" style="stroke: #000000; stroke-width: 2.0;" width="503.5" x="13" y="169.4199"/><polygon fill="#EEEEEE" points="13,169.4199,156,169.4199,156,176.4199,146,186.4199,13,186.4199,13,169.4199" style="stroke: #000000; stroke-width: 2.0;"/><text fill="#000000" font-family="sans-serif" font-size="13" font-weight="bold" lengthAdjust="spacingAndGlyphs" textLength="98" x="28" y="182.9883">system_server</text><polygon fill="#A80036" points="336.5,203.7305,346.5,207.7305,336.5,211.7305,340.5,207.7305" style="stroke: #A80036; stroke-width: 1.0;"/><line style="stroke: #A80036; stroke-width: 1.0;" x1="66" x2="342.5" y1="207.7305" y2="207.7305"/><text fill="#000000" font-family="sans-serif" font-size="13" lengthAdjust="spacingAndGlyphs" textLength="109" x="73" y="203.2988">forkSystemServer</text><line style="stroke: #A80036; stroke-width: 1.0;" x1="348.5" x2="390.5" y1="237.3516" y2="237.3516"/><line style="stroke: #A80036; stroke-width: 1.0;" x1="390.5" x2="390.5" y1="237.3516" y2="250.3516"/><line style="stroke: #A80036; stroke-width: 1.0;" x1="349.5" x2="390.5" y1="250.3516" y2="250.3516"/><polygon fill="#A80036" points="359.5,246.3516,349.5,250.3516,359.5,254.3516,355.5,250.3516" style="stroke: #A80036; stroke-width: 1.0;"/><text fill="#000000" font-family="sans-serif" font-size="13" lengthAdjust="spacingAndGlyphs" textLength="149" x="355.5" y="232.6094">nativeForkSystemServer</text><polygon fill="#A80036" points="77,275.3516,67,279.3516,77,283.3516,73,279.3516" style="stroke: #A80036; stroke-width: 1.0;"/><line style="stroke: #A80036; stroke-width: 1.0; stroke-dasharray: 2.0,2.0;" x1="71" x2="347.5" y1="279.3516" y2="279.3516"/><text fill="#000000" font-family="sans-serif" font-size="13" lengthAdjust="spacingAndGlyphs" textLength="20" x="83" y="274.9199">pid</text><polygon fill="#A80036" points="241,304.6621,251,308.6621,241,312.6621,245,308.6621" style="stroke: #A80036; stroke-width: 1.0;"/><line style="stroke: #A80036; stroke-width: 1.0;" x1="66" x2="247" y1="308.6621" y2="308.6621"/><text fill="#000000" font-family="sans-serif" font-size="13" lengthAdjust="spacingAndGlyphs" textLength="113" x="73" y="304.2305">closeServerSocket</text><line style="stroke: #A80036; stroke-width: 1.0;" x1="66" x2="108" y1="338.2832" y2="338.2832"/><line style="stroke: #A80036; stroke-width: 1.0;" x1="108" x2="108" y1="338.2832" y2="351.2832"/><line style="stroke: #A80036; stroke-width: 1.0;" x1="67" x2="108" y1="351.2832" y2="351.2832"/><polygon fill="#A80036" points="77,347.2832,67,351.2832,77,355.2832,73,351.2832" style="stroke: #A80036; stroke-width: 1.0;"/><text fill="#000000" font-family="sans-serif" font-size="13" lengthAdjust="spacingAndGlyphs" textLength="173" x="73" y="333.541">handleSystemServerProcess</text><polygon fill="#A80036" points="241,383.2832,251,387.2832,241,391.2832,245,387.2832" style="stroke: #A80036; stroke-width: 1.0;"/><line style="stroke: #A80036; stroke-width: 1.0;" x1="66" x2="247" y1="387.2832" y2="387.2832"/><text fill="#000000" font-family="sans-serif" font-size="13" lengthAdjust="spacingAndGlyphs" textLength="89" x="73" y="382.8516">runSelectLoop</text><polygon fill="#A80036" points="241,412.5938,251,416.5938,241,420.5938,245,416.5938" style="stroke: #A80036; stroke-width: 1.0;"/><line style="stroke: #A80036; stroke-width: 1.0;" x1="66" x2="247" y1="416.5938" y2="416.5938"/><text fill="#000000" font-family="sans-serif" font-size="13" lengthAdjust="spacingAndGlyphs" textLength="113" x="73" y="412.1621">closeServerSocket</text></g></svg>