<?xml version="1.0" encoding="UTF-8" standalone="no"?><svg xmlns="http://www.w3.org/2000/svg" xmlns:xlink="http://www.w3.org/1999/xlink" contentScriptType="application/ecmascript" contentStyleType="text/css" height="212px" preserveAspectRatio="none" style="width:495px;height:212px;" version="1.1" viewBox="0 0 495 212" width="495px" zoomAndPan="magnify"><defs><filter height="300%" id="f44p30m" width="300%" x="-1" y="-1"><feGaussianBlur result="blurOut" stdDeviation="2.0"/><feColorMatrix in="blurOut" result="blurOut2" type="matrix" values="0 0 0 0 0 0 0 0 0 0 0 0 0 0 0 0 0 0 .4 0"/><feOffset dx="4.0" dy="4.0" in="blurOut2" result="blurOut3"/><feBlend in="SourceGraphic" in2="blurOut3" mode="normal"/></filter></defs><g><!--class ImageCache--><rect fill="#FEFECE" filter="url(#f44p30m)" height="73.9102" style="stroke: #A80036; stroke-width: 1.5;" width="180" x="281" y="14.5"/><ellipse cx="331.75" cy="30.5" fill="#B4A7E5" rx="11" ry="11" style="stroke: #A80036; stroke-width: 1.0;"/><path d="M328.1777,26.7651 L328.1777,24.6069 L335.5571,24.6069 L335.5571,26.7651 L333.0918,26.7651 L333.0918,34.8418 L335.5571,34.8418 L335.5571,37 L328.1777,37 L328.1777,34.8418 L330.6431,34.8418 L330.6431,26.7651 Z "/><text fill="#000000" font-family="sans-serif" font-size="12" font-style="italic" lengthAdjust="spacingAndGlyphs" textLength="70" x="352.25" y="35.0352">ImageCache</text><line style="stroke: #A80036; stroke-width: 1.5;" x1="282" x2="460" y1="46.5" y2="46.5"/><line style="stroke: #A80036; stroke-width: 1.5;" x1="282" x2="460" y1="54.5" y2="54.5"/><ellipse cx="292" cy="66.4775" fill="#84BE84" rx="3" ry="3" style="stroke: #038048; stroke-width: 1.0;"/><text fill="#000000" font-family="sans-serif" font-size="11" lengthAdjust="spacingAndGlyphs" textLength="114" x="301" y="69.1348">Bitmap get(String url)</text><ellipse cx="292" cy="79.4326" fill="#84BE84" rx="3" ry="3" style="stroke: #038048; stroke-width: 1.0;"/><text fill="#000000" font-family="sans-serif" font-size="11" lengthAdjust="spacingAndGlyphs" textLength="154" x="301" y="82.0898">void put(String url, Bitmap b)</text><!--class MemoryCache--><rect fill="#FEFECE" filter="url(#f44p30m)" height="48" style="stroke: #A80036; stroke-width: 1.5;" width="113" x="245.5" y="155"/><ellipse cx="260.5" cy="171" fill="#ADD1B2" rx="11" ry="11" style="stroke: #A80036; stroke-width: 1.0;"/><path d="M262.9731,177.1431 Q262.3921,177.4419 261.7529,177.5913 Q261.1138,177.7407 260.4082,177.7407 Q257.9014,177.7407 256.5815,176.0889 Q255.2617,174.437 255.2617,171.3159 Q255.2617,168.1865 256.5815,166.5347 Q257.9014,164.8828 260.4082,164.8828 Q261.1138,164.8828 261.7612,165.0322 Q262.4087,165.1816 262.9731,165.4805 L262.9731,168.2031 Q262.3423,167.6221 261.7488,167.3523 Q261.1553,167.0825 260.5244,167.0825 Q259.1797,167.0825 258.4949,168.1492 Q257.8101,169.2158 257.8101,171.3159 Q257.8101,173.4077 258.4949,174.4744 Q259.1797,175.541 260.5244,175.541 Q261.1553,175.541 261.7488,175.2712 Q262.3423,175.0015 262.9731,174.4204 Z "/><text fill="#000000" font-family="sans-serif" font-size="12" lengthAdjust="spacingAndGlyphs" textLength="81" x="274.5" y="175.5352">MemoryCache</text><line style="stroke: #A80036; stroke-width: 1.5;" x1="246.5" x2="357.5" y1="187" y2="187"/><line style="stroke: #A80036; stroke-width: 1.5;" x1="246.5" x2="357.5" y1="195" y2="195"/><!--class DiskCache--><rect fill="#FEFECE" filter="url(#f44p30m)" height="48" style="stroke: #A80036; stroke-width: 1.5;" width="92" x="394" y="155"/><ellipse cx="409" cy="171" fill="#ADD1B2" rx="11" ry="11" style="stroke: #A80036; stroke-width: 1.0;"/><path d="M411.4731,177.1431 Q410.8921,177.4419 410.2529,177.5913 Q409.6138,177.7407 408.9082,177.7407 Q406.4014,177.7407 405.0815,176.0889 Q403.7617,174.437 403.7617,171.3159 Q403.7617,168.1865 405.0815,166.5347 Q406.4014,164.8828 408.9082,164.8828 Q409.6138,164.8828 410.2612,165.0322 Q410.9087,165.1816 411.4731,165.4805 L411.4731,168.2031 Q410.8423,167.6221 410.2488,167.3523 Q409.6553,167.0825 409.0244,167.0825 Q407.6797,167.0825 406.9949,168.1492 Q406.3101,169.2158 406.3101,171.3159 Q406.3101,173.4077 406.9949,174.4744 Q407.6797,175.541 409.0244,175.541 Q409.6553,175.541 410.2488,175.2712 Q410.8423,175.0015 411.4731,174.4204 Z "/><text fill="#000000" font-family="sans-serif" font-size="12" lengthAdjust="spacingAndGlyphs" textLength="60" x="423" y="175.5352">DiskCache</text><line style="stroke: #A80036; stroke-width: 1.5;" x1="395" x2="485" y1="187" y2="187"/><line style="stroke: #A80036; stroke-width: 1.5;" x1="395" x2="485" y1="195" y2="195"/><!--class ImageLoader--><rect fill="#FEFECE" filter="url(#f44p30m)" height="86.8652" style="stroke: #A80036; stroke-width: 1.5;" width="240" x="6" y="8"/><ellipse cx="84.25" cy="24" fill="#ADD1B2" rx="11" ry="11" style="stroke: #A80036; stroke-width: 1.0;"/><path d="M86.7231,30.1431 Q86.1421,30.4419 85.5029,30.5913 Q84.8638,30.7407 84.1582,30.7407 Q81.6514,30.7407 80.3315,29.0889 Q79.0117,27.437 79.0117,24.3159 Q79.0117,21.1865 80.3315,19.5347 Q81.6514,17.8828 84.1582,17.8828 Q84.8638,17.8828 85.5112,18.0322 Q86.1587,18.1816 86.7231,18.4805 L86.7231,21.2031 Q86.0923,20.6221 85.4988,20.3523 Q84.9053,20.0825 84.2744,20.0825 Q82.9297,20.0825 82.2449,21.1492 Q81.5601,22.2158 81.5601,24.3159 Q81.5601,26.4077 82.2449,27.4744 Q82.9297,28.541 84.2744,28.541 Q84.9053,28.541 85.4988,28.2712 Q86.0923,28.0015 86.7231,27.4204 Z "/><text fill="#000000" font-family="sans-serif" font-size="12" lengthAdjust="spacingAndGlyphs" textLength="75" x="104.75" y="28.5352">ImageLoader</text><line style="stroke: #A80036; stroke-width: 1.5;" x1="7" x2="245" y1="40" y2="40"/><rect fill="none" height="6" style="stroke: #C82930; stroke-width: 1.0;" width="6" x="14" y="48.9775"/><text fill="#000000" font-family="sans-serif" font-size="11" lengthAdjust="spacingAndGlyphs" textLength="133" x="26" y="54.6348">ImageCache imageCache</text><line style="stroke: #A80036; stroke-width: 1.5;" x1="7" x2="245" y1="60.9551" y2="60.9551"/><ellipse cx="17" cy="72.9326" fill="#84BE84" rx="3" ry="3" style="stroke: #038048; stroke-width: 1.0;"/><text fill="#000000" font-family="sans-serif" font-size="11" lengthAdjust="spacingAndGlyphs" textLength="214" x="26" y="75.5898">void setImageCache(ImageCache cache)</text><ellipse cx="17" cy="85.8877" fill="#84BE84" rx="3" ry="3" style="stroke: #038048; stroke-width: 1.0;"/><text fill="#000000" font-family="sans-serif" font-size="11" lengthAdjust="spacingAndGlyphs" textLength="161" x="26" y="88.5449">void setLoader(Loader loader)</text><path d="M341.2374,106.4961 C332.0939,123.3918 322.4978,141.1237 315.0842,154.8226 " fill="none" style="stroke: #A80036; stroke-width: 1.0;"/><polygon fill="none" points="335.1815,102.9788,350.8569,88.721,347.4941,109.6422,335.1815,102.9788" style="stroke: #A80036; stroke-width: 1.0;"/><path d="M400.7626,106.4961 C409.9061,123.3918 419.5022,141.1237 426.9158,154.8226 " fill="none" style="stroke: #A80036; stroke-width: 1.0;"/><polygon fill="none" points="394.5059,109.6422,391.1431,88.721,406.8185,102.9788,394.5059,109.6422" style="stroke: #A80036; stroke-width: 1.0;"/><path d="M246.1074,51.5 C253.2335,51.5 260.3596,51.5 267.4857,51.5 " fill="none" style="stroke: #A80036; stroke-width: 1.0;"/><polygon fill="#FFFFFF" points="280.7456,51.5,274.7456,47.5,268.7456,51.5,274.7456,55.5,280.7456,51.5" style="stroke: #A80036; stroke-width: 1.0;"/></g></svg>