<?xml version="1.0" encoding="UTF-8" standalone="no"?><svg xmlns="http://www.w3.org/2000/svg" xmlns:xlink="http://www.w3.org/1999/xlink" contentScriptType="application/ecmascript" contentStyleType="text/css" height="649px" preserveAspectRatio="none" style="width:239px;height:649px;" version="1.1" viewBox="0 0 239 649" width="239px" zoomAndPan="magnify"><defs><filter height="300%" id="fu7h58c" width="300%" x="-1" y="-1"><feGaussianBlur result="blurOut" stdDeviation="2.0"/><feColorMatrix in="blurOut" result="blurOut2" type="matrix" values="0 0 0 0 0 0 0 0 0 0 0 0 0 0 0 0 0 0 .4 0"/><feOffset dx="4.0" dy="4.0" in="blurOut2" result="blurOut3"/><feBlend in="SourceGraphic" in2="blurOut3" mode="normal"/></filter></defs><g><ellipse cx="130" cy="18" fill="#000000" filter="url(#fu7h58c)" rx="10" ry="10" style="stroke: none; stroke-width: 1.0;"/><rect fill="#FEFECE" filter="url(#fu7h58c)" height="34.1328" rx="12.5" ry="12.5" style="stroke: #A80036; stroke-width: 1.5;" width="67" x="96.5" y="69"/><text fill="#000000" font-family="sans-serif" font-size="12" lengthAdjust="spacingAndGlyphs" textLength="47" x="106.5" y="90.6016">CPU通电</text><polygon fill="#FEFECE" filter="url(#fu7h58c)" points="130,144,142,156,130,168,118,156,130,144" style="stroke: #A80036; stroke-width: 1.5;"/><rect fill="#FEFECE" filter="url(#fu7h58c)" height="34.1328" rx="12.5" ry="12.5" style="stroke: #A80036; stroke-width: 1.5;" width="80" x="50" y="225"/><text fill="#000000" font-family="sans-serif" font-size="12" lengthAdjust="spacingAndGlyphs" textLength="60" x="60" y="246.6016">初始化内存</text><rect fill="#FEFECE" filter="url(#fu7h58c)" height="34.1328" rx="12.5" ry="12.5" style="stroke: #A80036; stroke-width: 1.5;" width="80" x="90" y="300"/><text fill="#000000" font-family="sans-serif" font-size="12" lengthAdjust="spacingAndGlyphs" textLength="60" x="100" y="321.6016">设置栈空间</text><rect fill="#FEFECE" filter="url(#fu7h58c)" height="34.1328" rx="12.5" ry="12.5" style="stroke: #A80036; stroke-width: 1.5;" width="116" x="72" y="375"/><text fill="#000000" font-family="sans-serif" font-size="12" lengthAdjust="spacingAndGlyphs" textLength="96" x="82" y="396.6016">执行 kernel main</text><polygon fill="#FEFECE" filter="url(#fu7h58c)" points="130,450,142,462,130,474,118,462,130,450" style="stroke: #A80036; stroke-width: 1.5;"/><rect fill="#FEFECE" filter="url(#fu7h58c)" height="34.1328" rx="12.5" ry="12.5" style="stroke: #A80036; stroke-width: 1.5;" width="83" x="34.5" y="531"/><text fill="#000000" font-family="sans-serif" font-size="12" lengthAdjust="spacingAndGlyphs" textLength="63" x="44.5" y="552.6016">初始化 uart</text><rect fill="#FEFECE" filter="url(#fu7h58c)" height="34.1328" rx="12.5" ry="12.5" style="stroke: #A80036; stroke-width: 1.5;" width="103" x="77.5" y="606"/><text fill="#000000" font-family="sans-serif" font-size="12" lengthAdjust="spacingAndGlyphs" textLength="83" x="87.5" y="627.6016">发送 hello 消息</text><rect fill="#FEFECE" filter="url(#fu7h58c)" height="34.1328" rx="12.5" ry="12.5" style="stroke: #A80036; stroke-width: 1.5;" width="92" x="138" y="531"/><text fill="#000000" font-family="sans-serif" font-size="12" lengthAdjust="spacingAndGlyphs" textLength="72" x="148" y="552.6016">延迟一定时间</text><path d="M130,28.0336 C130,37.4082 130,51.7285 130,63.7898 " fill="none" style="stroke: #A80036; stroke-width: 1.0;"/><polygon fill="#A80036" points="130,68.7995,134,59.7995,130,63.7995,126,59.7995,130,68.7995" style="stroke: #A80036; stroke-width: 1.0;"/><path d="M130,103.3034 C130,114.1588 130,128.0963 130,138.9108 " fill="none" style="stroke: #A80036; stroke-width: 1.0;"/><polygon fill="#A80036" points="130,143.9417,134,134.9417,130,138.9417,126,134.9417,130,143.9417" style="stroke: #A80036; stroke-width: 1.0;"/><text fill="#000000" font-family="sans-serif" font-size="13" lengthAdjust="spacingAndGlyphs" textLength="109" x="0.9031" y="134.3552">是第一个核心运行?</text><path d="M126.1646,164.246 C120.2663,176.9274 108.7656,201.654 100.3109,219.8316 " fill="none" style="stroke: #A80036; stroke-width: 1.0;"/><polygon fill="#A80036" points="98.0142,224.7695,105.4367,218.2959,100.1229,220.2359,98.1829,214.9221,98.0142,224.7695" style="stroke: #A80036; stroke-width: 1.0;"/><text fill="#000000" font-family="sans-serif" font-size="13" lengthAdjust="spacingAndGlyphs" textLength="13" x="116" y="201.5684">是</text><path d="M99.0766,259.0187 C104.815,269.7782 112.2841,283.7826 118.4441,295.3326 " fill="none" style="stroke: #A80036; stroke-width: 1.0;"/><polygon fill="#A80036" points="120.8208,299.7891,120.1151,289.9656,118.468,295.3773,113.0562,293.7301,120.8208,299.7891" style="stroke: #A80036; stroke-width: 1.0;"/><path d="M131.6756,166.3681 C132.6733,172.6276 133.9462,180.7665 135,188 C139.5602,219.3033 142.6972,227.4815 140,259 C138.9818,270.8988 136.8089,284.022 134.748,294.7715 " fill="none" style="stroke: #A80036; stroke-width: 1.0;"/><polygon fill="#A80036" points="133.7508,299.8421,139.4124,291.7832,134.7157,294.9361,131.5627,290.2394,133.7508,299.8421" style="stroke: #A80036; stroke-width: 1.0;"/><text fill="#000000" font-family="sans-serif" font-size="13" lengthAdjust="spacingAndGlyphs" textLength="26" x="142" y="247.0684">不是</text><path d="M130,334.0187 C130,344.5877 130,358.2879 130,369.7171 " fill="none" style="stroke: #A80036; stroke-width: 1.0;"/><polygon fill="#A80036" points="130,374.7891,134,365.7891,130,369.7891,126,365.7891,130,374.7891" style="stroke: #A80036; stroke-width: 1.0;"/><path d="M130,409.3034 C130,420.1588 130,434.0963 130,444.9108 " fill="none" style="stroke: #A80036; stroke-width: 1.0;"/><polygon fill="#A80036" points="130,449.9417,134,440.9417,130,444.9417,126,440.9417,130,449.9417" style="stroke: #A80036; stroke-width: 1.0;"/><text fill="#000000" font-family="sans-serif" font-size="13" lengthAdjust="spacingAndGlyphs" textLength="109" x="0.9031" y="440.3552">是第一个核心运行?</text><path d="M125.2079,469.6319 C117.3077,482.2136 101.2688,507.7571 89.6444,526.27 " fill="none" style="stroke: #A80036; stroke-width: 1.0;"/><polygon fill="#A80036" points="86.7919,530.813,94.9654,525.3181,89.4508,526.5786,88.1903,521.0639,86.7919,530.813" style="stroke: #A80036; stroke-width: 1.0;"/><text fill="#000000" font-family="sans-serif" font-size="13" lengthAdjust="spacingAndGlyphs" textLength="13" x="111" y="507.5684">是</text><path d="M88.0265,565.0187 C95.6972,575.8734 105.7017,590.0308 113.9047,601.6387 " fill="none" style="stroke: #A80036; stroke-width: 1.0;"/><polygon fill="#A80036" points="116.8376,605.7891,114.9103,596.1306,113.9521,601.7057,108.377,600.7475,116.8376,605.7891" style="stroke: #A80036; stroke-width: 1.0;"/><path d="M134.7921,469.6319 C142.6923,482.2136 158.7312,507.7571 170.3556,526.27 " fill="none" style="stroke: #A80036; stroke-width: 1.0;"/><polygon fill="#A80036" points="173.2081,530.813,171.8097,521.0639,170.5492,526.5786,165.0346,525.3181,173.2081,530.813" style="stroke: #A80036; stroke-width: 1.0;"/><text fill="#000000" font-family="sans-serif" font-size="13" lengthAdjust="spacingAndGlyphs" textLength="26" x="162" y="507.5684">不是</text><path d="M171.5196,565.0187 C163.5595,575.8734 153.1774,590.0308 144.665,601.6387 " fill="none" style="stroke: #A80036; stroke-width: 1.0;"/><polygon fill="#A80036" points="141.6213,605.7891,150.1692,600.897,144.5782,601.7571,143.718,596.166,141.6213,605.7891" style="stroke: #A80036; stroke-width: 1.0;"/></g></svg>