<?xml version="1.0" encoding="UTF-8" standalone="no"?><svg xmlns="http://www.w3.org/2000/svg" xmlns:xlink="http://www.w3.org/1999/xlink" contentScriptType="application/ecmascript" contentStyleType="text/css" height="576px" preserveAspectRatio="none" style="width:845px;height:576px;" version="1.1" viewBox="0 0 845 576" width="845px" zoomAndPan="magnify"><defs><filter height="300%" id="fnx3b4o" width="300%" x="-1" y="-1"><feGaussianBlur result="blurOut" stdDeviation="2.0"/><feColorMatrix in="blurOut" result="blurOut2" type="matrix" values="0 0 0 0 0 0 0 0 0 0 0 0 0 0 0 0 0 0 .4 0"/><feOffset dx="4.0" dy="4.0" in="blurOut2" result="blurOut3"/><feBlend in="SourceGraphic" in2="blurOut3" mode="normal"/></filter></defs><g><rect fill="#FFFFFF" filter="url(#fnx3b4o)" height="458.3818" style="stroke: #A80036; stroke-width: 1.0;" width="10" x="23" y="48.4883"/><rect fill="#FFFFFF" filter="url(#fnx3b4o)" height="169.8633" style="stroke: #000000; stroke-width: 2.0;" width="578.5" x="149.5" y="254.041"/><line style="stroke: #A80036; stroke-width: 1.0; stroke-dasharray: 5.0,5.0;" x1="28" x2="28" y1="38.4883" y2="537.8359"/><line style="stroke: #A80036; stroke-width: 1.0; stroke-dasharray: 5.0,5.0;" x1="189.5" x2="189.5" y1="38.4883" y2="537.8359"/><line style="stroke: #A80036; stroke-width: 1.0; stroke-dasharray: 5.0,5.0;" x1="318.5" x2="318.5" y1="38.4883" y2="537.8359"/><line style="stroke: #A80036; stroke-width: 1.0; stroke-dasharray: 5.0,5.0;" x1="481" x2="481" y1="38.4883" y2="537.8359"/><line style="stroke: #A80036; stroke-width: 1.0; stroke-dasharray: 5.0,5.0;" x1="587" x2="587" y1="38.4883" y2="537.8359"/><rect fill="#FEFECE" filter="url(#fnx3b4o)" height="30.4883" style="stroke: #A80036; stroke-width: 1.5;" width="36" x="8" y="3"/><text fill="#000000" font-family="sans-serif" font-size="14" lengthAdjust="spacingAndGlyphs" textLength="22" x="15" y="23.5352">init</text><rect fill="#FEFECE" filter="url(#fnx3b4o)" height="30.4883" style="stroke: #A80036; stroke-width: 1.5;" width="36" x="8" y="536.8359"/><text fill="#000000" font-family="sans-serif" font-size="14" lengthAdjust="spacingAndGlyphs" textLength="22" x="15" y="557.3711">init</text><rect fill="#FEFECE" filter="url(#fnx3b4o)" height="30.4883" style="stroke: #A80036; stroke-width: 1.5;" width="57" x="159.5" y="3"/><text fill="#000000" font-family="sans-serif" font-size="14" lengthAdjust="spacingAndGlyphs" textLength="43" x="166.5" y="23.5352">Parser</text><rect fill="#FEFECE" filter="url(#fnx3b4o)" height="30.4883" style="stroke: #A80036; stroke-width: 1.5;" width="57" x="159.5" y="536.8359"/><text fill="#000000" font-family="sans-serif" font-size="14" lengthAdjust="spacingAndGlyphs" textLength="43" x="166.5" y="557.3711">Parser</text><rect fill="#FEFECE" filter="url(#fnx3b4o)" height="30.4883" style="stroke: #A80036; stroke-width: 1.5;" width="105" x="264.5" y="3"/><text fill="#000000" font-family="sans-serif" font-size="14" lengthAdjust="spacingAndGlyphs" textLength="91" x="271.5" y="23.5352">ServiceParser</text><rect fill="#FEFECE" filter="url(#fnx3b4o)" height="30.4883" style="stroke: #A80036; stroke-width: 1.5;" width="105" x="264.5" y="536.8359"/><text fill="#000000" font-family="sans-serif" font-size="14" lengthAdjust="spacingAndGlyphs" textLength="91" x="271.5" y="557.3711">ServiceParser</text><rect fill="#FEFECE" filter="url(#fnx3b4o)" height="30.4883" style="stroke: #A80036; stroke-width: 1.5;" width="62" x="448" y="3"/><text fill="#000000" font-family="sans-serif" font-size="14" lengthAdjust="spacingAndGlyphs" textLength="48" x="455" y="23.5352">Service</text><rect fill="#FEFECE" filter="url(#fnx3b4o)" height="30.4883" style="stroke: #A80036; stroke-width: 1.5;" width="62" x="448" y="536.8359"/><text fill="#000000" font-family="sans-serif" font-size="14" lengthAdjust="spacingAndGlyphs" textLength="48" x="455" y="557.3711">Service</text><rect fill="#FEFECE" filter="url(#fnx3b4o)" height="30.4883" style="stroke: #A80036; stroke-width: 1.5;" width="122" x="524" y="3"/><text fill="#000000" font-family="sans-serif" font-size="14" lengthAdjust="spacingAndGlyphs" textLength="108" x="531" y="23.5352">ServiceManager</text><rect fill="#FEFECE" filter="url(#fnx3b4o)" height="30.4883" style="stroke: #A80036; stroke-width: 1.5;" width="122" x="524" y="536.8359"/><text fill="#000000" font-family="sans-serif" font-size="14" lengthAdjust="spacingAndGlyphs" textLength="108" x="531" y="557.3711">ServiceManager</text><rect fill="#FFFFFF" filter="url(#fnx3b4o)" height="458.3818" style="stroke: #A80036; stroke-width: 1.0;" width="10" x="23" y="48.4883"/><line style="stroke: #A80036; stroke-width: 1.0;" x1="33" x2="75" y1="69.7988" y2="69.7988"/><line style="stroke: #A80036; stroke-width: 1.0;" x1="75" x2="75" y1="69.7988" y2="82.7988"/><line style="stroke: #A80036; stroke-width: 1.0;" x1="34" x2="75" y1="82.7988" y2="82.7988"/><polygon fill="#A80036" points="44,78.7988,34,82.7988,44,86.7988,40,82.7988" style="stroke: #A80036; stroke-width: 1.0;"/><text fill="#000000" font-family="sans-serif" font-size="13" lengthAdjust="spacingAndGlyphs" textLength="31" x="40" y="65.0566">main</text><line style="stroke: #A80036; stroke-width: 1.0;" x1="33" x2="75" y1="112.1094" y2="112.1094"/><line style="stroke: #A80036; stroke-width: 1.0;" x1="75" x2="75" y1="112.1094" y2="125.1094"/><line style="stroke: #A80036; stroke-width: 1.0;" x1="34" x2="75" y1="125.1094" y2="125.1094"/><polygon fill="#A80036" points="44,121.1094,34,125.1094,44,129.1094,40,125.1094" style="stroke: #A80036; stroke-width: 1.0;"/><text fill="#000000" font-family="sans-serif" font-size="13" lengthAdjust="spacingAndGlyphs" textLength="111" x="40" y="107.3672">InitKernelLogging</text><line style="stroke: #A80036; stroke-width: 1.0;" x1="33" x2="75" y1="154.4199" y2="154.4199"/><line style="stroke: #A80036; stroke-width: 1.0;" x1="75" x2="75" y1="154.4199" y2="167.4199"/><line style="stroke: #A80036; stroke-width: 1.0;" x1="34" x2="75" y1="167.4199" y2="167.4199"/><polygon fill="#A80036" points="44,163.4199,34,167.4199,44,171.4199,40,167.4199" style="stroke: #A80036; stroke-width: 1.0;"/><text fill="#000000" font-family="sans-serif" font-size="13" lengthAdjust="spacingAndGlyphs" textLength="81" x="40" y="149.6777">property_init</text><line style="stroke: #A80036; stroke-width: 1.0;" x1="33" x2="75" y1="196.7305" y2="196.7305"/><line style="stroke: #A80036; stroke-width: 1.0;" x1="75" x2="75" y1="196.7305" y2="209.7305"/><line style="stroke: #A80036; stroke-width: 1.0;" x1="34" x2="75" y1="209.7305" y2="209.7305"/><polygon fill="#A80036" points="44,205.7305,34,209.7305,44,213.7305,40,209.7305" style="stroke: #A80036; stroke-width: 1.0;"/><text fill="#000000" font-family="sans-serif" font-size="13" lengthAdjust="spacingAndGlyphs" textLength="120" x="40" y="191.9883">signal_handler_init</text><polygon fill="#A80036" points="178,234.7305,188,238.7305,178,242.7305,182,238.7305" style="stroke: #A80036; stroke-width: 1.0;"/><line style="stroke: #A80036; stroke-width: 1.0;" x1="33" x2="184" y1="238.7305" y2="238.7305"/><text fill="#000000" font-family="sans-serif" font-size="13" lengthAdjust="spacingAndGlyphs" textLength="133" x="40" y="234.2988">ParseConfig('/init.rc')</text><rect fill="none" height="169.8633" style="stroke: #000000; stroke-width: 2.0;" width="578.5" x="149.5" y="254.041"/><polygon fill="#EEEEEE" points="149.5,254.041,223.5,254.041,223.5,261.041,213.5,271.041,149.5,271.041,149.5,254.041" style="stroke: #000000; stroke-width: 2.0;"/><text fill="#000000" font-family="sans-serif" font-size="13" font-weight="bold" lengthAdjust="spacingAndGlyphs" textLength="29" x="164.5" y="267.6094">loop</text><text fill="#000000" font-family="sans-serif" font-size="11" font-weight="bold" lengthAdjust="spacingAndGlyphs" textLength="116" x="238.5" y="266.6758">[next_token!=T_EOF]</text><polygon fill="#A80036" points="307,288.3516,317,292.3516,307,296.3516,311,292.3516" style="stroke: #A80036; stroke-width: 1.0;"/><line style="stroke: #A80036; stroke-width: 1.0;" x1="190" x2="313" y1="292.3516" y2="292.3516"/><text fill="#000000" font-family="sans-serif" font-size="13" lengthAdjust="spacingAndGlyphs" textLength="79" x="197" y="287.9199">ParseSection</text><line style="stroke: #A80036; stroke-width: 1.0;" x1="319" x2="361" y1="328.1279" y2="328.1279"/><line style="stroke: #A80036; stroke-width: 1.0;" x1="361" x2="361" y1="328.1279" y2="341.1279"/><line style="stroke: #A80036; stroke-width: 1.0;" x1="320" x2="361" y1="341.1279" y2="341.1279"/><polygon fill="#A80036" points="330,337.1279,320,341.1279,330,345.1279,326,341.1279" style="stroke: #A80036; stroke-width: 1.0;"/><text fill="#000000" font-family="sans-serif" font-size="13" lengthAdjust="spacingAndGlyphs" textLength="148" x="326" y="323.3857">make_unique&lt;Service&gt;</text><polygon fill="#FBFB77" filter="url(#fnx3b4o)" points="486,305.6621,486,345.6621,709,345.6621,709,315.6621,699,305.6621,486,305.6621" style="stroke: #A80036; stroke-width: 1.0;"/><line style="stroke: #A80036; stroke-width: 1.0;" x1="699" x2="699" y1="305.6621" y2="315.6621"/><line style="stroke: #A80036; stroke-width: 1.0;" x1="709" x2="699" y1="315.6621" y2="315.6621"/><text fill="#000000" font-family="sans-serif" font-size="13" lengthAdjust="spacingAndGlyphs" textLength="202" x="492" y="323.2305">创建一个 Service 对象 service_ ，</text><text fill="#000000" font-family="sans-serif" font-size="13" lengthAdjust="spacingAndGlyphs" textLength="176" x="492" y="338.541">存储 rc 文件中的 Service 配置</text><polygon fill="#A80036" points="307,372.2832,317,376.2832,307,380.2832,311,376.2832" style="stroke: #A80036; stroke-width: 1.0;"/><line style="stroke: #A80036; stroke-width: 1.0;" x1="190" x2="313" y1="376.2832" y2="376.2832"/><text fill="#000000" font-family="sans-serif" font-size="13" lengthAdjust="spacingAndGlyphs" textLength="105" x="197" y="371.8516">ParseLineSection</text><polygon fill="#A80036" points="469,406.5938,479,410.5938,469,414.5938,473,410.5938" style="stroke: #A80036; stroke-width: 1.0;"/><line style="stroke: #A80036; stroke-width: 1.0;" x1="319" x2="475" y1="410.5938" y2="410.5938"/><text fill="#000000" font-family="sans-serif" font-size="13" lengthAdjust="spacingAndGlyphs" textLength="59" x="326" y="406.1621">ParseLine</text><polygon fill="#FBFB77" filter="url(#fnx3b4o)" points="486,389.5938,486,414.5938,670,414.5938,670,399.5938,660,389.5938,486,389.5938" style="stroke: #A80036; stroke-width: 1.0;"/><line style="stroke: #A80036; stroke-width: 1.0;" x1="660" x2="660" y1="389.5938" y2="399.5938"/><line style="stroke: #A80036; stroke-width: 1.0;" x1="670" x2="660" y1="399.5938" y2="399.5938"/><text fill="#000000" font-family="sans-serif" font-size="13" lengthAdjust="spacingAndGlyphs" textLength="163" x="492" y="407.1621">为 service_ 的各个属性赋值</text><line style="stroke: #A80036; stroke-width: 1.0;" x1="319" x2="361" y1="452.2148" y2="452.2148"/><line style="stroke: #A80036; stroke-width: 1.0;" x1="361" x2="361" y1="452.2148" y2="465.2148"/><line style="stroke: #A80036; stroke-width: 1.0;" x1="320" x2="361" y1="465.2148" y2="465.2148"/><polygon fill="#A80036" points="330,461.2148,320,465.2148,330,469.2148,326,465.2148" style="stroke: #A80036; stroke-width: 1.0;"/><text fill="#000000" font-family="sans-serif" font-size="13" lengthAdjust="spacingAndGlyphs" textLength="69" x="326" y="447.4727">EndSection</text><polygon fill="#A80036" points="575,502.8701,585,506.8701,575,510.8701,579,506.8701" style="stroke: #A80036; stroke-width: 1.0;"/><line style="stroke: #A80036; stroke-width: 1.0;" x1="319" x2="581" y1="506.8701" y2="506.8701"/><text fill="#000000" font-family="sans-serif" font-size="13" lengthAdjust="spacingAndGlyphs" textLength="128" x="326" y="502.4385">AddService(service_)</text><polygon fill="#FBFB77" filter="url(#fnx3b4o)" points="592,478.2148,592,518.2148,836,518.2148,836,488.2148,826,478.2148,592,478.2148" style="stroke: #A80036; stroke-width: 1.0;"/><line style="stroke: #A80036; stroke-width: 1.0;" x1="826" x2="826" y1="478.2148" y2="488.2148"/><line style="stroke: #A80036; stroke-width: 1.0;" x1="836" x2="826" y1="488.2148" y2="488.2148"/><text fill="#000000" font-family="sans-serif" font-size="13" lengthAdjust="spacingAndGlyphs" textLength="111" x="598" y="495.7832">将 service_ 添加到</text><text fill="#000000" font-family="sans-serif" font-size="13" lengthAdjust="spacingAndGlyphs" textLength="219" x="602" y="511.0938">ServiceManager 的 services_ 数组中</text></g></svg>