<?xml version="1.0" encoding="UTF-8" standalone="no"?><svg xmlns="http://www.w3.org/2000/svg" xmlns:xlink="http://www.w3.org/1999/xlink" contentScriptType="application/ecmascript" contentStyleType="text/css" height="173px" preserveAspectRatio="none" style="width:238px;height:173px;" version="1.1" viewBox="0 0 238 173" width="238px" zoomAndPan="magnify"><defs><filter height="300%" id="fdvyjur" width="300%" x="-1" y="-1"><feGaussianBlur result="blurOut" stdDeviation="2.0"/><feColorMatrix in="blurOut" result="blurOut2" type="matrix" values="0 0 0 0 0 0 0 0 0 0 0 0 0 0 0 0 0 0 .4 0"/><feOffset dx="4.0" dy="4.0" in="blurOut2" result="blurOut3"/><feBlend in="SourceGraphic" in2="blurOut3" mode="normal"/></filter></defs><g><!--class Message--><rect fill="#FEFECE" filter="url(#fdvyjur)" height="48" style="stroke: #A80036; stroke-width: 1.5;" width="82" x="89" y="116"/><ellipse cx="104" cy="132" fill="#ADD1B2" rx="11" ry="11" style="stroke: #A80036; stroke-width: 1.0;"/><path d="M106.4731,138.1431 Q105.8921,138.4419 105.2529,138.5913 Q104.6138,138.7407 103.9082,138.7407 Q101.4014,138.7407 100.0815,137.0889 Q98.7617,135.437 98.7617,132.3159 Q98.7617,129.1865 100.0815,127.5347 Q101.4014,125.8828 103.9082,125.8828 Q104.6138,125.8828 105.2612,126.0322 Q105.9087,126.1816 106.4731,126.4805 L106.4731,129.2031 Q105.8423,128.6221 105.2488,128.3523 Q104.6553,128.0825 104.0244,128.0825 Q102.6797,128.0825 101.9949,129.1492 Q101.3101,130.2158 101.3101,132.3159 Q101.3101,134.4077 101.9949,135.4744 Q102.6797,136.541 104.0244,136.541 Q104.6553,136.541 105.2488,136.2712 Q105.8423,136.0015 106.4731,135.4204 Z "/><text fill="#000000" font-family="sans-serif" font-size="12" lengthAdjust="spacingAndGlyphs" textLength="50" x="118" y="136.5352">Message</text><line style="stroke: #A80036; stroke-width: 1.5;" x1="90" x2="170" y1="148" y2="148"/><line style="stroke: #A80036; stroke-width: 1.5;" x1="90" x2="170" y1="156" y2="156"/><!--class HandlerThread--><rect fill="#FEFECE" filter="url(#fdvyjur)" height="48" style="stroke: #A80036; stroke-width: 1.5;" width="120" x="6" y="8"/><ellipse cx="21" cy="24" fill="#ADD1B2" rx="11" ry="11" style="stroke: #A80036; stroke-width: 1.0;"/><path d="M23.4731,30.1431 Q22.8921,30.4419 22.2529,30.5913 Q21.6138,30.7407 20.9082,30.7407 Q18.4014,30.7407 17.0815,29.0889 Q15.7617,27.437 15.7617,24.3159 Q15.7617,21.1865 17.0815,19.5347 Q18.4014,17.8828 20.9082,17.8828 Q21.6138,17.8828 22.2612,18.0322 Q22.9087,18.1816 23.4731,18.4805 L23.4731,21.2031 Q22.8423,20.6221 22.2488,20.3523 Q21.6553,20.0825 21.0244,20.0825 Q19.6797,20.0825 18.9949,21.1492 Q18.3101,22.2158 18.3101,24.3159 Q18.3101,26.4077 18.9949,27.4744 Q19.6797,28.541 21.0244,28.541 Q21.6553,28.541 22.2488,28.2712 Q22.8423,28.0015 23.4731,27.4204 Z "/><text fill="#000000" font-family="sans-serif" font-size="12" lengthAdjust="spacingAndGlyphs" textLength="88" x="35" y="28.5352">HandlerThread</text><line style="stroke: #A80036; stroke-width: 1.5;" x1="7" x2="125" y1="40" y2="40"/><line style="stroke: #A80036; stroke-width: 1.5;" x1="7" x2="125" y1="48" y2="48"/><!--class Dialog--><rect fill="#FEFECE" filter="url(#fdvyjur)" height="48" style="stroke: #A80036; stroke-width: 1.5;" width="68" x="161" y="8"/><ellipse cx="176" cy="24" fill="#ADD1B2" rx="11" ry="11" style="stroke: #A80036; stroke-width: 1.0;"/><path d="M178.4731,30.1431 Q177.8921,30.4419 177.2529,30.5913 Q176.6138,30.7407 175.9082,30.7407 Q173.4014,30.7407 172.0815,29.0889 Q170.7617,27.437 170.7617,24.3159 Q170.7617,21.1865 172.0815,19.5347 Q173.4014,17.8828 175.9082,17.8828 Q176.6138,17.8828 177.2612,18.0322 Q177.9087,18.1816 178.4731,18.4805 L178.4731,21.2031 Q177.8423,20.6221 177.2488,20.3523 Q176.6553,20.0825 176.0244,20.0825 Q174.6797,20.0825 173.9949,21.1492 Q173.3101,22.2158 173.3101,24.3159 Q173.3101,26.4077 173.9949,27.4744 Q174.6797,28.541 176.0244,28.541 Q176.6553,28.541 177.2488,28.2712 Q177.8423,28.0015 178.4731,27.4204 Z "/><text fill="#000000" font-family="sans-serif" font-size="12" lengthAdjust="spacingAndGlyphs" textLength="36" x="190" y="28.5352">Dialog</text><line style="stroke: #A80036; stroke-width: 1.5;" x1="162" x2="228" y1="40" y2="40"/><line style="stroke: #A80036; stroke-width: 1.5;" x1="162" x2="228" y1="48" y2="48"/><path d="M80.3628,56.2373 C88.7621,70.4111 99.519,88.5633 108.8704,104.3437 " fill="none" style="stroke: #A80036; stroke-width: 1.0;"/><polygon fill="#FFFFFF" points="115.6851,115.8436,116.0674,108.6426,109.5674,105.5201,109.1851,112.7211,115.6851,115.8436" style="stroke: #A80036; stroke-width: 1.0;"/><path d="M180.4127,56.2373 C171.8822,70.4111 160.9573,88.5633 151.4598,104.3437 " fill="none" style="stroke: #A80036; stroke-width: 1.0;"/><polygon fill="#FFFFFF" points="144.5386,115.8436,151.0598,112.7655,150.7266,105.5621,144.2055,108.6402,144.5386,115.8436" style="stroke: #A80036; stroke-width: 1.0;"/></g></svg>